<svg width="391" height="452" viewBox="0 0 391 452" fill="none" xmlns="http://www.w3.org/2000/svg">
<g filter="url(#filter0_d_2219_1955)">
<path d="M386.9 304.856V337.329C386.9 339.221 385.903 340.951 384.276 341.891L208.787 443.906C200.66 448.583 190.665 448.606 182.527 443.963L8.76935 341.926C5.57136 340.034 3.58838 336.596 3.58838 332.882V303.286L188.797 413.095C192.545 415.262 197.153 415.25 200.89 413.095L386.889 304.856H386.9Z" fill="#FEFEFE"/>
<path d="M188.111 414.253L188.117 414.257L188.124 414.261C192.29 416.669 197.411 416.655 201.562 414.261L201.567 414.259L385.555 307.189V337.329C385.555 338.742 384.812 340.027 383.603 340.726L383.599 340.728L208.116 442.74C200.407 447.176 190.929 447.2 183.208 442.803L9.45361 340.768H9.45459C6.66134 339.116 4.93408 336.114 4.93408 332.882V305.647L188.111 414.253Z" stroke="#EAEAEA" stroke-width="2.69132"/>
</g>
<path d="M386.9 304.879V304.856L200.901 413.095C197.164 415.25 192.556 415.262 188.808 413.095L3.58822 303.286V304.088C3.33604 302.197 4.14987 300.203 6.01823 299.114L179.822 198.772C189.106 193.42 200.523 193.42 209.796 198.772L385.25 300.065C387.026 301.085 387.577 303.183 386.889 304.868L386.9 304.879Z" fill="url(#paint0_linear_2219_1955)" fill-opacity="0.8"/>
<path d="M52.4814 356.68C51.9454 356.371 51.4457 355.971 50.9825 355.482C50.5259 354.997 50.1222 354.455 49.7714 353.855C49.4273 353.259 49.156 352.636 48.9574 351.986C48.7655 351.341 48.6696 350.701 48.6696 350.066C48.6696 349.432 48.7655 348.903 48.9574 348.479C49.156 348.051 49.4273 347.741 49.7714 347.55C50.1155 347.352 50.5192 347.279 50.9825 347.333C51.4457 347.378 51.9454 347.556 52.4814 347.866C53.0241 348.179 53.5237 348.578 53.9803 349.063C54.4436 349.545 54.8473 350.084 55.1914 350.68C55.5421 351.28 55.8135 351.902 56.0054 352.548C56.1973 353.194 56.2932 353.834 56.2932 354.468C56.2932 355.102 56.194 355.629 55.9954 356.05C55.8035 356.474 55.5355 356.785 55.1914 356.984C54.8473 357.183 54.4436 357.259 53.9803 357.213C53.5171 357.167 53.0174 356.99 52.4814 356.68ZM52.4814 355.442C52.8652 355.664 53.216 355.786 53.5336 355.809C53.8579 355.836 54.1392 355.777 54.3774 355.631C54.6156 355.479 54.8009 355.249 54.9333 354.944C55.0656 354.63 55.1318 354.248 55.1318 353.797C55.1318 353.347 55.0656 352.892 54.9333 352.433C54.8009 351.975 54.6156 351.532 54.3774 351.104C54.1392 350.676 53.8579 350.288 53.5336 349.94C53.216 349.596 52.8652 349.314 52.4814 349.092C52.0976 348.871 51.7435 348.746 51.4193 348.72C51.1016 348.697 50.8237 348.762 50.5854 348.914C50.3472 349.067 50.1619 349.297 50.0295 349.602C49.9038 349.912 49.8409 350.292 49.8409 350.743C49.8409 351.194 49.9038 351.65 50.0295 352.112C50.1619 352.571 50.3472 353.014 50.5854 353.442C50.8237 353.862 51.1049 354.246 51.4292 354.594C51.7534 354.942 52.1042 355.224 52.4814 355.442ZM59.9753 361.007C59.4261 360.69 58.9364 360.273 58.5062 359.757C58.0827 359.245 57.7485 358.686 57.5036 358.078C57.2654 357.474 57.1462 356.875 57.1462 356.279V350.696L58.3176 351.373V356.898C58.3176 357.272 58.3871 357.645 58.5261 358.015C58.6716 358.39 58.8669 358.728 59.1117 359.03C59.3632 359.335 59.6511 359.582 59.9753 359.769C60.3062 359.96 60.5941 360.046 60.839 360.027C61.0904 360.011 61.2857 359.899 61.4246 359.689C61.5702 359.482 61.643 359.192 61.643 358.818V353.293L62.8044 353.963V359.545C62.8044 360.141 62.6853 360.604 62.4471 360.932C62.2088 361.261 61.8747 361.435 61.4445 361.454C61.021 361.477 60.5312 361.328 59.9753 361.007ZM65.186 363.878V356.542L63.2205 355.407V354.203L68.2831 357.126V358.33L66.3474 357.212V364.548L65.186 363.878ZM71.9059 367.895C71.3831 367.593 70.8967 367.201 70.4467 366.72C70.0033 366.242 69.6161 365.713 69.2852 365.132C68.961 364.548 68.7062 363.935 68.5209 363.293C68.3356 362.651 68.2429 362.009 68.2429 361.367C68.2429 360.733 68.3323 360.2 68.511 359.768C68.6963 359.333 68.9544 359.015 69.2852 358.817C69.6161 358.61 70.0033 358.528 70.4467 358.57C70.8901 358.605 71.3765 358.775 71.9059 359.08C72.4287 359.382 72.8952 359.755 73.3056 360.198C73.7225 360.645 74.0732 361.119 74.3578 361.619C74.6423 362.112 74.8475 362.59 74.9732 363.052L73.921 363.018C73.7622 362.467 73.5074 361.95 73.1567 361.465C72.8125 360.975 72.3956 360.59 71.9059 360.307C71.4162 360.024 70.9827 359.908 70.6055 359.957C70.2283 360.007 69.9338 360.208 69.722 360.559C69.5169 360.914 69.4143 361.409 69.4143 362.043C69.4143 362.678 69.5169 363.295 69.722 363.895C69.9338 364.491 70.2283 365.031 70.6055 365.516C70.9827 365.994 71.4162 366.374 71.9059 366.657C72.3956 366.94 72.8125 367.039 73.1567 366.955C73.5074 366.875 73.7622 366.651 73.921 366.284L74.9732 367.465C74.8475 367.775 74.6423 368.015 74.3578 368.187C74.0732 368.359 73.7225 368.428 73.3056 368.394C72.8952 368.363 72.4287 368.197 71.9059 367.895ZM79.3742 372.207C78.8381 371.897 78.3385 371.498 77.8752 371.009C77.4186 370.524 77.0149 369.981 76.6642 369.381C76.3201 368.785 76.0487 368.162 75.8502 367.513C75.6583 366.867 75.5623 366.227 75.5623 365.593C75.5623 364.959 75.6583 364.43 75.8502 364.005C76.0487 363.577 76.3201 363.268 76.6642 363.077C77.0083 362.878 77.412 362.806 77.8752 362.859C78.3385 362.905 78.8381 363.083 79.3742 363.392C79.9168 363.705 80.4165 364.105 80.8731 364.59C81.3363 365.071 81.74 365.61 82.0841 366.206C82.4349 366.806 82.7062 367.429 82.8981 368.075C83.09 368.72 83.186 369.36 83.186 369.994C83.186 370.629 83.0867 371.156 82.8882 371.576C82.6963 372 82.4283 372.312 82.0841 372.51C81.74 372.709 81.3363 372.786 80.8731 372.74C80.4098 372.694 79.9102 372.516 79.3742 372.207ZM79.3742 370.969C79.758 371.19 80.1087 371.313 80.4264 371.336C80.7507 371.362 81.0319 371.303 81.2702 371.158C81.5084 371.005 81.6937 370.776 81.8261 370.47C81.9584 370.157 82.0246 369.775 82.0246 369.324C82.0246 368.873 81.9584 368.418 81.8261 367.96C81.6937 367.501 81.5084 367.058 81.2702 366.63C81.0319 366.202 80.7507 365.815 80.4264 365.467C80.1087 365.123 79.758 364.84 79.3742 364.619C78.9903 364.397 78.6363 364.273 78.312 364.246C77.9944 364.223 77.7164 364.288 77.4782 364.441C77.2399 364.594 77.0546 364.823 76.9223 365.129C76.7965 365.438 76.7337 365.818 76.7337 366.269C76.7337 366.72 76.7965 367.177 76.9223 367.639C77.0546 368.097 77.2399 368.541 77.4782 368.969C77.7164 369.389 77.9977 369.773 78.3219 370.121C78.6462 370.468 78.9969 370.751 79.3742 370.969ZM84.0986 374.797V366.257L85.1905 366.888L87.97 372.94L87.424 372.625L90.1538 369.753L91.2458 370.384V378.923L90.0843 378.253V371.307L90.5211 371.696L87.7317 374.487L87.6126 374.419L84.8828 368.441L85.2699 368.527V375.473L84.0986 374.797ZM92.3776 379.577V371.037L97.2516 373.851V375.055L93.549 372.917V375.37L97.0531 377.393V378.597L93.549 376.574V379.049L97.2516 381.187V382.391L92.3776 379.577ZM100.533 384.423C100.07 384.155 99.6399 383.808 99.2428 383.38C98.8457 382.944 98.5082 382.471 98.2303 381.959C97.9523 381.447 97.7472 380.923 97.6148 380.388L98.6075 380.48C98.7862 381.11 99.0476 381.666 99.3917 382.148C99.7358 382.629 100.133 383 100.583 383.26C100.848 383.412 101.079 383.5 101.278 383.523C101.476 383.538 101.629 383.489 101.734 383.374C101.847 383.263 101.903 383.093 101.903 382.864C101.903 382.551 101.827 382.258 101.675 381.987C101.523 381.716 101.298 381.441 101 381.162L99.6101 379.855C99.0542 379.336 98.6306 378.789 98.3395 378.216C98.0483 377.635 97.9027 377.07 97.9027 376.52C97.9027 376.038 98.0053 375.677 98.2104 375.436C98.4156 375.188 98.6968 375.064 99.0542 375.064C99.4182 375.068 99.8318 375.203 100.295 375.471C100.738 375.727 101.142 376.052 101.506 376.445C101.87 376.831 102.181 377.255 102.439 377.717C102.704 378.184 102.896 378.657 103.015 379.139L102.042 379.07C101.897 378.535 101.668 378.056 101.357 377.631C101.053 377.211 100.699 376.885 100.295 376.651C100.05 376.51 99.8351 376.436 99.6498 376.428C99.4645 376.413 99.3189 376.466 99.213 376.588C99.1137 376.707 99.0641 376.885 99.0641 377.121C99.0641 377.397 99.1402 377.685 99.2924 377.987C99.4446 378.289 99.6763 378.583 99.9873 378.869L101.278 380.084C101.867 380.631 102.31 381.185 102.608 381.746C102.906 382.3 103.055 382.864 103.055 383.437C103.055 383.911 102.945 384.268 102.727 384.509C102.515 384.753 102.221 384.874 101.844 384.87C101.466 384.858 101.03 384.709 100.533 384.423ZM107.455 388.419C107.018 388.167 106.634 387.854 106.303 387.479C105.972 387.097 105.711 386.683 105.519 386.236C105.334 385.785 105.241 385.334 105.241 384.883C105.241 384.501 105.301 384.203 105.42 383.989C105.539 383.767 105.688 383.609 105.867 383.513C106.045 383.41 106.224 383.341 106.403 383.307C106.581 383.272 106.73 383.251 106.849 383.244L107.455 383.204C107.653 383.188 107.842 383.16 108.021 383.118C108.199 383.076 108.345 382.995 108.457 382.877C108.57 382.759 108.626 382.585 108.626 382.355C108.626 382.08 108.547 381.805 108.388 381.53C108.229 381.247 108.031 381.037 107.792 380.9C107.554 380.762 107.356 380.739 107.197 380.831C107.038 380.923 106.958 381.114 106.958 381.404C106.958 381.603 106.998 381.821 107.078 382.057C107.164 382.298 107.263 382.535 107.375 382.768C107.494 382.997 107.61 383.217 107.723 383.427L111.693 390.729L110.294 389.921L106.889 383.725C106.73 383.435 106.571 383.133 106.412 382.82C106.26 382.503 106.131 382.176 106.025 381.84C105.926 381.507 105.876 381.173 105.876 380.837C105.876 380.401 105.962 380.073 106.135 379.851C106.313 379.633 106.545 379.519 106.829 379.507C107.121 379.499 107.438 379.595 107.782 379.794C108.133 379.996 108.451 380.271 108.735 380.619C109.02 380.959 109.245 381.333 109.41 381.742C109.582 382.155 109.668 382.56 109.668 382.957C109.668 383.37 109.586 383.677 109.42 383.88C109.255 384.082 109.053 384.218 108.815 384.287C108.583 384.359 108.365 384.409 108.16 384.436L107.554 384.499C107.395 384.514 107.226 384.551 107.048 384.608C106.876 384.661 106.73 384.761 106.611 384.906C106.492 385.043 106.432 385.257 106.432 385.548C106.432 385.907 106.528 386.241 106.72 386.551C106.919 386.864 107.177 387.112 107.494 387.296C107.7 387.414 107.882 387.481 108.04 387.496C108.199 387.512 108.338 387.493 108.457 387.439C108.583 387.389 108.692 387.319 108.785 387.227C108.884 387.131 108.974 387.042 109.053 386.958L110.204 385.674L111.406 386.367L110.075 387.984C109.97 388.106 109.844 388.239 109.698 388.385C109.553 388.522 109.377 388.635 109.172 388.723C108.967 388.803 108.722 388.826 108.438 388.792C108.16 388.761 107.832 388.637 107.455 388.419ZM115.905 393.16L113.284 383.108L114.545 383.835L116.689 392.363L116.441 392.22L118.575 386.162L119.836 386.89L117.215 393.917L115.905 393.16ZM119.159 395.039L121.76 388.001L123.209 388.838L125.81 398.879L124.559 398.157L123.993 395.916L120.985 394.179L120.41 395.761L119.159 395.039ZM121.323 393.171L123.636 394.506L122.325 389.279L122.653 389.468L121.323 393.171ZM126.29 399.156V390.617L127.461 391.293V398.629L130.658 400.474V401.678L126.29 399.156ZM133.82 403.641C133.27 403.324 132.781 402.907 132.351 402.391C131.927 401.88 131.593 401.32 131.348 400.712C131.11 400.109 130.991 399.509 130.991 398.913V393.331L132.162 394.007V399.532C132.162 399.906 132.231 400.279 132.37 400.649C132.516 401.024 132.711 401.362 132.956 401.664C133.208 401.969 133.495 402.216 133.82 402.403C134.151 402.594 134.438 402.68 134.683 402.661C134.935 402.646 135.13 402.533 135.269 402.323C135.415 402.116 135.487 401.826 135.487 401.452V395.927L136.649 396.597V402.179C136.649 402.775 136.53 403.238 136.291 403.566C136.053 403.895 135.719 404.069 135.289 404.088C134.865 404.111 134.376 403.962 133.82 403.641ZM137.72 405.755V397.216L142.594 400.03V401.233L138.891 399.096V401.549L142.396 403.572V404.775L138.891 402.752V405.228L142.594 407.366V408.569L137.72 405.755Z" fill="#0B30AD"/>
<g filter="url(#filter2_d_2219_1955)">
<path d="M386.9 254.722V287.194C386.9 289.086 385.903 290.817 384.276 291.756L208.787 393.771C200.66 398.448 190.665 398.471 182.527 393.829L8.76935 291.791C5.57136 289.9 3.58838 286.461 3.58838 282.747V253.151L188.797 362.96C192.545 365.127 197.153 365.115 200.89 362.96L386.889 254.722H386.9Z" fill="#FEFEFE"/>
<path d="M188.111 364.118L188.117 364.122L188.124 364.126C192.29 366.534 197.411 366.52 201.562 364.126L201.567 364.124L385.555 257.055V287.194C385.555 288.607 384.812 289.892 383.603 290.591L383.599 290.593L208.116 392.605C200.407 397.041 190.929 397.065 183.208 392.668L9.45361 290.633H9.45459C6.66134 288.981 4.93408 285.98 4.93408 282.747V255.513L188.111 364.118Z" stroke="#EAEAEA" stroke-width="2.69132"/>
</g>
<path d="M386.9 254.745V254.722L200.901 362.96C197.164 365.115 192.556 365.127 188.808 362.96L3.58822 253.151V253.954C3.33604 252.062 4.14987 250.068 6.01823 248.979L179.822 148.638C189.106 143.285 200.523 143.285 209.796 148.638L385.25 249.93C387.026 250.95 387.577 253.048 386.889 254.733L386.9 254.745Z" fill="url(#paint1_linear_2219_1955)" fill-opacity="0.8"/>
<path d="M48.0281 303.837L45.9931 294.123L47.2339 294.839L48.8817 303.184L48.574 303.006L50.2814 296.598L51.5024 297.303L53.2098 305.682L52.8921 305.499L54.5499 299.063L55.7808 299.774L53.7557 307.144L52.4355 306.382L50.7182 298.112L51.0656 298.312L49.3384 304.593L48.0281 303.837ZM59.655 310.687C59.1189 310.378 58.6193 309.979 58.1561 309.489C57.6994 309.004 57.2957 308.462 56.945 307.862C56.6009 307.266 56.3295 306.643 56.131 305.993C55.9391 305.348 55.8431 304.708 55.8431 304.074C55.8431 303.439 55.9391 302.91 56.131 302.486C56.3295 302.058 56.6009 301.749 56.945 301.558C57.2891 301.359 57.6928 301.286 58.1561 301.34C58.6193 301.386 59.1189 301.563 59.655 301.873C60.1976 302.186 60.6973 302.585 61.1539 303.071C61.6172 303.552 62.0208 304.091 62.365 304.687C62.7157 305.287 62.987 305.909 63.1789 306.555C63.3709 307.201 63.4668 307.841 63.4668 308.475C63.4668 309.109 63.3676 309.637 63.169 310.057C62.9771 310.481 62.7091 310.792 62.365 310.991C62.0208 311.19 61.6172 311.266 61.1539 311.22C60.6907 311.174 60.191 310.997 59.655 310.687ZM59.655 309.449C60.0388 309.671 60.3896 309.793 60.7072 309.816C61.0315 309.843 61.3127 309.784 61.551 309.638C61.7892 309.486 61.9745 309.256 62.1069 308.951C62.2392 308.637 62.3054 308.255 62.3054 307.805C62.3054 307.354 62.2392 306.899 62.1069 306.441C61.9745 305.982 61.7892 305.539 61.551 305.111C61.3127 304.683 61.0315 304.295 60.7072 303.947C60.3896 303.604 60.0388 303.321 59.655 303.099C59.2711 302.878 58.9171 302.753 58.5928 302.727C58.2752 302.704 57.9972 302.769 57.759 302.922C57.5207 303.074 57.3354 303.304 57.2031 303.609C57.0774 303.919 57.0145 304.299 57.0145 304.75C57.0145 305.201 57.0774 305.657 57.2031 306.12C57.3354 306.578 57.5207 307.021 57.759 307.449C57.9972 307.869 58.2785 308.253 58.6028 308.601C58.927 308.949 59.2778 309.232 59.655 309.449ZM64.3794 313.277V304.738L67.0695 306.291C67.5658 306.578 68.0026 306.937 68.3798 307.369C68.757 307.793 69.0515 308.268 69.2633 308.796C69.4817 309.319 69.5909 309.86 69.5909 310.418C69.5909 311.006 69.4618 311.436 69.2037 311.707C68.9523 311.982 68.6115 312.091 68.1813 312.034L69.8887 316.458L68.5585 315.69L66.7419 310.916L67.5063 311.873L65.5507 310.744V313.954L64.3794 313.277ZM65.5507 309.541L67.0894 310.429C67.3607 310.586 67.5956 310.66 67.7942 310.653C67.9927 310.645 68.1449 310.565 68.2508 310.412C68.3633 310.255 68.4195 310.028 68.4195 309.73C68.4195 309.432 68.3633 309.143 68.2508 308.864C68.1449 308.582 67.9927 308.326 67.7942 308.096C67.5956 307.86 67.3607 307.663 67.0894 307.506L65.5507 306.618V309.541ZM70.4773 316.798V308.259L71.6487 308.935V313.566L71.3409 313.25L74.6862 310.689L76.1454 311.531L73.1873 313.824L73.2468 312.895L76.2646 320.139L74.8847 319.343L72.7207 314.185L71.6487 315.01V317.474L70.4773 316.798ZM76.74 320.414V311.874L81.5545 314.654V315.858L77.9114 313.754V316.322L81.1574 318.196V319.399L77.9114 317.525V321.09L76.74 320.414ZM82.14 323.531V314.992L83.3113 315.668V323.004L86.5077 324.85V326.053L82.14 323.531ZM90.4936 328.492C89.9575 328.182 89.4579 327.783 88.9947 327.294C88.538 326.809 88.1343 326.266 87.7836 325.667C87.4395 325.07 87.1682 324.448 86.9696 323.798C86.7777 323.152 86.6817 322.512 86.6817 321.878C86.6817 321.244 86.7777 320.715 86.9696 320.291C87.1682 319.863 87.4395 319.553 87.7836 319.362C88.1277 319.164 88.5314 319.091 88.9947 319.144C89.4579 319.19 89.9575 319.368 90.4936 319.677C91.0362 319.991 91.5359 320.39 91.9925 320.875C92.4558 321.357 92.8594 321.895 93.2036 322.491C93.5543 323.091 93.8256 323.714 94.0176 324.36C94.2095 325.006 94.3054 325.645 94.3054 326.28C94.3054 326.914 94.2062 327.441 94.0076 327.862C93.8157 328.286 93.5477 328.597 93.2036 328.796C92.8594 328.994 92.4558 329.071 91.9925 329.025C91.5293 328.979 91.0296 328.801 90.4936 328.492ZM90.4936 327.254C90.8774 327.476 91.2282 327.598 91.5458 327.621C91.8701 327.648 92.1513 327.588 92.3896 327.443C92.6278 327.29 92.8131 327.061 92.9455 326.755C93.0778 326.442 93.144 326.06 93.144 325.609C93.144 325.158 93.0778 324.704 92.9455 324.245C92.8131 323.787 92.6278 323.343 92.3896 322.916C92.1513 322.488 91.8701 322.1 91.5458 321.752C91.2282 321.408 90.8774 321.126 90.4936 320.904C90.1098 320.682 89.7557 320.558 89.4314 320.531C89.1138 320.508 88.8358 320.573 88.5976 320.726C88.3594 320.879 88.1741 321.108 88.0417 321.414C87.916 321.723 87.8531 322.104 87.8531 322.554C87.8531 323.005 87.916 323.462 88.0417 323.924C88.1741 324.383 88.3594 324.826 88.5976 325.254C88.8358 325.674 89.1171 326.058 89.4414 326.406C89.7656 326.754 90.1164 327.036 90.4936 327.254ZM96.4039 331.767L94.3689 322.052L95.6098 322.769L97.2576 331.113L96.9499 330.936L98.6573 324.528L99.8783 325.233L101.586 333.612L101.268 333.429L102.926 326.993L104.157 327.703L102.132 335.074L100.811 334.311L99.094 326.041L99.4415 326.242L97.7142 332.523L96.4039 331.767ZM107.125 338.094C106.662 337.827 106.232 337.479 105.835 337.051C105.438 336.616 105.1 336.142 104.822 335.63C104.544 335.118 104.339 334.594 104.207 334.059L105.199 334.151C105.378 334.782 105.639 335.338 105.984 335.819C106.328 336.3 106.725 336.671 107.175 336.931C107.44 337.084 107.671 337.172 107.87 337.194C108.068 337.21 108.22 337.16 108.326 337.045C108.439 336.935 108.495 336.765 108.495 336.535C108.495 336.222 108.419 335.93 108.267 335.658C108.115 335.387 107.89 335.112 107.592 334.833L106.202 333.526C105.646 333.007 105.223 332.46 104.931 331.887C104.64 331.307 104.495 330.741 104.495 330.191C104.495 329.71 104.597 329.348 104.802 329.108C105.008 328.859 105.289 328.735 105.646 328.735C106.01 328.739 106.424 328.875 106.887 329.142C107.33 329.398 107.734 329.723 108.098 330.116C108.462 330.502 108.773 330.926 109.031 331.389C109.296 331.855 109.488 332.329 109.607 332.81L108.634 332.741C108.488 332.206 108.26 331.727 107.949 331.303C107.645 330.883 107.291 330.556 106.887 330.323C106.642 330.181 106.427 330.107 106.242 330.099C106.056 330.084 105.911 330.137 105.805 330.26C105.706 330.378 105.656 330.556 105.656 330.793C105.656 331.068 105.732 331.356 105.884 331.658C106.037 331.96 106.268 332.254 106.579 332.541L107.87 333.756C108.459 334.302 108.902 334.856 109.2 335.418C109.498 335.972 109.647 336.535 109.647 337.108C109.647 337.582 109.537 337.939 109.319 338.18C109.107 338.425 108.813 338.545 108.436 338.541C108.058 338.53 107.622 338.381 107.125 338.094ZM114.047 342.09C113.61 341.838 113.226 341.525 112.895 341.15C112.564 340.768 112.303 340.354 112.111 339.907C111.926 339.456 111.833 339.005 111.833 338.554C111.833 338.172 111.893 337.874 112.012 337.66C112.131 337.439 112.28 337.28 112.458 337.185C112.637 337.081 112.816 337.013 112.994 336.978C113.173 336.944 113.322 336.923 113.441 336.915L114.047 336.875C114.245 336.86 114.434 336.831 114.613 336.789C114.791 336.747 114.937 336.667 115.049 336.548C115.162 336.43 115.218 336.256 115.218 336.027C115.218 335.752 115.139 335.477 114.98 335.202C114.821 334.919 114.622 334.709 114.384 334.571C114.146 334.434 113.947 334.411 113.789 334.502C113.63 334.594 113.55 334.785 113.55 335.075C113.55 335.274 113.59 335.492 113.67 335.729C113.756 335.969 113.855 336.206 113.967 336.439C114.086 336.669 114.202 336.888 114.315 337.099L118.285 344.4L116.886 343.592L113.481 337.397C113.322 337.106 113.163 336.804 113.004 336.491C112.852 336.174 112.723 335.847 112.617 335.511C112.518 335.179 112.468 334.844 112.468 334.508C112.468 334.072 112.554 333.744 112.726 333.522C112.905 333.305 113.137 333.19 113.421 333.178C113.713 333.171 114.03 333.266 114.374 333.465C114.725 333.667 115.043 333.943 115.327 334.29C115.612 334.63 115.837 335.005 116.002 335.414C116.174 335.826 116.26 336.231 116.26 336.629C116.26 337.041 116.178 337.349 116.012 337.551C115.847 337.754 115.645 337.889 115.407 337.958C115.175 338.031 114.957 338.08 114.752 338.107L114.146 338.17C113.987 338.186 113.818 338.222 113.64 338.279C113.468 338.333 113.322 338.432 113.203 338.577C113.084 338.715 113.024 338.929 113.024 339.219C113.024 339.578 113.12 339.913 113.312 340.222C113.511 340.535 113.769 340.784 114.086 340.967C114.292 341.086 114.474 341.152 114.632 341.168C114.791 341.183 114.93 341.164 115.049 341.11C115.175 341.061 115.284 340.99 115.377 340.898C115.476 340.803 115.565 340.713 115.645 340.629L116.796 339.345L117.998 340.039L116.667 341.655C116.561 341.777 116.436 341.911 116.29 342.056C116.145 342.194 115.969 342.306 115.764 342.394C115.559 342.474 115.314 342.497 115.029 342.463C114.752 342.432 114.424 342.308 114.047 342.09ZM120.531 345.697V337.157L122.953 338.556C123.721 338.999 124.386 339.562 124.948 340.246C125.518 340.926 125.958 341.677 126.269 342.499C126.58 343.32 126.735 344.155 126.735 345.003C126.735 345.844 126.58 346.499 126.269 346.969C125.958 347.431 125.518 347.678 124.948 347.708C124.386 347.743 123.721 347.538 122.953 347.095L120.531 345.697ZM121.702 345.169L122.973 345.903C123.496 346.205 123.949 346.34 124.333 346.31C124.723 346.283 125.024 346.102 125.236 345.765C125.448 345.429 125.554 344.948 125.554 344.321C125.554 343.694 125.445 343.093 125.226 342.516C125.015 341.935 124.717 341.408 124.333 340.934C123.949 340.46 123.496 340.072 122.973 339.771L121.702 339.037V345.169ZM126.536 349.164L129.137 342.126L130.586 342.962L133.187 353.003L131.936 352.281L131.37 350.04L128.363 348.304L127.787 349.886L126.536 349.164ZM128.7 347.295L131.013 348.631L129.703 343.404L130.03 343.593L128.7 347.295ZM134.483 353.752V346.416L132.518 345.281V344.078L137.58 347V348.204L135.645 347.086V354.422L134.483 353.752ZM136.909 355.153L139.51 348.115L140.959 348.951L143.56 358.992L142.31 358.27L141.744 356.029L138.736 354.293L138.16 355.875L136.909 355.153ZM139.073 353.284L141.386 354.62L140.076 349.393L140.404 349.582L139.073 353.284Z" fill="#0B30AD"/>
<g filter="url(#filter4_d_2219_1955)">
<path d="M383.13 207.07V239.038C383.13 240.895 382.144 242.603 380.551 243.531L207.779 343.964C199.778 348.572 189.932 348.595 181.92 344.022L10.8561 243.566C7.70397 241.709 5.75537 238.316 5.75537 234.66V205.522L188.098 313.635C191.789 315.767 196.328 315.756 200.008 313.635L383.13 207.07Z" fill="#FEFEFE"/>
<path d="M187.412 314.793L187.425 314.801C191.534 317.174 196.586 317.16 200.679 314.801L200.684 314.798L381.785 209.41V239.038C381.785 240.415 381.054 241.68 379.875 242.368L207.103 342.801C199.754 347.031 190.764 347.183 183.304 343.247L182.587 342.853L11.5376 242.405C8.79498 240.789 7.10123 237.837 7.10107 234.66V207.884L187.412 314.793Z" stroke="#EAEAEA" stroke-width="2.69132"/>
</g>
<path d="M383.131 207.093V207.07L200.008 313.635C196.329 315.756 191.79 315.767 188.099 313.635L5.75618 205.522V206.313C5.50401 204.456 6.30638 202.485 8.15181 201.419L179.262 102.636C188.397 97.3637 199.642 97.3637 208.777 102.636L381.515 202.359C383.268 203.367 383.807 205.431 383.131 207.093Z" fill="url(#paint2_linear_2219_1955)" fill-opacity="0.8"/>
<path d="M50.8964 253.93C50.4331 253.663 50.003 253.315 49.6059 252.887C49.2089 252.452 48.8713 251.978 48.5934 251.466C48.3155 250.954 48.1103 250.43 47.9779 249.895L48.9706 249.987C49.1493 250.618 49.4107 251.174 49.7548 251.655C50.0989 252.136 50.496 252.507 50.946 252.767C51.2107 252.92 51.4424 253.008 51.6409 253.03C51.8394 253.046 51.9916 252.996 52.0975 252.881C52.21 252.771 52.2663 252.601 52.2663 252.371C52.2663 252.058 52.1902 251.766 52.038 251.494C51.8857 251.223 51.6607 250.948 51.3629 250.669L49.9732 249.362C49.4173 248.843 48.9938 248.296 48.7026 247.723C48.4114 247.143 48.2658 246.577 48.2658 246.027C48.2658 245.546 48.3684 245.184 48.5735 244.944C48.7787 244.695 49.06 244.571 49.4173 244.571C49.7813 244.575 50.1949 244.711 50.6581 244.978C51.1015 245.234 51.5052 245.559 51.8692 245.952C52.2332 246.338 52.5442 246.762 52.8023 247.225C53.067 247.691 53.2589 248.165 53.3781 248.646L52.4052 248.577C52.2597 248.042 52.0313 247.563 51.7203 247.139C51.4159 246.719 51.0618 246.392 50.6581 246.159C50.4133 246.017 50.1982 245.943 50.0129 245.935C49.8276 245.92 49.682 245.973 49.5761 246.096C49.4769 246.214 49.4272 246.392 49.4272 246.629C49.4272 246.904 49.5033 247.192 49.6556 247.494C49.8078 247.796 50.0394 248.09 50.3504 248.377L51.6409 249.592C52.2299 250.138 52.6733 250.692 52.9711 251.254C53.2689 251.808 53.4178 252.371 53.4178 252.944C53.4178 253.418 53.3086 253.775 53.0902 254.016C52.8784 254.261 52.5839 254.381 52.2067 254.377C51.8295 254.366 51.3927 254.217 50.8964 253.93ZM55.9597 256.716V252.865L53.4284 246.715L54.7486 247.477L56.7737 252.441L56.3071 252.171L58.3222 249.541L59.6425 250.303L57.1211 253.535V257.387L55.9597 256.716ZM62.4137 260.58C61.9504 260.312 61.5203 259.965 61.1232 259.537C60.7261 259.101 60.3886 258.627 60.1107 258.115C59.8327 257.603 59.6276 257.08 59.4952 256.545L60.4879 256.637C60.6666 257.267 60.928 257.823 61.2721 258.304C61.6162 258.786 62.0133 259.156 62.4633 259.416C62.728 259.569 62.9596 259.657 63.1582 259.68C63.3567 259.695 63.5089 259.646 63.6148 259.531C63.7273 259.42 63.7835 259.25 63.7835 259.021C63.7835 258.708 63.7074 258.415 63.5552 258.144C63.403 257.873 63.178 257.598 62.8802 257.319L61.4905 256.012C60.9346 255.492 60.511 254.946 60.2199 254.373C59.9287 253.792 59.7831 253.227 59.7831 252.676C59.7831 252.195 59.8857 251.834 60.0908 251.593C60.296 251.345 60.5772 251.221 60.9346 251.221C61.2986 251.225 61.7122 251.36 62.1754 251.628C62.6188 251.884 63.0225 252.208 63.3865 252.602C63.7505 252.988 64.0615 253.412 64.3196 253.874C64.5843 254.34 64.7762 254.814 64.8953 255.296L63.9225 255.227C63.7769 254.692 63.5486 254.212 63.2376 253.788C62.9332 253.368 62.5791 253.041 62.1754 252.808C61.9306 252.667 61.7155 252.592 61.5302 252.585C61.3449 252.569 61.1993 252.623 61.0934 252.745C60.9941 252.864 60.9445 253.041 60.9445 253.278C60.9445 253.553 61.0206 253.842 61.1728 254.144C61.325 254.445 61.5567 254.74 61.8677 255.026L63.1582 256.241C63.7471 256.788 64.1905 257.342 64.4883 257.903C64.7861 258.457 64.935 259.021 64.935 259.594C64.935 260.068 64.8258 260.425 64.6075 260.666C64.3957 260.91 64.1012 261.031 63.724 261.027C63.3468 261.015 62.91 260.866 62.4137 260.58ZM67.1632 263.184V255.848L65.1977 254.714V253.51L70.2603 256.433V257.637L68.3246 256.519V263.855L67.1632 263.184ZM70.739 265.249V256.709L75.613 259.523V260.727L71.9104 258.589V261.042L75.4145 263.065V264.269L71.9104 262.246V264.722L75.613 266.859V268.063L70.739 265.249ZM76.3038 268.462V259.922L77.3957 260.553L80.1752 266.605L79.6292 266.29L82.3591 263.418L83.451 264.049V272.588L82.2896 271.918V264.971L82.7263 265.361L79.937 268.152L79.8178 268.083L77.088 262.106L77.4751 262.192V269.138L76.3038 268.462ZM89.3656 276.14C88.8428 275.839 88.3564 275.447 87.9064 274.966C87.463 274.488 87.0758 273.959 86.7449 273.378C86.4207 272.793 86.1659 272.18 85.9806 271.538C85.7953 270.896 85.7026 270.255 85.7026 269.613C85.7026 268.978 85.792 268.445 85.9707 268.014C86.156 267.578 86.4141 267.261 86.7449 267.062C87.0758 266.856 87.463 266.774 87.9064 266.816C88.3498 266.85 88.8362 267.02 89.3656 267.326C89.8884 267.628 90.3549 268 90.7652 268.443C91.1822 268.891 91.5329 269.364 91.8175 269.865C92.102 270.358 92.3072 270.835 92.4329 271.298L91.3807 271.263C91.2219 270.713 90.9671 270.195 90.6163 269.71C90.2722 269.221 89.8553 268.835 89.3656 268.552C88.8759 268.27 88.4424 268.153 88.0652 268.203C87.688 268.252 87.3935 268.453 87.1817 268.805C86.9766 269.16 86.874 269.655 86.874 270.289C86.874 270.923 86.9766 271.54 87.1817 272.14C87.3935 272.736 87.688 273.277 88.0652 273.762C88.4424 274.24 88.8759 274.62 89.3656 274.903C89.8553 275.185 90.2722 275.285 90.6163 275.201C90.9671 275.12 91.2219 274.897 91.3807 274.53L92.4329 275.711C92.3072 276.02 92.102 276.261 91.8175 276.433C91.5329 276.605 91.1822 276.673 90.7652 276.639C90.3549 276.608 89.8884 276.442 89.3656 276.14ZM96.8339 280.452C96.2978 280.143 95.7982 279.743 95.3349 279.254C94.8783 278.769 94.4746 278.227 94.1239 277.627C93.7798 277.031 93.5084 276.408 93.3099 275.758C93.118 275.113 93.022 274.473 93.022 273.838C93.022 273.204 93.118 272.675 93.3099 272.251C93.5084 271.823 93.7798 271.514 94.1239 271.322C94.468 271.124 94.8717 271.051 95.3349 271.105C95.7982 271.151 96.2978 271.328 96.8339 271.638C97.3765 271.951 97.8762 272.35 98.3328 272.836C98.796 273.317 99.1997 273.856 99.5438 274.452C99.8946 275.052 100.166 275.674 100.358 276.32C100.55 276.966 100.646 277.606 100.646 278.24C100.646 278.874 100.546 279.402 100.348 279.822C100.156 280.246 99.888 280.557 99.5438 280.756C99.1997 280.955 98.796 281.031 98.3328 280.985C97.8695 280.939 97.3699 280.762 96.8339 280.452ZM96.8339 279.214C97.2177 279.436 97.5684 279.558 97.8861 279.581C98.2104 279.608 98.4916 279.549 98.7299 279.403C98.9681 279.251 99.1534 279.021 99.2857 278.716C99.4181 278.402 99.4843 278.02 99.4843 277.569C99.4843 277.119 99.4181 276.664 99.2857 276.205C99.1534 275.747 98.9681 275.304 98.7299 274.876C98.4916 274.448 98.2104 274.06 97.8861 273.712C97.5684 273.369 97.2177 273.086 96.8339 272.864C96.45 272.643 96.096 272.518 95.7717 272.492C95.4541 272.469 95.1761 272.534 94.9379 272.687C94.6996 272.839 94.5143 273.069 94.382 273.374C94.2562 273.684 94.1934 274.064 94.1934 274.515C94.1934 274.966 94.2562 275.422 94.382 275.885C94.5143 276.343 94.6996 276.786 94.9379 277.214C95.1761 277.634 95.4574 278.018 95.7816 278.366C96.1059 278.714 96.4566 278.997 96.8339 279.214ZM101.558 283.042V274.503L102.501 275.047L106.651 284.057L106.204 283.879V277.185L107.365 277.856V286.395L106.422 285.851L102.303 276.813L102.73 276.967V283.719L101.558 283.042ZM111.944 289.176C111.421 288.874 110.935 288.483 110.485 288.001C110.042 287.524 109.654 286.994 109.323 286.414C108.999 285.829 108.744 285.216 108.559 284.574C108.374 283.932 108.281 283.29 108.281 282.648C108.281 282.014 108.371 281.481 108.549 281.049C108.734 280.614 108.993 280.297 109.323 280.098C109.654 279.892 110.042 279.81 110.485 279.852C110.928 279.886 111.415 280.056 111.944 280.362C112.467 280.663 112.933 281.036 113.344 281.479C113.761 281.926 114.111 282.4 114.396 282.901C114.681 283.393 114.886 283.871 115.011 284.333L113.959 284.299C113.8 283.749 113.546 283.231 113.195 282.746C112.851 282.257 112.434 281.871 111.944 281.588C111.454 281.305 111.021 281.189 110.644 281.238C110.267 281.288 109.972 281.489 109.76 281.84C109.555 282.196 109.453 282.69 109.453 283.325C109.453 283.959 109.555 284.576 109.76 285.176C109.972 285.772 110.267 286.312 110.644 286.798C111.021 287.275 111.454 287.655 111.944 287.938C112.434 288.221 112.851 288.32 113.195 288.236C113.546 288.156 113.8 287.932 113.959 287.566L115.011 288.746C114.886 289.056 114.681 289.297 114.396 289.468C114.111 289.64 113.761 289.709 113.344 289.675C112.933 289.644 112.467 289.478 111.944 289.176ZM115.819 291.276V282.736L120.693 285.55V286.754L116.99 284.616V287.069L120.494 289.092V290.296L116.99 288.273V290.748L120.693 292.886V294.09L115.819 291.276ZM121.384 294.489V285.949L124.074 287.502C124.57 287.789 125.007 288.148 125.384 288.58C125.768 289.008 126.066 289.485 126.278 290.013C126.489 290.532 126.595 291.071 126.595 291.629C126.595 292.179 126.486 292.59 126.268 292.861C126.056 293.136 125.761 293.272 125.384 293.268C125.007 293.264 124.57 293.119 124.074 292.832L122.555 291.955V295.165L121.384 294.489ZM122.555 290.752L124.104 291.646C124.368 291.799 124.6 291.871 124.798 291.864C124.997 291.856 125.153 291.778 125.265 291.629C125.378 291.472 125.434 291.245 125.434 290.947C125.434 290.649 125.378 290.36 125.265 290.081C125.153 289.795 124.997 289.537 124.798 289.308C124.6 289.071 124.368 288.876 124.104 288.723L122.555 287.829V290.752ZM128.714 298.721V291.385L126.749 290.25V289.047L131.812 291.97V293.173L129.876 292.056V299.391L128.714 298.721ZM134.881 302.419C134.418 302.151 133.988 301.804 133.591 301.376C133.194 300.94 132.856 300.466 132.578 299.954C132.3 299.442 132.095 298.919 131.963 298.384L132.955 298.476C133.134 299.106 133.395 299.662 133.74 300.144C134.084 300.625 134.481 300.996 134.931 301.255C135.195 301.408 135.427 301.496 135.626 301.519C135.824 301.534 135.976 301.485 136.082 301.37C136.195 301.259 136.251 301.089 136.251 300.86C136.251 300.547 136.175 300.254 136.023 299.983C135.87 299.712 135.645 299.437 135.348 299.158L133.958 297.851C133.402 297.331 132.978 296.785 132.687 296.212C132.396 295.631 132.251 295.066 132.251 294.516C132.251 294.034 132.353 293.673 132.558 293.432C132.763 293.184 133.045 293.06 133.402 293.06C133.766 293.064 134.18 293.199 134.643 293.467C135.086 293.723 135.49 294.047 135.854 294.441C136.218 294.827 136.529 295.251 136.787 295.713C137.052 296.179 137.244 296.653 137.363 297.135L136.39 297.066C136.244 296.531 136.016 296.051 135.705 295.627C135.401 295.207 135.047 294.88 134.643 294.647C134.398 294.506 134.183 294.431 133.998 294.424C133.812 294.409 133.667 294.462 133.561 294.584C133.462 294.703 133.412 294.88 133.412 295.117C133.412 295.392 133.488 295.681 133.64 295.983C133.792 296.285 134.024 296.579 134.335 296.865L135.626 298.08C136.215 298.627 136.658 299.181 136.956 299.742C137.254 300.296 137.402 300.86 137.402 301.433C137.402 301.907 137.293 302.264 137.075 302.505C136.863 302.749 136.569 302.87 136.191 302.866C135.814 302.854 135.377 302.705 134.881 302.419Z" fill="#0B30AD"/>
<g filter="url(#filter6_d_2219_1955)">
<path d="M383.129 157.729V189.697C383.129 191.554 382.144 193.262 380.55 194.19L207.779 294.623C199.778 299.231 189.932 299.254 181.92 294.681L10.8556 194.225C7.70348 192.368 5.75488 188.975 5.75488 185.319V156.181L188.098 264.294C191.789 266.426 196.328 266.415 200.007 264.294L383.129 157.729Z" fill="#FEFEFE"/>
<path d="M187.411 265.452L187.425 265.46C191.534 267.833 196.585 267.819 200.679 265.46L200.684 265.457L381.784 160.069V189.697C381.784 191.074 381.053 192.339 379.874 193.027L207.103 293.46C199.753 297.69 190.763 297.842 183.304 293.906L182.587 293.512L11.5371 193.064C8.79449 191.448 7.10074 188.496 7.10059 185.319V158.543L187.411 265.452Z" stroke="#EAEAEA" stroke-width="2.69132"/>
</g>
<path d="M383.13 157.752V157.729L200.008 264.294C196.329 266.415 191.789 266.426 188.099 264.294L5.7557 156.181V156.972C5.50352 155.115 6.30589 153.144 8.15132 152.078L179.261 53.2954C188.397 48.0228 199.641 48.0228 208.777 53.2954L381.514 153.018C383.268 154.026 383.807 156.09 383.13 157.752Z" fill="url(#paint3_linear_2219_1955)" fill-opacity="0.8"/>
<path d="M42.9272 207.96C42.3911 207.65 41.8915 207.251 41.4282 206.762C40.9716 206.277 40.5679 205.734 40.2172 205.134C39.8731 204.538 39.6017 203.915 39.4032 203.266C39.2113 202.62 39.1153 201.98 39.1153 201.346C39.1153 200.712 39.2113 200.183 39.4032 199.758C39.6017 199.331 39.8731 199.021 40.2172 198.83C40.5613 198.631 40.965 198.559 41.4282 198.612C41.8915 198.658 42.3911 198.836 42.9272 199.145C43.4698 199.459 43.9695 199.858 44.4261 200.343C44.8893 200.824 45.293 201.363 45.6371 201.959C45.9879 202.559 46.2592 203.182 46.4511 203.828C46.643 204.473 46.739 205.113 46.739 205.748C46.739 206.382 46.6397 206.909 46.4412 207.329C46.2493 207.753 45.9813 208.065 45.6371 208.264C45.293 208.462 44.8893 208.539 44.4261 208.493C43.9628 208.447 43.4632 208.269 42.9272 207.96ZM42.9272 206.722C43.311 206.943 43.6617 207.066 43.9794 207.089C44.3037 207.115 44.5849 207.056 44.8232 206.911C45.0614 206.758 45.2467 206.529 45.3791 206.223C45.5114 205.91 45.5776 205.528 45.5776 205.077C45.5776 204.626 45.5114 204.171 45.3791 203.713C45.2467 203.255 45.0614 202.811 44.8232 202.383C44.5849 201.955 44.3037 201.568 43.9794 201.22C43.6617 200.876 43.311 200.593 42.9272 200.372C42.5433 200.15 42.1893 200.026 41.865 199.999C41.5474 199.976 41.2694 200.041 41.0312 200.194C40.7929 200.347 40.6076 200.576 40.4753 200.882C40.3495 201.191 40.2867 201.571 40.2867 202.022C40.2867 202.473 40.3495 202.93 40.4753 203.392C40.6076 203.851 40.7929 204.294 41.0312 204.722C41.2694 205.142 41.5507 205.526 41.8749 205.874C42.1992 206.221 42.55 206.504 42.9272 206.722ZM47.6516 210.55V202.01L50.3417 203.564C50.838 203.85 51.2748 204.209 51.652 204.641C52.0358 205.069 52.3336 205.547 52.5454 206.074C52.7572 206.593 52.8631 207.132 52.8631 207.69C52.8631 208.24 52.7539 208.651 52.5355 208.922C52.3237 209.197 52.0292 209.333 51.652 209.329C51.2748 209.325 50.838 209.18 50.3417 208.894L48.8229 208.017V211.226L47.6516 210.55ZM48.8229 206.813L50.3715 207.707C50.6362 207.86 50.8678 207.933 51.0663 207.925C51.2649 207.917 51.4204 207.839 51.5329 207.69C51.6454 207.533 51.7016 207.306 51.7016 207.008C51.7016 206.71 51.6454 206.422 51.5329 206.143C51.4204 205.856 51.2649 205.598 51.0663 205.369C50.8678 205.132 50.6362 204.937 50.3715 204.784L48.8229 203.89V206.813ZM53.6719 214.026V205.486L58.5459 208.3V209.504L54.8433 207.366V209.819L58.3474 211.842V213.046L54.8433 211.023V213.498L58.5459 215.636V216.84L53.6719 214.026ZM59.2367 217.239V208.699L61.9268 210.252C62.4232 210.539 62.8599 210.898 63.2371 211.33C63.6144 211.754 63.9088 212.23 64.1206 212.757C64.339 213.28 64.4482 213.821 64.4482 214.379C64.4482 214.967 64.3191 215.397 64.0611 215.668C63.8096 215.943 63.4688 216.052 63.0386 215.995L64.746 220.419L63.4158 219.651L61.5992 214.877L62.3636 215.834L60.408 214.705V217.915L59.2367 217.239ZM60.408 213.502L61.9467 214.39C62.218 214.547 62.4529 214.621 62.6515 214.614C62.85 214.606 63.0022 214.526 63.1081 214.373C63.2206 214.216 63.2768 213.989 63.2768 213.691C63.2768 213.393 63.2206 213.104 63.1081 212.826C63.0022 212.543 62.85 212.287 62.6515 212.058C62.4529 211.821 62.218 211.624 61.9467 211.467L60.408 210.579V213.502ZM64.6795 220.381L67.2802 213.343L68.7295 214.18L71.3303 224.221L70.0796 223.499L69.5137 221.258L66.506 219.521L65.9302 221.103L64.6795 220.381ZM66.8435 218.513L69.1564 219.848L67.8461 214.621L68.1736 214.81L66.8435 218.513ZM72.6265 224.969V217.633L70.6611 216.499V215.295L75.7237 218.218V219.421L73.788 218.304V225.64L72.6265 224.969ZM76.2024 227.034V218.494L77.3737 219.171V227.71L76.2024 227.034ZM78.5099 228.366V219.827L79.453 220.371L83.6023 229.38L83.1556 229.203V222.509L84.3171 223.179V231.719L83.374 231.174L79.2545 222.136L79.6813 222.291V229.042L78.5099 228.366ZM88.9157 234.511C88.3929 234.209 87.9065 233.818 87.4564 233.336C87.0131 232.859 86.6226 232.328 86.2851 231.743C85.9542 231.155 85.6961 230.54 85.5108 229.898C85.3255 229.256 85.2329 228.614 85.2329 227.972C85.2329 227.338 85.3222 226.805 85.5009 226.373C85.6862 225.937 85.9443 225.62 86.2752 225.422C86.6061 225.215 86.9932 225.133 87.4366 225.175C87.88 225.21 88.3664 225.38 88.8958 225.685C89.4186 225.987 89.8852 226.36 90.2955 226.803C90.7124 227.25 91.0631 227.724 91.3477 228.224C91.6323 228.717 91.8374 229.195 91.9632 229.657L90.9209 229.64C90.7686 229.086 90.5172 228.566 90.1664 228.081C89.8157 227.588 89.3921 227.198 88.8958 226.912C88.4061 226.629 87.9726 226.512 87.5954 226.562C87.2182 226.612 86.9237 226.812 86.7119 227.164C86.5068 227.519 86.4042 228.014 86.4042 228.648C86.4042 229.283 86.5101 229.901 86.7219 230.505C86.9403 231.105 87.2381 231.648 87.6153 232.133C87.9925 232.61 88.4259 232.991 88.9157 233.273C89.326 233.51 89.6999 233.631 90.0374 233.634C90.3815 233.634 90.6561 233.518 90.8613 233.285C91.0664 233.044 91.169 232.687 91.169 232.213V231.628L91.6951 232.482L88.8958 230.866V229.72L92.3304 231.703V232.505C92.3304 233.132 92.2378 233.64 92.0525 234.03C91.8672 234.412 91.6157 234.683 91.2981 234.844C90.9804 235.004 90.6164 235.054 90.2061 234.993C89.7958 234.932 89.3657 234.771 88.9157 234.511ZM94.4675 237.579V229.04L97.1576 230.593C97.6539 230.879 98.0907 231.238 98.4679 231.67C98.8517 232.098 99.1495 232.576 99.3613 233.103C99.5731 233.623 99.679 234.161 99.679 234.719C99.679 235.269 99.5698 235.68 99.3514 235.951C99.1396 236.226 98.8451 236.362 98.4679 236.358C98.0907 236.354 97.6539 236.209 97.1576 235.923L95.6388 235.046V238.255L94.4675 237.579ZM95.6388 233.842L97.1874 234.736C97.4521 234.889 97.6837 234.962 97.8822 234.954C98.0808 234.947 98.2363 234.868 98.3488 234.719C98.4613 234.563 98.5175 234.335 98.5175 234.037C98.5175 233.739 98.4613 233.451 98.3488 233.172C98.2363 232.885 98.0808 232.627 97.8822 232.398C97.6837 232.161 97.4521 231.966 97.1874 231.813L95.6388 230.919V233.842ZM100.488 241.055V232.515L103.178 234.069C103.674 234.355 104.111 234.714 104.488 235.146C104.866 235.57 105.16 236.046 105.372 236.573C105.59 237.097 105.699 237.637 105.699 238.195C105.699 238.783 105.57 239.213 105.312 239.485C105.061 239.76 104.72 239.869 104.29 239.811L105.997 244.236L104.667 243.468L102.85 238.694L103.615 239.651L101.659 238.522V241.731L100.488 241.055ZM101.659 237.318L103.198 238.207C103.469 238.363 103.704 238.438 103.903 238.43C104.101 238.422 104.253 238.342 104.359 238.189C104.472 238.033 104.528 237.805 104.528 237.507C104.528 237.209 104.472 236.921 104.359 236.642C104.253 236.359 104.101 236.103 103.903 235.874C103.704 235.637 103.469 235.44 103.198 235.284L101.659 234.395V237.318ZM110.179 246.788C109.643 246.478 109.144 246.079 108.68 245.59C108.224 245.105 107.82 244.562 107.469 243.962C107.125 243.366 106.854 242.743 106.655 242.094C106.463 241.448 106.367 240.808 106.367 240.174C106.367 239.54 106.463 239.011 106.655 238.586C106.854 238.159 107.125 237.849 107.469 237.658C107.813 237.459 108.217 237.387 108.68 237.44C109.144 237.486 109.643 237.664 110.179 237.973C110.722 238.287 111.222 238.686 111.678 239.171C112.141 239.652 112.545 240.191 112.889 240.787C113.24 241.387 113.511 242.01 113.703 242.656C113.895 243.301 113.991 243.941 113.991 244.576C113.991 245.21 113.892 245.737 113.693 246.157C113.501 246.581 113.233 246.893 112.889 247.092C112.545 247.29 112.141 247.367 111.678 247.321C111.215 247.275 110.715 247.097 110.179 246.788ZM110.179 245.55C110.563 245.771 110.914 245.894 111.231 245.917C111.556 245.943 111.837 245.884 112.075 245.739C112.313 245.586 112.499 245.357 112.631 245.051C112.763 244.738 112.83 244.356 112.83 243.905C112.83 243.454 112.763 242.999 112.631 242.541C112.499 242.082 112.313 241.639 112.075 241.211C111.837 240.783 111.556 240.396 111.231 240.048C110.914 239.704 110.563 239.421 110.179 239.2C109.795 238.978 109.441 238.854 109.117 238.827C108.799 238.804 108.521 238.869 108.283 239.022C108.045 239.175 107.86 239.404 107.727 239.71C107.602 240.019 107.539 240.399 107.539 240.85C107.539 241.301 107.602 241.758 107.727 242.22C107.86 242.679 108.045 243.122 108.283 243.55C108.521 243.97 108.803 244.354 109.127 244.702C109.451 245.049 109.802 245.332 110.179 245.55ZM114.904 249.378V240.838L118.021 242.638C118.484 242.905 118.884 243.232 119.222 243.618C119.559 243.996 119.817 244.413 119.996 244.867C120.175 245.314 120.264 245.775 120.264 246.249C120.264 246.661 120.171 246.986 119.986 247.223C119.807 247.456 119.526 247.561 119.142 247.538V246.965C119.48 247.313 119.754 247.666 119.966 248.025C120.178 248.377 120.33 248.725 120.423 249.068C120.522 249.416 120.572 249.75 120.572 250.071C120.572 250.874 120.343 251.372 119.887 251.567C119.437 251.766 118.818 251.638 118.031 251.183L114.904 249.378ZM116.075 248.851L118.12 250.031C118.51 250.257 118.821 250.314 119.053 250.203C119.285 250.085 119.4 249.819 119.4 249.407C119.4 248.986 119.285 248.587 119.053 248.209C118.821 247.823 118.51 247.517 118.12 247.292L116.075 246.111V248.851ZM116.075 244.919L118.05 246.06C118.368 246.243 118.623 246.287 118.815 246.191C119.007 246.088 119.103 245.865 119.103 245.521C119.103 245.177 119.007 244.854 118.815 244.552C118.623 244.25 118.368 244.008 118.05 243.824L116.075 242.684V244.919ZM121.38 253.117V244.577L122.551 245.254V252.59L125.747 254.435V255.639L121.38 253.117ZM126.334 255.977V247.438L131.208 250.252V251.455L127.505 249.317V251.77L131.009 253.793V254.997L127.505 252.974V255.45L131.208 257.587V258.791L126.334 255.977ZM131.898 259.19V250.65L132.99 251.281L135.77 257.333L135.224 257.018L137.954 254.146L139.046 254.777V263.316L137.884 262.646V255.7L138.321 256.089L135.532 258.88L135.412 258.812L132.683 252.834L133.07 252.92V259.866L131.898 259.19ZM142.768 265.603C142.305 265.336 141.875 264.988 141.478 264.56C141.081 264.124 140.743 263.651 140.465 263.139C140.187 262.627 139.982 262.103 139.85 261.568L140.843 261.66C141.021 262.291 141.283 262.846 141.627 263.328C141.971 263.809 142.368 264.18 142.818 264.44C143.083 264.593 143.314 264.68 143.513 264.703C143.711 264.719 143.864 264.669 143.969 264.554C144.082 264.444 144.138 264.273 144.138 264.044C144.138 263.731 144.062 263.439 143.91 263.167C143.758 262.896 143.533 262.621 143.235 262.342L141.845 261.035C141.289 260.516 140.866 259.969 140.575 259.396C140.283 258.816 140.138 258.25 140.138 257.7C140.138 257.218 140.24 256.857 140.445 256.617C140.651 256.368 140.932 256.244 141.289 256.244C141.653 256.248 142.067 256.384 142.53 256.651C142.973 256.907 143.377 257.232 143.741 257.625C144.105 258.011 144.416 258.435 144.674 258.898C144.939 259.364 145.131 259.838 145.25 260.319L144.277 260.25C144.132 259.715 143.903 259.236 143.592 258.812C143.288 258.391 142.934 258.065 142.53 257.832C142.285 257.69 142.07 257.616 141.885 257.608C141.7 257.593 141.554 257.646 141.448 257.769C141.349 257.887 141.299 258.065 141.299 258.302C141.299 258.577 141.375 258.865 141.528 259.167C141.68 259.469 141.911 259.763 142.222 260.05L143.513 261.265C144.102 261.811 144.545 262.365 144.843 262.927C145.141 263.481 145.29 264.044 145.29 264.617C145.29 265.091 145.181 265.448 144.962 265.689C144.75 265.934 144.456 266.054 144.079 266.05C143.701 266.039 143.265 265.89 142.768 265.603Z" fill="#0B30AD"/>
<g filter="url(#filter8_d_2219_1955)">
<path d="M383.129 108.388V140.356C383.129 142.213 382.144 143.921 380.55 144.85L207.779 245.283C199.778 249.89 189.932 249.913 181.92 245.34L10.8556 144.884C7.70348 143.027 5.75488 139.634 5.75488 135.978V106.84L188.098 214.953C191.789 217.085 196.328 217.074 200.007 214.953L383.129 108.388Z" fill="#FEFEFE"/>
<path d="M187.411 216.111L187.425 216.119C191.534 218.492 196.585 218.478 200.679 216.119L200.684 216.116L381.784 110.728V140.356C381.784 141.733 381.053 142.998 379.874 143.686L207.103 244.119C199.753 248.349 190.763 248.501 183.304 244.565L182.587 244.171L11.5371 143.723C8.79449 142.107 7.10074 139.155 7.10059 135.978V109.202L187.411 216.111Z" stroke="#EAEAEA" stroke-width="2.69132"/>
</g>
<path d="M383.13 108.411V108.388L200.008 214.953C196.329 217.074 191.789 217.085 188.099 214.953L5.7557 106.84V107.631C5.50352 105.774 6.30589 103.803 8.15132 102.737L179.261 3.95451C188.397 -1.31817 199.641 -1.31817 208.777 3.95451L381.514 103.677C383.268 104.686 383.807 106.749 383.13 108.411Z" fill="url(#paint4_linear_2219_1955)" fill-opacity="0.8"/>
<path d="M42.3864 150.198V141.659L43.5577 142.335V150.874L42.3864 150.198ZM44.6939 151.53V142.991L45.637 143.535L49.7863 152.545L49.3396 152.367V145.673L50.501 146.344V154.883L49.558 154.339L45.4384 145.301L45.8653 145.455V152.207L44.6939 151.53ZM51.6352 155.538V146.999L54.0573 148.397C54.825 148.84 55.4901 149.404 56.0526 150.088C56.6217 150.768 57.0618 151.519 57.3728 152.34C57.6839 153.162 57.8394 153.996 57.8394 154.845C57.8394 155.685 57.6839 156.34 57.3728 156.81C57.0618 157.273 56.6217 157.519 56.0526 157.55C55.4901 157.584 54.825 157.38 54.0573 156.936L51.6352 155.538ZM52.8066 155.011L54.0772 155.744C54.6 156.046 55.0533 156.182 55.4371 156.151C55.8276 156.125 56.1287 155.943 56.3405 155.607C56.5522 155.271 56.6581 154.789 56.6581 154.163C56.6581 153.536 56.5489 152.934 56.3305 152.357C56.1188 151.776 55.821 151.249 55.4371 150.775C55.0533 150.302 54.6 149.914 54.0772 149.612L52.8066 148.878V155.011ZM61.3655 161.293C60.8162 160.976 60.3265 160.56 59.8963 160.044C59.4728 159.532 59.1386 158.972 58.8937 158.365C58.6555 157.761 58.5364 157.161 58.5364 156.565V150.983L59.7077 151.659V157.184C59.7077 157.559 59.7772 157.931 59.9162 158.302C60.0618 158.676 60.257 159.014 60.5018 159.316C60.7533 159.622 61.0412 159.868 61.3655 160.055C61.6964 160.246 61.9842 160.332 62.2291 160.313C62.4806 160.298 62.6758 160.185 62.8148 159.975C62.9603 159.769 63.0331 159.478 63.0331 159.104V153.579L64.1946 154.25V159.832C64.1946 160.428 64.0754 160.89 63.8372 161.219C63.599 161.547 63.2648 161.721 62.8346 161.74C62.4111 161.763 61.9214 161.614 61.3655 161.293ZM67.8567 165.041C67.3934 164.774 66.9633 164.426 66.5662 163.998C66.1691 163.562 65.8316 163.089 65.5537 162.577C65.2757 162.065 65.0706 161.541 64.9382 161.006L65.9309 161.098C66.1096 161.728 66.371 162.284 66.7151 162.766C67.0592 163.247 67.4563 163.618 67.9063 163.878C68.171 164.03 68.4026 164.118 68.6012 164.141C68.7997 164.157 68.9519 164.107 69.0578 163.992C69.1703 163.881 69.2265 163.711 69.2265 163.482C69.2265 163.169 69.1504 162.877 68.9982 162.605C68.846 162.334 68.621 162.059 68.3232 161.78L66.9335 160.473C66.3776 159.954 65.954 159.407 65.6629 158.834C65.3717 158.253 65.2261 157.688 65.2261 157.138C65.2261 156.656 65.3287 156.295 65.5338 156.055C65.739 155.806 66.0202 155.682 66.3776 155.682C66.7416 155.686 67.1552 155.821 67.6184 156.089C68.0618 156.345 68.4655 156.67 68.8295 157.063C69.1934 157.449 69.5045 157.873 69.7626 158.336C70.0273 158.802 70.2192 159.275 70.3383 159.757L69.3655 159.688C69.2199 159.153 68.9916 158.674 68.6806 158.25C68.3762 157.829 68.0221 157.503 67.6184 157.27C67.3736 157.128 67.1585 157.054 66.9732 157.046C66.7879 157.031 66.6423 157.084 66.5364 157.207C66.4371 157.325 66.3875 157.503 66.3875 157.74C66.3875 158.015 66.4636 158.303 66.6158 158.605C66.768 158.907 66.9997 159.201 67.3107 159.488L68.6012 160.703C69.1901 161.249 69.6335 161.803 69.9313 162.365C70.2291 162.919 70.378 163.482 70.378 164.055C70.378 164.529 70.2688 164.886 70.0504 165.127C69.8387 165.372 69.5442 165.492 69.167 165.488C68.7898 165.477 68.353 165.328 67.8567 165.041ZM72.6062 167.646V160.31L70.6407 159.175V157.971L75.7033 160.894V162.098L73.7676 160.98V168.316L72.6062 167.646ZM76.182 169.71V161.171L78.8722 162.724C79.3685 163.01 79.8053 163.37 80.1825 163.801C80.5597 164.225 80.8542 164.701 81.066 165.228C81.2843 165.752 81.3935 166.292 81.3935 166.85C81.3935 167.439 81.2645 167.869 81.0064 168.14C80.7549 168.415 80.4141 168.524 79.9839 168.466L81.6913 172.891L80.3612 172.123L78.5446 167.349L79.3089 168.306L77.3534 167.177V170.386L76.182 169.71ZM77.3534 165.973L78.892 166.862C79.1633 167.018 79.3983 167.093 79.5968 167.085C79.7953 167.078 79.9476 166.997 80.0534 166.845C80.1659 166.688 80.2222 166.461 80.2222 166.163C80.2222 165.865 80.1659 165.576 80.0534 165.297C79.9476 165.014 79.7953 164.758 79.5968 164.529C79.3983 164.292 79.1633 164.095 78.892 163.939L77.3534 163.051V165.973ZM84.0592 174.258V170.407L81.5279 164.257L82.8481 165.019L84.8731 169.983L84.4066 169.713L86.4217 167.083L87.742 167.845L85.2206 171.077V174.929L84.0592 174.258ZM89.5609 177.434V168.895L92.2511 170.448C92.7474 170.735 93.1842 171.094 93.5614 171.526C93.9452 171.954 94.243 172.431 94.4548 172.958C94.6666 173.478 94.7724 174.017 94.7724 174.575C94.7724 175.125 94.6633 175.536 94.4449 175.807C94.2331 176.082 93.9386 176.218 93.5614 176.214C93.1842 176.21 92.7474 176.065 92.2511 175.778L90.7323 174.901V178.111L89.5609 177.434ZM90.7323 173.698L92.2808 174.592C92.5456 174.745 92.7772 174.817 92.9757 174.81C93.1743 174.802 93.3298 174.724 93.4423 174.575C93.5548 174.418 93.611 174.191 93.611 173.893C93.611 173.595 93.5548 173.306 93.4423 173.027C93.3298 172.741 93.1743 172.483 92.9757 172.253C92.7772 172.017 92.5456 171.822 92.2808 171.669L90.7323 170.775V173.698ZM95.5813 180.91V172.371L98.2714 173.924C98.7678 174.211 99.2046 174.57 99.5818 175.001C99.959 175.426 100.253 175.901 100.465 176.429C100.684 176.952 100.793 177.493 100.793 178.05C100.793 178.639 100.664 179.069 100.406 179.34C100.154 179.615 99.8134 179.724 99.3832 179.667L101.091 184.091L99.7604 183.323L97.9439 178.549L98.7082 179.506L96.7527 178.377V181.587L95.5813 180.91ZM96.7527 177.174L98.2913 178.062C98.5626 178.219 98.7976 178.293 98.9961 178.285C99.1946 178.278 99.3468 178.198 99.4527 178.045C99.5652 177.888 99.6215 177.661 99.6215 177.363C99.6215 177.065 99.5652 176.776 99.4527 176.497C99.3468 176.215 99.1946 175.959 98.9961 175.729C98.7976 175.492 98.5626 175.296 98.2913 175.139L96.7527 174.251V177.174ZM101.679 184.431V175.892L106.553 178.706V179.909L102.851 177.771V180.224L106.355 182.247V183.451L102.851 181.428V183.904L106.553 186.041V187.245L101.679 184.431ZM109.835 189.277C109.372 189.01 108.941 188.662 108.544 188.234C108.147 187.799 107.81 187.325 107.532 186.813C107.254 186.301 107.049 185.777 106.916 185.242L107.909 185.334C108.088 185.965 108.349 186.52 108.693 187.002C109.037 187.483 109.434 187.854 109.884 188.114C110.149 188.267 110.381 188.354 110.579 188.377C110.778 188.393 110.93 188.343 111.036 188.228C111.148 188.118 111.205 187.948 111.205 187.718C111.205 187.405 111.129 187.113 110.976 186.841C110.824 186.57 110.599 186.295 110.301 186.016L108.912 184.709C108.356 184.19 107.932 183.643 107.641 183.07C107.35 182.49 107.204 181.924 107.204 181.374C107.204 180.892 107.307 180.531 107.512 180.291C107.717 180.042 107.998 179.918 108.356 179.918C108.72 179.922 109.133 180.058 109.597 180.325C110.04 180.581 110.444 180.906 110.808 181.299C111.172 181.685 111.483 182.109 111.741 182.572C112.005 183.038 112.197 183.512 112.317 183.993L111.344 183.924C111.198 183.389 110.97 182.91 110.659 182.486C110.354 182.065 110 181.739 109.597 181.506C109.352 181.364 109.137 181.29 108.951 181.282C108.766 181.267 108.62 181.32 108.515 181.443C108.415 181.561 108.366 181.739 108.366 181.976C108.366 182.251 108.442 182.539 108.594 182.841C108.746 183.143 108.978 183.437 109.289 183.724L110.579 184.939C111.168 185.485 111.612 186.039 111.91 186.601C112.207 187.155 112.356 187.718 112.356 188.291C112.356 188.765 112.247 189.122 112.029 189.363C111.817 189.608 111.522 189.728 111.145 189.724C110.768 189.713 110.331 189.564 109.835 189.277ZM115.865 192.759C115.402 192.491 114.972 192.143 114.574 191.716C114.177 191.28 113.84 190.806 113.562 190.294C113.284 189.782 113.079 189.259 112.946 188.724L113.939 188.816C114.118 189.446 114.379 190.002 114.723 190.483C115.067 190.965 115.465 191.335 115.915 191.595C116.179 191.748 116.411 191.836 116.609 191.859C116.808 191.874 116.96 191.824 117.066 191.71C117.179 191.599 117.235 191.429 117.235 191.2C117.235 190.886 117.159 190.594 117.006 190.323C116.854 190.052 116.629 189.776 116.331 189.498L114.942 188.191C114.386 187.671 113.962 187.125 113.671 186.552C113.38 185.971 113.234 185.406 113.234 184.855C113.234 184.374 113.337 184.013 113.542 183.772C113.747 183.524 114.028 183.4 114.386 183.4C114.75 183.403 115.163 183.539 115.627 183.807C116.07 184.063 116.474 184.387 116.838 184.781C117.202 185.167 117.513 185.591 117.771 186.053C118.036 186.519 118.227 186.993 118.347 187.474L117.374 187.406C117.228 186.871 117 186.391 116.689 185.967C116.384 185.547 116.03 185.22 115.627 184.987C115.382 184.846 115.167 184.771 114.981 184.764C114.796 184.748 114.651 184.802 114.545 184.924C114.445 185.043 114.396 185.22 114.396 185.457C114.396 185.732 114.472 186.021 114.624 186.323C114.776 186.624 115.008 186.919 115.319 187.205L116.609 188.42C117.198 188.966 117.642 189.52 117.94 190.082C118.237 190.636 118.386 191.2 118.386 191.773C118.386 192.247 118.277 192.604 118.059 192.845C117.847 193.089 117.552 193.209 117.175 193.206C116.798 193.194 116.361 193.045 115.865 192.759ZM122.074 196.343C121.524 196.026 121.035 195.61 120.605 195.094C120.181 194.582 119.847 194.022 119.602 193.415C119.364 192.811 119.245 192.211 119.245 191.615V186.033L120.416 186.709V192.234C120.416 192.608 120.485 192.981 120.624 193.352C120.77 193.726 120.965 194.064 121.21 194.366C121.462 194.672 121.749 194.918 122.074 195.105C122.405 195.296 122.692 195.382 122.937 195.363C123.189 195.348 123.384 195.235 123.523 195.025C123.669 194.819 123.741 194.528 123.741 194.154V188.629L124.903 189.3V194.882C124.903 195.478 124.784 195.94 124.545 196.269C124.307 196.597 123.973 196.771 123.543 196.79C123.119 196.813 122.63 196.664 122.074 196.343ZM125.974 198.458V189.918L128.664 191.471C129.16 191.758 129.597 192.117 129.974 192.549C130.352 192.973 130.646 193.448 130.858 193.976C131.076 194.499 131.186 195.04 131.186 195.598C131.186 196.186 131.056 196.616 130.798 196.887C130.547 197.162 130.206 197.271 129.776 197.214L131.483 201.638L130.153 200.87L128.337 196.096L129.101 197.053L127.145 195.924V199.134L125.974 198.458ZM127.145 194.721L128.684 195.609C128.955 195.766 129.19 195.84 129.389 195.833C129.587 195.825 129.74 195.745 129.845 195.592C129.958 195.435 130.014 195.208 130.014 194.91C130.014 194.612 129.958 194.323 129.845 194.045C129.74 193.762 129.587 193.506 129.389 193.277C129.19 193.04 128.955 192.843 128.684 192.686L127.145 191.798V194.721ZM132.072 201.978V193.439L136.946 196.253V197.456L133.243 195.319V197.771L136.747 199.795V200.998L133.243 198.975V201.451L136.946 203.589V204.792L132.072 201.978ZM140.228 206.824C139.764 206.557 139.334 206.209 138.937 205.781C138.54 205.346 138.202 204.872 137.925 204.36C137.647 203.848 137.441 203.325 137.309 202.79L138.302 202.881C138.48 203.512 138.742 204.068 139.086 204.549C139.43 205.031 139.827 205.401 140.277 205.661C140.542 205.814 140.774 205.902 140.972 205.925C141.171 205.94 141.323 205.89 141.429 205.776C141.541 205.665 141.597 205.495 141.597 205.265C141.597 204.952 141.521 204.66 141.369 204.389C141.217 204.117 140.992 203.842 140.694 203.563L139.304 202.257C138.748 201.737 138.325 201.191 138.034 200.618C137.743 200.037 137.597 199.471 137.597 198.921C137.597 198.44 137.7 198.079 137.905 197.838C138.11 197.59 138.391 197.465 138.748 197.465C139.112 197.469 139.526 197.605 139.989 197.872C140.433 198.128 140.836 198.453 141.2 198.847C141.564 199.232 141.875 199.657 142.133 200.119C142.398 200.585 142.59 201.059 142.709 201.54L141.736 201.471C141.591 200.937 141.362 200.457 141.051 200.033C140.747 199.613 140.393 199.286 139.989 199.053C139.744 198.912 139.529 198.837 139.344 198.829C139.159 198.814 139.013 198.868 138.907 198.99C138.808 199.108 138.758 199.286 138.758 199.523C138.758 199.798 138.834 200.086 138.987 200.388C139.139 200.69 139.371 200.984 139.682 201.271L140.972 202.486C141.561 203.032 142.004 203.586 142.302 204.148C142.6 204.702 142.749 205.265 142.749 205.839C142.749 206.312 142.64 206.67 142.421 206.91C142.21 207.155 141.915 207.275 141.538 207.271C141.161 207.26 140.724 207.111 140.228 206.824Z" fill="#0B30AD"/>
<g clip-path="url(#clip0_2219_1955)">
<path d="M253.613 97.1653L214.093 74.3483C203.838 68.4274 187.211 68.4274 176.956 74.3483L137.435 97.1653C127.18 103.086 127.18 112.686 137.435 118.607L176.956 141.424C187.211 147.345 203.838 147.345 214.093 141.424L253.613 118.607C263.869 112.686 263.869 103.086 253.613 97.1653Z" fill="white"/>
<path d="M238.422 106.705L225.034 98.9157L203.475 102.527L201.735 112.041L238.422 106.705Z" fill="#1A49FF"/>
<path d="M199.684 100.713L213.864 92.5263L203.106 86.3151L158.113 112.292L168.872 118.503L183.271 110.189L183.182 110.502L183.138 110.506L179.845 124.784L179.842 124.805L179.875 124.826L193.389 132.658L199.738 100.709L199.684 100.713Z" fill="#1E1E1E"/>
</g>
<defs>
<filter id="filter0_d_2219_1955" x="-5.24521e-05" y="300.595" width="390.489" height="151.32" filterUnits="userSpaceOnUse" color-interpolation-filters="sRGB">
<feFlood flood-opacity="0" result="BackgroundImageFix"/>
<feColorMatrix in="SourceAlpha" type="matrix" values="0 0 0 0 0 0 0 0 0 0 0 0 0 0 0 0 0 0 127 0" result="hardAlpha"/>
<feOffset dy="0.897108"/>
<feGaussianBlur stdDeviation="1.79422"/>
<feComposite in2="hardAlpha" operator="out"/>
<feColorMatrix type="matrix" values="0 0 0 0 0 0 0 0 0 0 0 0 0 0 0 0 0 0 0.05 0"/>
<feBlend mode="normal" in2="BackgroundImageFix" result="effect1_dropShadow_2219_1955"/>
<feBlend mode="normal" in="SourceGraphic" in2="effect1_dropShadow_2219_1955" result="shape"/>
</filter>
<filter id="filter2_d_2219_1955" x="-5.24521e-05" y="250.46" width="390.489" height="151.32" filterUnits="userSpaceOnUse" color-interpolation-filters="sRGB">
<feFlood flood-opacity="0" result="BackgroundImageFix"/>
<feColorMatrix in="SourceAlpha" type="matrix" values="0 0 0 0 0 0 0 0 0 0 0 0 0 0 0 0 0 0 127 0" result="hardAlpha"/>
<feOffset dy="0.897108"/>
<feGaussianBlur stdDeviation="1.79422"/>
<feComposite in2="hardAlpha" operator="out"/>
<feColorMatrix type="matrix" values="0 0 0 0 0 0 0 0 0 0 0 0 0 0 0 0 0 0 0.05 0"/>
<feBlend mode="normal" in2="BackgroundImageFix" result="effect1_dropShadow_2219_1955"/>
<feBlend mode="normal" in="SourceGraphic" in2="effect1_dropShadow_2219_1955" result="shape"/>
</filter>
<filter id="filter4_d_2219_1955" x="2.16694" y="202.831" width="384.551" height="149.091" filterUnits="userSpaceOnUse" color-interpolation-filters="sRGB">
<feFlood flood-opacity="0" result="BackgroundImageFix"/>
<feColorMatrix in="SourceAlpha" type="matrix" values="0 0 0 0 0 0 0 0 0 0 0 0 0 0 0 0 0 0 127 0" result="hardAlpha"/>
<feOffset dy="0.897108"/>
<feGaussianBlur stdDeviation="1.79422"/>
<feComposite in2="hardAlpha" operator="out"/>
<feColorMatrix type="matrix" values="0 0 0 0 0 0 0 0 0 0 0 0 0 0 0 0 0 0 0.05 0"/>
<feBlend mode="normal" in2="BackgroundImageFix" result="effect1_dropShadow_2219_1955"/>
<feBlend mode="normal" in="SourceGraphic" in2="effect1_dropShadow_2219_1955" result="shape"/>
</filter>
<filter id="filter6_d_2219_1955" x="2.16645" y="153.49" width="384.551" height="149.091" filterUnits="userSpaceOnUse" color-interpolation-filters="sRGB">
<feFlood flood-opacity="0" result="BackgroundImageFix"/>
<feColorMatrix in="SourceAlpha" type="matrix" values="0 0 0 0 0 0 0 0 0 0 0 0 0 0 0 0 0 0 127 0" result="hardAlpha"/>
<feOffset dy="0.897108"/>
<feGaussianBlur stdDeviation="1.79422"/>
<feComposite in2="hardAlpha" operator="out"/>
<feColorMatrix type="matrix" values="0 0 0 0 0 0 0 0 0 0 0 0 0 0 0 0 0 0 0.05 0"/>
<feBlend mode="normal" in2="BackgroundImageFix" result="effect1_dropShadow_2219_1955"/>
<feBlend mode="normal" in="SourceGraphic" in2="effect1_dropShadow_2219_1955" result="shape"/>
</filter>
<filter id="filter8_d_2219_1955" x="2.16645" y="104.149" width="384.551" height="149.091" filterUnits="userSpaceOnUse" color-interpolation-filters="sRGB">
<feFlood flood-opacity="0" result="BackgroundImageFix"/>
<feColorMatrix in="SourceAlpha" type="matrix" values="0 0 0 0 0 0 0 0 0 0 0 0 0 0 0 0 0 0 127 0" result="hardAlpha"/>
<feOffset dy="0.897108"/>
<feGaussianBlur stdDeviation="1.79422"/>
<feComposite in2="hardAlpha" operator="out"/>
<feColorMatrix type="matrix" values="0 0 0 0 0 0 0 0 0 0 0 0 0 0 0 0 0 0 0.05 0"/>
<feBlend mode="normal" in2="BackgroundImageFix" result="effect1_dropShadow_2219_1955"/>
<feBlend mode="normal" in="SourceGraphic" in2="effect1_dropShadow_2219_1955" result="shape"/>
</filter>
<linearGradient id="paint0_linear_2219_1955" x1="193.456" y1="194.758" x2="193.456" y2="412.8" gradientUnits="userSpaceOnUse">
<stop stop-color="white"/>
<stop offset="1" stop-color="#EAEAEA"/>
</linearGradient>
<linearGradient id="paint1_linear_2219_1955" x1="193.456" y1="144.623" x2="193.456" y2="362.665" gradientUnits="userSpaceOnUse">
<stop stop-color="white"/>
<stop offset="1" stop-color="#EAEAEA"/>
</linearGradient>
<linearGradient id="paint2_linear_2219_1955" x1="192.687" y1="98.6818" x2="192.687" y2="313.344" gradientUnits="userSpaceOnUse">
<stop stop-color="white"/>
<stop offset="1" stop-color="#EAEAEA"/>
</linearGradient>
<linearGradient id="paint3_linear_2219_1955" x1="192.687" y1="49.3409" x2="192.687" y2="264.003" gradientUnits="userSpaceOnUse">
<stop stop-color="white"/>
<stop offset="1" stop-color="#EAEAEA"/>
</linearGradient>
<linearGradient id="paint4_linear_2219_1955" x1="192.687" y1="0" x2="192.687" y2="214.662" gradientUnits="userSpaceOnUse">
<stop stop-color="white"/>
<stop offset="1" stop-color="#EAEAEA"/>
</linearGradient>
<clipPath id="clip0_2219_1955">
<rect width="88.5169" height="88.5169" fill="white" transform="matrix(0.866025 0.5 -0.866025 0.5 195.524 63.6276)"/>
</clipPath>
</defs>
</svg>
