<svg width="806" height="884" viewBox="0 0 806 884" fill="none" xmlns="http://www.w3.org/2000/svg">
<g filter="url(#filter0_i_2318_2746)">
<rect x="60.2461" y="171" width="712.489" height="712.489" rx="356.245" fill="white" fill-opacity="0.02"/>
<path d="M162.029 528.245C162.029 387.71 275.955 273.784 416.49 273.784V273.784C557.024 273.784 670.95 387.71 670.95 528.245V528.245C670.95 668.779 557.024 782.705 416.49 782.705V782.705C275.955 782.705 162.029 668.779 162.029 528.245V528.245Z" fill="white" fill-opacity="0.05"/>
<path d="M304.269 643.498L164.135 691.946" stroke="#898989" stroke-dasharray="8 8"/>
<path d="M416 377.5V171.5" stroke="#898989" stroke-dasharray="8 8"/>
<path d="M416 377.5V171.5" stroke="#898989" stroke-dasharray="8 8"/>
<path d="M312.501 401L155.501 332" stroke="#898989" stroke-dasharray="8 8"/>
<path d="M550.5 426L654.001 348.5" stroke="#898989" stroke-dasharray="8 8"/>
<path d="M544.134 612.331L661.24 667.751" stroke="#898989" stroke-dasharray="8 8"/>
<g filter="url(#filter2_d_2318_2746)">
<path d="M605.419 561.07V593.038C605.419 594.895 604.434 596.603 602.84 597.531L430.069 697.965C422.068 702.572 412.222 702.595 404.21 698.022L233.146 597.566C229.994 595.709 228.045 592.316 228.045 588.66V559.522L410.388 667.635C414.079 669.767 418.618 669.756 422.297 667.635L605.419 561.07Z" fill="#FEFEFE"/>
<path d="M409.701 668.793L409.715 668.801C413.824 671.174 418.875 671.16 422.969 668.801L422.974 668.798L604.074 563.41V593.038C604.074 594.415 603.343 595.68 602.164 596.368L429.393 696.801C422.043 701.031 413.054 701.183 405.594 697.247L404.877 696.853L233.827 596.405C231.085 594.789 229.391 591.837 229.391 588.66V561.884L409.701 668.793Z" stroke="#EAEAEA" stroke-width="2.69132"/>
</g>
<path d="M605.42 561.093V561.07L422.297 667.635C418.618 669.756 414.079 669.767 410.388 667.635L228.045 559.522V560.313C227.793 558.456 228.595 556.485 230.441 555.419L401.551 456.636C410.686 451.364 421.931 451.364 431.066 456.636L603.804 556.359C605.557 557.367 606.096 559.431 605.42 561.093Z" fill="url(#paint0_linear_2318_2746)" fill-opacity="0.8"/>
<g filter="url(#filter4_d_2318_2746)">
<path d="M605.419 511.729V543.697C605.419 545.554 604.434 547.262 602.84 548.19L430.069 648.623C422.068 653.231 412.222 653.254 404.21 648.681L233.146 548.225C229.994 546.368 228.045 542.975 228.045 539.319V510.181L410.388 618.294C414.079 620.426 418.618 620.415 422.297 618.294L605.419 511.729Z" fill="#FEFEFE"/>
<path d="M409.701 619.452L409.715 619.46C413.824 621.833 418.875 621.819 422.969 619.46L422.974 619.457L604.074 514.069V543.697C604.074 545.074 603.343 546.339 602.164 547.027L429.393 647.46C422.043 651.69 413.054 651.842 405.594 647.906L404.877 647.512L233.827 547.064C231.085 545.448 229.391 542.496 229.391 539.319V512.543L409.701 619.452Z" stroke="#EAEAEA" stroke-width="2.69132"/>
</g>
<path d="M605.42 511.752V511.729L422.297 618.294C418.618 620.415 414.079 620.426 410.388 618.294L228.045 510.181V510.972C227.793 509.115 228.595 507.144 230.441 506.078L401.551 407.295C410.686 402.023 421.931 402.023 431.066 407.295L603.804 507.018C605.557 508.026 606.096 510.09 605.42 511.752Z" fill="url(#paint1_linear_2318_2746)" fill-opacity="0.8"/>
<g filter="url(#filter6_d_2318_2746)">
<path d="M605.419 462.388V494.356C605.419 496.213 604.434 497.921 602.84 498.85L430.069 599.283C422.068 603.89 412.222 603.913 404.21 599.34L233.146 498.884C229.994 497.027 228.045 493.634 228.045 489.978V460.84L410.388 568.953C414.079 571.085 418.618 571.074 422.297 568.953L605.419 462.388Z" fill="#FEFEFE"/>
<path d="M409.701 570.111L409.715 570.119C413.824 572.492 418.875 572.478 422.969 570.119L422.974 570.116L604.074 464.728V494.356C604.074 495.733 603.343 496.998 602.164 497.686L429.393 598.119C422.043 602.349 413.054 602.501 405.594 598.565L404.877 598.171L233.827 497.723C231.085 496.107 229.391 493.155 229.391 489.978V463.202L409.701 570.111Z" stroke="#EAEAEA" stroke-width="2.69132"/>
</g>
<path d="M605.42 462.411V462.388L422.297 568.953C418.618 571.074 414.079 571.085 410.388 568.953L228.045 460.84V461.631C227.793 459.774 228.595 457.803 230.441 456.737L401.551 357.955C410.686 352.682 421.931 352.682 431.066 357.955L603.804 457.677C605.557 458.686 606.096 460.749 605.42 462.411Z" fill="url(#paint2_linear_2318_2746)" fill-opacity="0.8"/>
<path d="M378.62 438.307C377.735 437.796 377.075 437.228 376.638 436.601C376.213 435.98 376.006 435.344 376.017 434.691C376.05 434.038 376.302 433.395 376.772 432.761C377.243 432.128 377.948 431.54 378.888 430.997C379.817 430.46 380.825 430.053 381.911 429.775C383.019 429.497 384.139 429.355 385.269 429.349C386.411 429.336 387.514 429.455 388.577 429.707C389.652 429.953 390.637 430.334 391.533 430.851C392.417 431.362 393.055 431.905 393.447 432.48C393.85 433.062 394.046 433.634 394.035 434.196C394.035 434.752 393.856 435.256 393.497 435.709L390.878 435.166C391.281 434.623 391.393 434.061 391.214 433.479C391.057 432.897 390.564 432.367 389.736 431.889C388.908 431.411 387.978 431.1 386.948 430.958C385.919 430.816 384.877 430.842 383.825 431.036C382.784 431.236 381.799 431.604 380.87 432.141C379.941 432.677 379.297 433.249 378.939 433.857C378.603 434.464 378.558 435.066 378.804 435.66C379.062 436.248 379.605 436.782 380.433 437.26C381.262 437.738 382.174 438.026 383.17 438.123C384.178 438.226 385.152 438.162 386.092 437.929L387.032 439.441C386.26 439.642 385.387 439.745 384.413 439.751C383.439 439.758 382.448 439.645 381.441 439.412C380.444 439.186 379.504 438.818 378.62 438.307ZM389.208 444.42C388.335 443.916 387.742 443.335 387.428 442.675C387.126 442.023 387.121 441.366 387.412 440.707C387.703 440.048 388.302 439.457 389.208 438.933C390.126 438.403 391.151 438.057 392.281 437.896C393.423 437.728 394.554 437.734 395.673 437.915C396.804 438.09 397.812 438.432 398.696 438.943C399.592 439.46 400.185 440.041 400.476 440.688C400.789 441.334 400.795 441.984 400.493 442.637C400.213 443.289 399.614 443.881 398.696 444.411C397.778 444.941 396.748 445.29 395.606 445.458C394.464 445.626 393.328 445.623 392.197 445.448C391.078 445.267 390.082 444.925 389.208 444.42ZM390.972 443.402C391.509 443.713 392.113 443.913 392.785 444.004C393.457 444.094 394.134 444.078 394.817 443.955C395.522 443.832 396.16 443.606 396.731 443.276C397.302 442.947 397.688 442.582 397.89 442.181C398.103 441.787 398.131 441.396 397.974 441.008C397.817 440.62 397.47 440.271 396.933 439.961C396.407 439.657 395.802 439.457 395.119 439.36C394.448 439.269 393.765 439.282 393.071 439.398C392.388 439.521 391.761 439.747 391.19 440.077C390.619 440.407 390.221 440.772 389.998 441.173C389.796 441.573 389.774 441.968 389.93 442.355C390.098 442.75 390.445 443.099 390.972 443.402ZM395.326 447.72L404.411 442.475L406.224 443.522L404.444 444.55L404.461 444.288C405.256 444.087 406.045 444.045 406.829 444.162C407.624 444.272 408.346 444.514 408.995 444.889C409.667 445.277 410.114 445.703 410.338 446.169C410.562 446.634 410.562 447.099 410.338 447.565C410.114 448.03 409.667 448.457 408.995 448.844L403.134 452.228L401.254 451.142L406.61 448.049C407.069 447.784 407.372 447.513 407.517 447.235C407.674 446.951 407.68 446.67 407.534 446.392C407.411 446.114 407.153 445.862 406.762 445.635C406.37 445.409 405.928 445.257 405.435 445.18C404.965 445.102 404.483 445.109 403.991 445.199C403.498 445.29 403.028 445.464 402.58 445.723L397.224 448.815L395.326 447.72ZM404.494 453.013L413.578 447.768L415.392 448.815L413.612 449.842L413.629 449.581C414.423 449.38 415.213 449.338 415.996 449.455C416.791 449.564 417.513 449.807 418.162 450.182C418.834 450.57 419.282 450.996 419.506 451.461C419.73 451.927 419.73 452.392 419.506 452.858C419.282 453.323 418.834 453.749 418.162 454.137L412.302 457.521L410.421 456.435L415.778 453.342C416.237 453.077 416.539 452.806 416.685 452.528C416.841 452.244 416.847 451.962 416.702 451.684C416.578 451.407 416.321 451.154 415.929 450.928C415.537 450.702 415.095 450.55 414.603 450.473C414.132 450.395 413.651 450.401 413.158 450.492C412.666 450.582 412.196 450.757 411.748 451.015L406.391 454.108L404.494 453.013ZM417.725 460.884C416.818 460.361 416.219 459.776 415.928 459.13C415.659 458.483 415.687 457.84 416.012 457.2C416.348 456.554 416.964 455.972 417.859 455.455C418.777 454.925 419.785 454.57 420.882 454.389C421.99 454.214 423.082 454.205 424.156 454.36C425.242 454.508 426.21 454.828 427.061 455.319C427.744 455.714 428.237 456.134 428.539 456.58C428.841 457.026 428.97 457.475 428.925 457.927C428.892 458.373 428.707 458.803 428.371 459.217C428.046 459.637 427.587 460.018 426.994 460.361C426.849 460.445 426.692 460.529 426.524 460.613C426.356 460.697 426.188 460.768 426.02 460.826L418.783 456.648L420.294 455.775L426.457 459.333L424.862 459.207C425.522 458.955 425.97 458.651 426.205 458.296C426.462 457.94 426.524 457.582 426.39 457.22C426.278 456.858 425.97 456.531 425.466 456.24C424.962 455.95 424.386 455.765 423.736 455.688C423.098 455.604 422.438 455.636 421.755 455.785C421.083 455.927 420.44 456.202 419.824 456.609C419.152 456.932 418.699 457.291 418.464 457.685C418.24 458.086 418.206 458.48 418.363 458.868C418.531 459.262 418.883 459.614 419.421 459.925C419.969 460.241 420.557 460.438 421.184 460.516C421.822 460.6 422.449 460.594 423.065 460.497L423.854 461.825C423.249 461.967 422.583 462.028 421.856 462.009C421.15 461.99 420.434 461.886 419.706 461.699C419.001 461.511 418.341 461.24 417.725 460.884ZM427.402 466.471C426.495 465.948 425.896 465.363 425.605 464.717C425.336 464.07 425.353 463.421 425.655 462.768C425.969 462.122 426.579 461.537 427.486 461.013C428.381 460.496 429.389 460.147 430.508 459.966C431.628 459.785 432.742 459.782 433.85 459.956C434.97 460.124 435.983 460.47 436.889 460.994C437.505 461.349 437.97 461.747 438.283 462.186C438.608 462.619 438.776 463.059 438.787 463.505C438.809 463.957 438.664 464.384 438.35 464.785L435.916 464.271C436.195 463.889 436.263 463.495 436.117 463.088C435.994 462.681 435.664 462.322 435.126 462.012C434.611 461.714 434.018 461.521 433.346 461.43C432.697 461.34 432.025 461.359 431.331 461.488C430.648 461.611 430.021 461.837 429.451 462.167C428.88 462.496 428.482 462.862 428.258 463.262C428.046 463.657 428.012 464.044 428.158 464.426C428.314 464.814 428.65 465.156 429.165 465.453C429.714 465.77 430.329 465.964 431.012 466.035C431.717 466.106 432.412 466.061 433.094 465.899L433.968 467.315C433.307 467.489 432.579 467.573 431.785 467.567C431.012 467.561 430.245 467.467 429.484 467.286C428.723 467.105 428.029 466.833 427.402 466.471ZM436.628 471.682C435.677 471.133 435.207 470.551 435.218 469.937C435.229 469.323 435.721 468.735 436.695 468.172L441.095 465.632L439.5 464.711L441.213 463.722L441.464 463.868C441.89 464.113 442.343 464.233 442.825 464.227C443.306 464.22 443.759 464.094 444.185 463.848L444.89 463.441L446.788 464.537L444.705 465.739L446.771 466.931L445.058 467.92L442.993 466.728L438.677 469.219C438.363 469.4 438.145 469.585 438.022 469.772C437.91 469.953 437.904 470.144 438.005 470.344C438.117 470.538 438.352 470.738 438.71 470.945C438.8 470.997 438.906 471.052 439.03 471.11C439.153 471.168 439.27 471.223 439.382 471.275L437.753 472.215C437.574 472.138 437.378 472.05 437.166 471.953C436.953 471.856 436.774 471.766 436.628 471.682ZM442.833 475.381C441.926 474.857 441.327 474.272 441.036 473.626C440.768 472.98 440.796 472.336 441.12 471.697C441.456 471.05 442.072 470.469 442.967 469.951C443.885 469.421 444.893 469.066 445.99 468.885C447.098 468.711 448.19 468.701 449.265 468.856C450.35 469.005 451.319 469.325 452.17 469.816C452.852 470.21 453.345 470.63 453.647 471.076C453.95 471.522 454.078 471.971 454.034 472.424C454 472.87 453.815 473.299 453.479 473.713C453.155 474.133 452.696 474.515 452.102 474.857C451.957 474.941 451.8 475.025 451.632 475.109C451.464 475.193 451.296 475.264 451.128 475.323L443.891 471.144L445.402 470.271L451.565 473.829L449.97 473.703C450.63 473.451 451.078 473.148 451.313 472.792C451.571 472.437 451.632 472.078 451.498 471.716C451.386 471.354 451.078 471.028 450.574 470.737C450.071 470.446 449.494 470.262 448.845 470.184C448.207 470.1 447.546 470.132 446.863 470.281C446.192 470.423 445.548 470.698 444.932 471.105C444.26 471.428 443.807 471.787 443.572 472.181C443.348 472.582 443.314 472.976 443.471 473.364C443.639 473.758 443.992 474.111 444.529 474.421C445.078 474.738 445.665 474.935 446.292 475.012C446.93 475.096 447.557 475.09 448.173 474.993L448.962 476.321C448.358 476.463 447.692 476.525 446.964 476.505C446.259 476.486 445.542 476.382 444.815 476.195C444.109 476.008 443.449 475.736 442.833 475.381ZM452.393 480.9C451.519 480.396 450.943 479.824 450.663 479.184C450.406 478.544 450.434 477.901 450.747 477.255C451.072 476.615 451.682 476.036 452.577 475.519C453.473 475.002 454.48 474.653 455.6 474.472C456.719 474.291 457.828 474.278 458.925 474.433C460.022 474.588 461.001 474.915 461.863 475.412C462.591 475.833 463.089 476.288 463.358 476.779C463.627 477.271 463.666 477.759 463.475 478.243L462.753 478.331L468.261 475.151L470.142 476.237L457.43 483.576L455.634 482.538L457.481 481.472L457.346 481.801C456.484 481.937 455.617 481.921 454.744 481.753C453.87 481.585 453.087 481.301 452.393 480.9ZM454.341 479.989C454.867 480.292 455.466 480.489 456.137 480.58C456.82 480.677 457.503 480.664 458.186 480.541C458.891 480.418 459.529 480.192 460.1 479.862C460.671 479.533 461.057 479.168 461.259 478.767C461.472 478.373 461.494 477.978 461.326 477.584C461.169 477.196 460.828 476.851 460.302 476.547C459.776 476.243 459.171 476.043 458.488 475.946C457.805 475.849 457.122 475.862 456.44 475.984C455.757 476.107 455.13 476.334 454.559 476.663C453.988 476.993 453.59 477.358 453.367 477.759C453.154 478.153 453.126 478.544 453.283 478.932C453.451 479.326 453.803 479.678 454.341 479.989ZM370.79 457.786C370.006 457.334 369.424 456.83 369.043 456.274C368.674 455.712 368.512 455.146 368.556 454.577C368.601 454.009 368.847 453.466 369.295 452.949L371.68 453.511C371.21 454.131 371.058 454.729 371.226 455.305C371.394 455.88 371.859 456.387 372.62 456.827C373.068 457.085 373.527 457.273 373.997 457.389C374.478 457.499 374.937 457.531 375.374 457.486C375.822 457.447 376.214 457.331 376.55 457.137C377.009 456.872 377.244 456.587 377.255 456.284C377.266 455.98 377.098 455.637 376.751 455.256L375.139 453.472C374.49 452.761 374.215 452.092 374.316 451.465C374.428 450.832 374.887 450.283 375.693 449.817C376.398 449.41 377.188 449.155 378.061 449.051C378.945 448.941 379.841 448.974 380.748 449.148C381.666 449.329 382.516 449.646 383.3 450.098C384.05 450.531 384.599 451.003 384.946 451.514C385.304 452.018 385.472 452.529 385.449 453.046C385.438 453.569 385.231 454.064 384.828 454.529L382.46 453.996C382.875 453.472 382.998 452.955 382.83 452.445C382.673 451.94 382.253 451.491 381.57 451.097C381.156 450.858 380.72 450.69 380.261 450.593C379.813 450.489 379.365 450.463 378.917 450.515C378.492 450.567 378.106 450.693 377.759 450.893C377.356 451.126 377.126 451.407 377.07 451.737C377.014 452.066 377.171 452.428 377.54 452.823L379.035 454.48C379.729 455.23 380.042 455.915 379.975 456.536C379.919 457.15 379.471 457.699 378.632 458.184C377.938 458.585 377.137 458.834 376.23 458.93C375.335 459.034 374.411 458.992 373.46 458.804C372.519 458.611 371.629 458.271 370.79 457.786ZM373.736 463.521C373.512 463.391 373.311 463.249 373.132 463.094C372.953 462.952 372.813 462.806 372.712 462.658L374.341 461.717C374.441 461.814 374.576 461.924 374.744 462.047C374.9 462.176 375.068 462.293 375.247 462.396C375.774 462.7 376.277 462.855 376.759 462.861C377.24 462.881 377.817 462.813 378.488 462.658L380.47 462.212L378.841 463.113L384.785 455.144L386.817 456.317L382.149 462.367L381.461 461.969L391.922 459.265L393.971 460.447L379.882 463.947C379.132 464.135 378.393 464.251 377.666 464.296C376.938 464.354 376.244 464.322 375.583 464.199C374.934 464.083 374.318 463.857 373.736 463.521ZM388.67 468.11C387.741 467.573 387.153 466.969 386.907 466.297C386.672 465.631 386.801 464.994 387.293 464.387L389.443 464.833C389.174 465.272 389.101 465.702 389.224 466.122C389.359 466.549 389.689 466.914 390.215 467.218C390.663 467.476 391.127 467.628 391.609 467.673C392.09 467.719 392.504 467.641 392.851 467.441C393.075 467.311 393.193 467.172 393.204 467.024C393.226 466.869 393.187 466.71 393.086 466.549C392.997 466.394 392.879 466.248 392.734 466.112L391.709 465.056C391.15 464.474 390.898 463.941 390.954 463.456C391.032 462.971 391.374 462.554 391.978 462.205C392.527 461.889 393.142 461.695 393.825 461.624C394.519 461.546 395.225 461.585 395.941 461.74C396.658 461.895 397.324 462.15 397.939 462.506C398.768 462.984 399.3 463.53 399.535 464.144C399.781 464.752 399.675 465.343 399.216 465.919L397.066 465.473C397.324 465.117 397.385 464.752 397.251 464.377C397.128 464.009 396.826 463.685 396.344 463.408C395.93 463.168 395.499 463.036 395.051 463.01C394.615 462.978 394.24 463.052 393.926 463.233C393.713 463.356 393.59 463.492 393.557 463.64C393.534 463.782 393.568 463.931 393.657 464.086C393.758 464.235 393.876 464.38 394.01 464.522L395.051 465.628C395.588 466.184 395.829 466.71 395.773 467.208C395.728 467.699 395.393 468.126 394.766 468.488C394.228 468.798 393.607 468.989 392.902 469.06C392.219 469.131 391.508 469.089 390.769 468.934C390.041 468.772 389.342 468.497 388.67 468.11ZM397.263 472.954C396.311 472.405 395.841 471.823 395.852 471.209C395.864 470.595 396.356 470.007 397.33 469.445L401.73 466.905L400.134 465.984L401.847 464.995L402.099 465.14C402.525 465.386 402.978 465.505 403.459 465.499C403.941 465.493 404.394 465.366 404.819 465.121L405.525 464.714L407.422 465.809L405.34 467.011L407.405 468.204L405.693 469.193L403.627 468L399.312 470.492C398.998 470.673 398.78 470.857 398.657 471.045C398.545 471.225 398.539 471.416 398.64 471.617C398.752 471.81 398.987 472.011 399.345 472.218C399.435 472.269 399.541 472.324 399.664 472.382C399.787 472.441 399.905 472.496 400.017 472.547L398.388 473.488C398.209 473.41 398.013 473.323 397.8 473.226C397.588 473.129 397.409 473.038 397.263 472.954ZM403.468 476.653C402.561 476.13 401.962 475.545 401.671 474.898C401.402 474.252 401.43 473.609 401.755 472.969C402.091 472.323 402.707 471.741 403.602 471.224C404.52 470.694 405.528 470.338 406.625 470.157C407.733 469.983 408.825 469.973 409.899 470.128C410.985 470.277 411.954 470.597 412.804 471.088C413.487 471.482 413.98 471.903 414.282 472.349C414.584 472.795 414.713 473.244 414.668 473.696C414.635 474.142 414.45 474.572 414.114 474.986C413.789 475.406 413.33 475.787 412.737 476.13C412.592 476.214 412.435 476.298 412.267 476.382C412.099 476.466 411.931 476.537 411.763 476.595L404.526 472.416L406.037 471.544L412.2 475.102L410.605 474.976C411.265 474.724 411.713 474.42 411.948 474.065C412.205 473.709 412.267 473.35 412.133 472.988C412.021 472.626 411.713 472.3 411.209 472.009C410.705 471.718 410.129 471.534 409.479 471.457C408.841 471.373 408.181 471.405 407.498 471.554C406.826 471.696 406.183 471.97 405.567 472.378C404.895 472.701 404.442 473.06 404.207 473.454C403.983 473.855 403.949 474.249 404.106 474.637C404.274 475.031 404.627 475.383 405.164 475.693C405.712 476.01 406.3 476.207 406.927 476.285C407.565 476.369 408.192 476.362 408.808 476.265L409.597 477.594C408.992 477.736 408.326 477.797 407.599 477.778C406.893 477.758 406.177 477.655 405.449 477.468C404.744 477.28 404.084 477.009 403.468 476.653ZM409.031 479.632L418.115 474.387L419.929 475.434L417.964 476.569L418.031 476.258C418.837 476.013 419.649 475.945 420.466 476.055C421.284 476.165 422.017 476.407 422.666 476.782C423.394 477.202 423.842 477.687 424.009 478.236C424.2 478.786 424.071 479.299 423.623 479.778L423.036 479.496C424.032 479.231 424.983 479.154 425.89 479.264C426.808 479.38 427.625 479.645 428.342 480.059C428.969 480.421 429.389 480.831 429.601 481.29C429.825 481.755 429.831 482.224 429.618 482.696C429.405 483.168 428.969 483.594 428.308 483.976L422.431 487.369L420.533 486.273L425.89 483.181C426.349 482.916 426.651 482.644 426.797 482.366C426.965 482.088 426.987 481.817 426.864 481.552C426.763 481.287 426.523 481.044 426.142 480.825C425.761 480.605 425.336 480.463 424.866 480.398C424.407 480.327 423.931 480.337 423.439 480.427C422.946 480.518 422.476 480.692 422.028 480.951L416.671 484.043L414.791 482.958L420.147 479.865C420.606 479.6 420.908 479.328 421.054 479.051C421.222 478.773 421.244 478.501 421.121 478.236C421.02 477.971 420.774 477.726 420.382 477.499C420.002 477.28 419.576 477.137 419.106 477.073C418.647 477.002 418.171 477.011 417.679 477.102C417.197 477.199 416.733 477.377 416.285 477.635L410.928 480.728L409.031 479.632Z" fill="#0B30AD"/>
</g>
<g filter="url(#filter8_d_2318_2746)">
<path d="M667 302C667 282.118 683.118 266 703 266H765.385C785.267 266 801.385 282.118 801.385 302V364.385C801.385 384.267 785.267 400.385 765.385 400.385H703C683.118 400.385 667 384.267 667 364.385V302Z" fill="#FEFEFE"/>
<path d="M703 269.5H765.385C783.334 269.5 797.885 284.051 797.885 302V364.385C797.885 382.334 783.334 396.885 765.385 396.885H703C685.051 396.885 670.5 382.334 670.5 364.385V302C670.5 284.051 685.051 269.5 703 269.5Z" stroke="#EAEAEA" stroke-width="7"/>
<path d="M734 349.54C741.06 349.54 747.64 345.38 752.22 338.18C754.02 335.36 754.02 330.62 752.22 327.8C747.64 320.6 741.06 316.44 734 316.44C726.94 316.44 720.36 320.6 715.78 327.8C713.98 330.62 713.98 335.36 715.78 338.18C720.36 345.38 726.94 349.54 734 349.54Z" stroke="#7485FF" stroke-width="2.88" stroke-linecap="round" stroke-linejoin="round"/>
<path d="M741.16 333C741.16 336.96 737.96 340.16 734 340.16C730.04 340.16 726.84 336.96 726.84 333C726.84 329.04 730.04 325.84 734 325.84C737.96 325.84 741.16 329.04 741.16 333Z" stroke="#7485FF" stroke-width="2.88" stroke-linecap="round" stroke-linejoin="round"/>
</g>
<path d="M716.959 433.116C715.906 433.116 714.926 432.923 714.019 432.536C713.126 432.15 712.346 431.616 711.679 430.936C711.026 430.243 710.513 429.43 710.139 428.496C709.766 427.563 709.579 426.536 709.579 425.416C709.579 424.31 709.759 423.29 710.119 422.356C710.493 421.41 711.013 420.596 711.679 419.916C712.346 419.223 713.126 418.69 714.019 418.316C714.913 417.93 715.893 417.736 716.959 417.736C718.013 417.736 718.953 417.916 719.779 418.276C720.619 418.636 721.326 419.11 721.899 419.696C722.473 420.27 722.886 420.896 723.139 421.576L721.019 422.576C720.699 421.776 720.186 421.13 719.479 420.636C718.786 420.13 717.946 419.876 716.959 419.876C715.973 419.876 715.099 420.11 714.339 420.576C713.579 421.043 712.986 421.69 712.559 422.516C712.146 423.343 711.939 424.31 711.939 425.416C711.939 426.523 712.146 427.496 712.559 428.336C712.986 429.163 713.579 429.81 714.339 430.276C715.099 430.73 715.973 430.956 716.959 430.956C717.946 430.956 718.786 430.71 719.479 430.216C720.186 429.723 720.699 429.076 721.019 428.276L723.139 429.276C722.886 429.943 722.473 430.57 721.899 431.156C721.326 431.743 720.619 432.216 719.779 432.576C718.953 432.936 718.013 433.116 716.959 433.116ZM725.346 432.876V417.736H727.606V432.876H725.346ZM735.329 433.116C734.249 433.116 733.289 432.87 732.449 432.376C731.622 431.87 730.975 431.19 730.509 430.336C730.042 429.47 729.809 428.503 729.809 427.436C729.809 426.343 730.042 425.376 730.509 424.536C730.989 423.696 731.629 423.036 732.429 422.556C733.229 422.063 734.135 421.816 735.149 421.816C735.962 421.816 736.689 421.956 737.329 422.236C737.969 422.516 738.509 422.903 738.949 423.396C739.389 423.876 739.722 424.43 739.949 425.056C740.189 425.683 740.309 426.35 740.309 427.056C740.309 427.23 740.302 427.41 740.289 427.596C740.275 427.783 740.249 427.956 740.209 428.116H731.589V426.316H738.929L737.849 427.136C737.982 426.483 737.935 425.903 737.709 425.396C737.495 424.876 737.162 424.47 736.709 424.176C736.269 423.87 735.749 423.716 735.149 423.716C734.549 423.716 734.015 423.87 733.549 424.176C733.082 424.47 732.722 424.896 732.469 425.456C732.215 426.003 732.115 426.67 732.169 427.456C732.102 428.19 732.202 428.83 732.469 429.376C732.749 429.923 733.135 430.35 733.629 430.656C734.135 430.963 734.709 431.116 735.349 431.116C736.002 431.116 736.555 430.97 737.009 430.676C737.475 430.383 737.842 430.003 738.109 429.536L739.949 430.436C739.735 430.943 739.402 431.403 738.949 431.816C738.509 432.216 737.975 432.536 737.349 432.776C736.735 433.003 736.062 433.116 735.329 433.116ZM745.657 433.116C744.923 433.116 744.277 432.99 743.717 432.736C743.17 432.47 742.743 432.11 742.437 431.656C742.13 431.19 741.977 430.643 741.977 430.016C741.977 429.43 742.103 428.903 742.357 428.436C742.623 427.97 743.03 427.576 743.577 427.256C744.123 426.936 744.81 426.71 745.637 426.576L749.397 425.956V427.736L746.077 428.316C745.477 428.423 745.037 428.616 744.757 428.896C744.477 429.163 744.337 429.51 744.337 429.936C744.337 430.35 744.49 430.69 744.797 430.956C745.117 431.21 745.523 431.336 746.017 431.336C746.63 431.336 747.163 431.203 747.617 430.936C748.083 430.67 748.443 430.316 748.697 429.876C748.95 429.423 749.077 428.923 749.077 428.376V425.596C749.077 425.063 748.877 424.63 748.477 424.296C748.09 423.95 747.57 423.776 746.917 423.776C746.317 423.776 745.79 423.936 745.337 424.256C744.897 424.563 744.57 424.963 744.357 425.456L742.477 424.516C742.677 423.983 743.003 423.516 743.457 423.116C743.91 422.703 744.437 422.383 745.037 422.156C745.65 421.93 746.297 421.816 746.977 421.816C747.83 421.816 748.583 421.976 749.237 422.296C749.903 422.616 750.417 423.063 750.777 423.636C751.15 424.196 751.337 424.85 751.337 425.596V432.876H749.177V430.916L749.637 430.976C749.383 431.416 749.057 431.796 748.657 432.116C748.27 432.436 747.823 432.683 747.317 432.856C746.823 433.03 746.27 433.116 745.657 433.116ZM753.979 432.876V422.056H756.139V424.236L755.939 423.916C756.179 423.21 756.566 422.703 757.099 422.396C757.633 422.076 758.273 421.916 759.019 421.916H759.679V423.976H758.739C757.993 423.976 757.386 424.21 756.919 424.676C756.466 425.13 756.239 425.783 756.239 426.636V432.876H753.979ZM699.058 457.876L693.778 442.976H696.318L700.638 455.696H700.138L704.438 442.976H706.978L701.698 457.876H699.058ZM708.51 457.876V447.056H710.77V457.876H708.51ZM708.51 445.576V442.976H710.77V445.576H708.51ZM717.413 458.116C716.306 458.116 715.333 457.843 714.493 457.296C713.666 456.75 713.086 456.016 712.753 455.096L714.493 454.276C714.786 454.89 715.186 455.376 715.693 455.736C716.213 456.096 716.786 456.276 717.413 456.276C717.946 456.276 718.379 456.156 718.713 455.916C719.046 455.676 719.213 455.35 719.213 454.936C719.213 454.67 719.139 454.456 718.993 454.296C718.846 454.123 718.659 453.983 718.433 453.876C718.219 453.77 717.999 453.69 717.773 453.636L716.073 453.156C715.139 452.89 714.439 452.49 713.973 451.956C713.519 451.41 713.293 450.776 713.293 450.056C713.293 449.403 713.459 448.836 713.793 448.356C714.126 447.863 714.586 447.483 715.173 447.216C715.759 446.95 716.419 446.816 717.153 446.816C718.139 446.816 719.019 447.063 719.793 447.556C720.566 448.036 721.113 448.71 721.433 449.576L719.693 450.396C719.479 449.876 719.139 449.463 718.673 449.156C718.219 448.85 717.706 448.696 717.133 448.696C716.639 448.696 716.246 448.816 715.953 449.056C715.659 449.283 715.513 449.583 715.513 449.956C715.513 450.21 715.579 450.423 715.713 450.596C715.846 450.756 716.019 450.89 716.233 450.996C716.446 451.09 716.666 451.17 716.893 451.236L718.653 451.756C719.546 452.01 720.233 452.41 720.713 452.956C721.193 453.49 721.433 454.13 721.433 454.876C721.433 455.516 721.259 456.083 720.913 456.576C720.579 457.056 720.113 457.436 719.513 457.716C718.913 457.983 718.213 458.116 717.413 458.116ZM723.647 457.876V447.056H725.907V457.876H723.647ZM723.647 445.576V442.976H725.907V445.576H723.647ZM734.329 458.116C733.489 458.116 732.723 457.943 732.029 457.596C731.349 457.25 730.823 456.75 730.449 456.096L730.709 455.676V457.876H728.549V442.736H730.809V449.296L730.449 448.776C730.849 448.163 731.383 447.683 732.049 447.336C732.716 446.99 733.476 446.816 734.329 446.816C735.356 446.816 736.276 447.063 737.089 447.556C737.916 448.05 738.563 448.723 739.029 449.576C739.509 450.43 739.749 451.39 739.749 452.456C739.749 453.523 739.509 454.483 739.029 455.336C738.563 456.19 737.923 456.87 737.109 457.376C736.296 457.87 735.369 458.116 734.329 458.116ZM734.109 456.016C734.749 456.016 735.316 455.863 735.809 455.556C736.303 455.25 736.689 454.83 736.969 454.296C737.263 453.75 737.409 453.136 737.409 452.456C737.409 451.776 737.263 451.17 736.969 450.636C736.689 450.103 736.303 449.683 735.809 449.376C735.316 449.07 734.749 448.916 734.109 448.916C733.483 448.916 732.916 449.07 732.409 449.376C731.916 449.683 731.523 450.103 731.229 450.636C730.949 451.17 730.809 451.776 730.809 452.456C730.809 453.136 730.949 453.75 731.229 454.296C731.523 454.83 731.916 455.25 732.409 455.556C732.916 455.863 733.483 456.016 734.109 456.016ZM741.948 457.876V447.056H744.208V457.876H741.948ZM741.948 445.576V442.976H744.208V445.576H741.948ZM746.85 457.876V442.736H749.11V457.876H746.85ZM751.753 457.876V447.056H754.013V457.876H751.753ZM751.753 445.576V442.976H754.013V445.576H751.753ZM761.335 457.996C760.202 457.996 759.322 457.676 758.695 457.036C758.068 456.396 757.755 455.496 757.755 454.336V449.096H755.855V447.056H756.155C756.662 447.056 757.055 446.91 757.335 446.616C757.615 446.323 757.755 445.923 757.755 445.416V444.576H760.015V447.056H762.475V449.096H760.015V454.236C760.015 454.61 760.075 454.93 760.195 455.196C760.315 455.45 760.508 455.65 760.775 455.796C761.042 455.93 761.388 455.996 761.815 455.996C761.922 455.996 762.042 455.99 762.175 455.976C762.308 455.963 762.435 455.95 762.555 455.936V457.876C762.368 457.903 762.162 457.93 761.935 457.956C761.708 457.983 761.508 457.996 761.335 457.996ZM765.72 462.276C765.454 462.276 765.187 462.25 764.92 462.196C764.667 462.156 764.434 462.09 764.22 461.996V460.056C764.38 460.096 764.574 460.13 764.8 460.156C765.027 460.196 765.247 460.216 765.46 460.216C766.087 460.216 766.547 460.076 766.84 459.796C767.147 459.53 767.42 459.116 767.66 458.556L768.38 456.916L768.34 458.816L763.66 447.056H766.08L769.54 456.076H768.72L772.16 447.056H774.6L769.82 459.056C769.567 459.696 769.247 460.256 768.86 460.736C768.487 461.23 768.04 461.61 767.52 461.876C767.014 462.143 766.414 462.276 765.72 462.276Z" fill="#FEFEFE"/>
<g filter="url(#filter9_d_2318_2746)">
<path d="M15.6602 303C15.6602 283.118 31.7779 267 51.6602 267H114.045C133.927 267 150.045 283.118 150.045 303V365.385C150.045 385.267 133.927 401.385 114.045 401.385H51.6601C31.7779 401.385 15.6602 385.267 15.6602 365.385V303Z" fill="#FEFEFE"/>
<path d="M51.6602 270.5H114.045C131.994 270.5 146.545 285.051 146.545 303V365.385C146.545 383.334 131.994 397.885 114.045 397.885H51.6602C33.7109 397.885 19.1602 383.334 19.1602 365.385V303C19.1602 285.051 33.7109 270.5 51.6602 270.5Z" stroke="#EAEAEA" stroke-width="7"/>
<path d="M72.7598 346.3V342.16" stroke="#7485FF" stroke-width="2.88" stroke-linecap="round"/>
<path d="M83 346.3V338.02" stroke="#7485FF" stroke-width="2.88" stroke-linecap="round"/>
<path d="M93.2402 346.3V333.86" stroke="#7485FF" stroke-width="2.88" stroke-linecap="round"/>
<path d="M93.2398 321.7L92.3198 322.78C87.2198 328.74 80.3798 332.96 72.7598 334.86" stroke="#7485FF" stroke-width="2.88" stroke-linecap="round"/>
<path d="M87.3799 321.7H93.2399V327.54" stroke="#7485FF" stroke-width="3.6" stroke-linecap="round" stroke-linejoin="round"/>
<path d="M77 354H89C99 354 103 350 103 340V328C103 318 99 314 89 314H77C67 314 63 318 63 328V340C63 350 67 354 77 354Z" stroke="#7485FF" stroke-width="3.6" stroke-linecap="round" stroke-linejoin="round"/>
</g>
<path d="M45.4426 434.116C44.5093 434.116 43.6426 433.943 42.8426 433.596C42.0426 433.236 41.3626 432.75 40.8026 432.136C40.2426 431.523 39.8293 430.816 39.5626 430.016L41.5626 429.176C41.9226 430.096 42.4493 430.803 43.1426 431.296C43.836 431.79 44.636 432.036 45.5426 432.036C46.076 432.036 46.5426 431.956 46.9426 431.796C47.3426 431.623 47.6493 431.383 47.8626 431.076C48.0893 430.77 48.2026 430.416 48.2026 430.016C48.2026 429.47 48.0493 429.036 47.7426 428.716C47.436 428.396 46.9826 428.143 46.3826 427.956L43.5826 427.076C42.4626 426.73 41.6093 426.203 41.0226 425.496C40.436 424.776 40.1426 423.936 40.1426 422.976C40.1426 422.136 40.3493 421.403 40.7626 420.776C41.176 420.136 41.7426 419.636 42.4626 419.276C43.196 418.916 44.0293 418.736 44.9626 418.736C45.856 418.736 46.6693 418.896 47.4026 419.216C48.136 419.523 48.7626 419.95 49.2826 420.496C49.816 421.043 50.2026 421.676 50.4426 422.396L48.4826 423.256C48.1893 422.47 47.7293 421.863 47.1026 421.436C46.4893 421.01 45.776 420.796 44.9626 420.796C44.4693 420.796 44.036 420.883 43.6626 421.056C43.2893 421.216 42.996 421.456 42.7826 421.776C42.5826 422.083 42.4826 422.443 42.4826 422.856C42.4826 423.336 42.636 423.763 42.9426 424.136C43.2493 424.51 43.716 424.79 44.3426 424.976L46.9426 425.796C48.1293 426.156 49.0226 426.676 49.6226 427.356C50.2226 428.023 50.5226 428.856 50.5226 429.856C50.5226 430.683 50.3026 431.416 49.8626 432.056C49.436 432.696 48.8426 433.203 48.0826 433.576C47.3226 433.936 46.4426 434.116 45.4426 434.116ZM58.0918 434.116C57.0118 434.116 56.0518 433.87 55.2118 433.376C54.3852 432.87 53.7252 432.19 53.2318 431.336C52.7518 430.483 52.5118 429.516 52.5118 428.436C52.5118 427.37 52.7518 426.41 53.2318 425.556C53.7118 424.703 54.3718 424.036 55.2118 423.556C56.0518 423.063 57.0118 422.816 58.0918 422.816C58.8252 422.816 59.5118 422.95 60.1518 423.216C60.7918 423.47 61.3452 423.823 61.8118 424.276C62.2918 424.73 62.6452 425.256 62.8718 425.856L60.8918 426.776C60.6652 426.216 60.2985 425.77 59.7918 425.436C59.2985 425.09 58.7318 424.916 58.0918 424.916C57.4785 424.916 56.9252 425.07 56.4318 425.376C55.9518 425.67 55.5718 426.09 55.2918 426.636C55.0118 427.17 54.8718 427.776 54.8718 428.456C54.8718 429.136 55.0118 429.75 55.2918 430.296C55.5718 430.83 55.9518 431.25 56.4318 431.556C56.9252 431.863 57.4785 432.016 58.0918 432.016C58.7452 432.016 59.3118 431.85 59.7918 431.516C60.2852 431.17 60.6518 430.71 60.8918 430.136L62.8718 431.076C62.6585 431.65 62.3118 432.17 61.8318 432.636C61.3652 433.09 60.8118 433.45 60.1718 433.716C59.5318 433.983 58.8385 434.116 58.0918 434.116ZM68.2231 434.116C67.4898 434.116 66.8431 433.99 66.2831 433.736C65.7364 433.47 65.3098 433.11 65.0031 432.656C64.6964 432.19 64.5431 431.643 64.5431 431.016C64.5431 430.43 64.6698 429.903 64.9231 429.436C65.1898 428.97 65.5964 428.576 66.1431 428.256C66.6898 427.936 67.3764 427.71 68.2031 427.576L71.9631 426.956V428.736L68.6431 429.316C68.0431 429.423 67.6031 429.616 67.3231 429.896C67.0431 430.163 66.9031 430.51 66.9031 430.936C66.9031 431.35 67.0564 431.69 67.3631 431.956C67.6831 432.21 68.0898 432.336 68.5831 432.336C69.1964 432.336 69.7298 432.203 70.1831 431.936C70.6498 431.67 71.0098 431.316 71.2631 430.876C71.5164 430.423 71.6431 429.923 71.6431 429.376V426.596C71.6431 426.063 71.4431 425.63 71.0431 425.296C70.6564 424.95 70.1364 424.776 69.4831 424.776C68.8831 424.776 68.3564 424.936 67.9031 425.256C67.4631 425.563 67.1364 425.963 66.9231 426.456L65.0431 425.516C65.2431 424.983 65.5698 424.516 66.0231 424.116C66.4764 423.703 67.0031 423.383 67.6031 423.156C68.2164 422.93 68.8631 422.816 69.5431 422.816C70.3964 422.816 71.1498 422.976 71.8031 423.296C72.4698 423.616 72.9831 424.063 73.3431 424.636C73.7164 425.196 73.9031 425.85 73.9031 426.596V433.876H71.7431V431.916L72.2031 431.976C71.9498 432.416 71.6231 432.796 71.2231 433.116C70.8364 433.436 70.3898 433.683 69.8831 433.856C69.3898 434.03 68.8364 434.116 68.2231 434.116ZM76.5456 433.876V418.736H78.8056V433.876H76.5456ZM84.6879 434.116C83.9546 434.116 83.3079 433.99 82.7479 433.736C82.2013 433.47 81.7746 433.11 81.4679 432.656C81.1613 432.19 81.0079 431.643 81.0079 431.016C81.0079 430.43 81.1346 429.903 81.3879 429.436C81.6546 428.97 82.0613 428.576 82.6079 428.256C83.1546 427.936 83.8413 427.71 84.6679 427.576L88.4279 426.956V428.736L85.1079 429.316C84.5079 429.423 84.0679 429.616 83.7879 429.896C83.5079 430.163 83.3679 430.51 83.3679 430.936C83.3679 431.35 83.5213 431.69 83.8279 431.956C84.1479 432.21 84.5546 432.336 85.0479 432.336C85.6613 432.336 86.1946 432.203 86.6479 431.936C87.1146 431.67 87.4746 431.316 87.7279 430.876C87.9813 430.423 88.1079 429.923 88.1079 429.376V426.596C88.1079 426.063 87.9079 425.63 87.5079 425.296C87.1213 424.95 86.6013 424.776 85.9479 424.776C85.3479 424.776 84.8213 424.936 84.3679 425.256C83.9279 425.563 83.6013 425.963 83.3879 426.456L81.5079 425.516C81.7079 424.983 82.0346 424.516 82.4879 424.116C82.9413 423.703 83.4679 423.383 84.0679 423.156C84.6813 422.93 85.3279 422.816 86.0079 422.816C86.8613 422.816 87.6146 422.976 88.2679 423.296C88.9346 423.616 89.4479 424.063 89.8079 424.636C90.1813 425.196 90.3679 425.85 90.3679 426.596V433.876H88.2079V431.916L88.6679 431.976C88.4146 432.416 88.0879 432.796 87.6879 433.116C87.3013 433.436 86.8546 433.683 86.3479 433.856C85.8546 434.03 85.3013 434.116 84.6879 434.116ZM98.7904 434.116C97.9504 434.116 97.1838 433.943 96.4904 433.596C95.8104 433.25 95.2838 432.75 94.9104 432.096L95.1704 431.676V433.876H93.0104V418.736H95.2704V425.296L94.9104 424.776C95.3104 424.163 95.8438 423.683 96.5104 423.336C97.1771 422.99 97.9371 422.816 98.7904 422.816C99.8171 422.816 100.737 423.063 101.55 423.556C102.377 424.05 103.024 424.723 103.49 425.576C103.97 426.43 104.21 427.39 104.21 428.456C104.21 429.523 103.97 430.483 103.49 431.336C103.024 432.19 102.384 432.87 101.57 433.376C100.757 433.87 99.8304 434.116 98.7904 434.116ZM98.5704 432.016C99.2104 432.016 99.7771 431.863 100.27 431.556C100.764 431.25 101.15 430.83 101.43 430.296C101.724 429.75 101.87 429.136 101.87 428.456C101.87 427.776 101.724 427.17 101.43 426.636C101.15 426.103 100.764 425.683 100.27 425.376C99.7771 425.07 99.2104 424.916 98.5704 424.916C97.9438 424.916 97.3771 425.07 96.8704 425.376C96.3771 425.683 95.9838 426.103 95.6904 426.636C95.4104 427.17 95.2704 427.776 95.2704 428.456C95.2704 429.136 95.4104 429.75 95.6904 430.296C95.9838 430.83 96.3771 431.25 96.8704 431.556C97.3771 431.863 97.9438 432.016 98.5704 432.016ZM106.409 433.876V418.736H108.669V433.876H106.409ZM116.391 434.116C115.311 434.116 114.351 433.87 113.511 433.376C112.685 432.87 112.038 432.19 111.571 431.336C111.105 430.47 110.871 429.503 110.871 428.436C110.871 427.343 111.105 426.376 111.571 425.536C112.051 424.696 112.691 424.036 113.491 423.556C114.291 423.063 115.198 422.816 116.211 422.816C117.025 422.816 117.751 422.956 118.391 423.236C119.031 423.516 119.571 423.903 120.011 424.396C120.451 424.876 120.785 425.43 121.011 426.056C121.251 426.683 121.371 427.35 121.371 428.056C121.371 428.23 121.365 428.41 121.351 428.596C121.338 428.783 121.311 428.956 121.271 429.116H112.651V427.316H119.991L118.911 428.136C119.045 427.483 118.998 426.903 118.771 426.396C118.558 425.876 118.225 425.47 117.771 425.176C117.331 424.87 116.811 424.716 116.211 424.716C115.611 424.716 115.078 424.87 114.611 425.176C114.145 425.47 113.785 425.896 113.531 426.456C113.278 427.003 113.178 427.67 113.231 428.456C113.165 429.19 113.265 429.83 113.531 430.376C113.811 430.923 114.198 431.35 114.691 431.656C115.198 431.963 115.771 432.116 116.411 432.116C117.065 432.116 117.618 431.97 118.071 431.676C118.538 431.383 118.905 431.003 119.171 430.536L121.011 431.436C120.798 431.943 120.465 432.403 120.011 432.816C119.571 433.216 119.038 433.536 118.411 433.776C117.798 434.003 117.125 434.116 116.391 434.116ZM36.0661 459.116C34.9861 459.116 33.9795 458.923 33.0461 458.536C32.1261 458.15 31.3128 457.61 30.6061 456.916C29.9128 456.223 29.3661 455.41 28.9661 454.476C28.5795 453.543 28.3861 452.523 28.3861 451.416C28.3861 450.31 28.5795 449.29 28.9661 448.356C29.3661 447.41 29.9128 446.596 30.6061 445.916C31.2995 445.223 32.1128 444.69 33.0461 444.316C33.9795 443.93 34.9861 443.736 36.0661 443.736C37.1595 443.736 38.1661 443.93 39.0861 444.316C40.0195 444.69 40.8328 445.223 41.5261 445.916C42.2328 446.61 42.7795 447.423 43.1661 448.356C43.5528 449.29 43.7461 450.31 43.7461 451.416C43.7461 452.523 43.5461 453.543 43.1461 454.476C42.7595 455.41 42.2195 456.223 41.5261 456.916C40.8328 457.61 40.0195 458.15 39.0861 458.536C38.1528 458.923 37.1461 459.116 36.0661 459.116ZM36.0661 456.956C36.8395 456.956 37.5461 456.816 38.1861 456.536C38.8395 456.256 39.4061 455.87 39.8861 455.376C40.3661 454.87 40.7395 454.283 41.0061 453.616C41.2728 452.936 41.4061 452.203 41.4061 451.416C41.4061 450.63 41.2728 449.903 41.0061 449.236C40.7395 448.57 40.3661 447.983 39.8861 447.476C39.4061 446.97 38.8395 446.576 38.1861 446.296C37.5461 446.016 36.8395 445.876 36.0661 445.876C35.2928 445.876 34.5795 446.016 33.9261 446.296C33.2861 446.576 32.7261 446.97 32.2461 447.476C31.7661 447.983 31.3928 448.57 31.1261 449.236C30.8728 449.903 30.7461 450.63 30.7461 451.416C30.7461 452.203 30.8728 452.936 31.1261 453.616C31.3928 454.283 31.7661 454.87 32.2461 455.376C32.7261 455.87 33.2928 456.256 33.9461 456.536C34.5995 456.816 35.3061 456.956 36.0661 456.956ZM46.1647 462.876V448.056H48.3247V450.296L48.0647 449.776C48.4647 449.163 48.9981 448.683 49.6647 448.336C50.3314 447.99 51.0914 447.816 51.9447 447.816C52.9714 447.816 53.8914 448.063 54.7047 448.556C55.5314 449.05 56.1781 449.723 56.6447 450.576C57.1247 451.43 57.3647 452.39 57.3647 453.456C57.3647 454.523 57.1247 455.483 56.6447 456.336C56.1781 457.19 55.5381 457.87 54.7247 458.376C53.9114 458.87 52.9847 459.116 51.9447 459.116C51.1047 459.116 50.3381 458.943 49.6447 458.596C48.9647 458.25 48.4381 457.75 48.0647 457.096L48.4247 456.676V462.876H46.1647ZM51.7247 457.016C52.3647 457.016 52.9314 456.863 53.4247 456.556C53.9181 456.25 54.3047 455.83 54.5847 455.296C54.8781 454.75 55.0247 454.136 55.0247 453.456C55.0247 452.776 54.8781 452.17 54.5847 451.636C54.3047 451.103 53.9181 450.683 53.4247 450.376C52.9314 450.07 52.3647 449.916 51.7247 449.916C51.0981 449.916 50.5314 450.07 50.0247 450.376C49.5314 450.683 49.1381 451.103 48.8447 451.636C48.5647 452.17 48.4247 452.776 48.4247 453.456C48.4247 454.136 48.5647 454.75 48.8447 455.296C49.1381 455.83 49.5314 456.25 50.0247 456.556C50.5314 456.863 51.0981 457.016 51.7247 457.016ZM64.6432 459.116C63.5632 459.116 62.6032 458.87 61.7632 458.376C60.9365 457.87 60.2898 457.19 59.8232 456.336C59.3565 455.47 59.1232 454.503 59.1232 453.436C59.1232 452.343 59.3565 451.376 59.8232 450.536C60.3032 449.696 60.9432 449.036 61.7432 448.556C62.5432 448.063 63.4498 447.816 64.4632 447.816C65.2765 447.816 66.0032 447.956 66.6432 448.236C67.2832 448.516 67.8232 448.903 68.2632 449.396C68.7032 449.876 69.0365 450.43 69.2632 451.056C69.5032 451.683 69.6232 452.35 69.6232 453.056C69.6232 453.23 69.6165 453.41 69.6032 453.596C69.5898 453.783 69.5632 453.956 69.5232 454.116H60.9032V452.316H68.2432L67.1632 453.136C67.2965 452.483 67.2498 451.903 67.0232 451.396C66.8098 450.876 66.4765 450.47 66.0232 450.176C65.5832 449.87 65.0632 449.716 64.4632 449.716C63.8632 449.716 63.3298 449.87 62.8632 450.176C62.3965 450.47 62.0365 450.896 61.7832 451.456C61.5298 452.003 61.4298 452.67 61.4832 453.456C61.4165 454.19 61.5165 454.83 61.7832 455.376C62.0632 455.923 62.4498 456.35 62.9432 456.656C63.4498 456.963 64.0232 457.116 64.6632 457.116C65.3165 457.116 65.8698 456.97 66.3232 456.676C66.7898 456.383 67.1565 456.003 67.4232 455.536L69.2632 456.436C69.0498 456.943 68.7165 457.403 68.2632 457.816C67.8232 458.216 67.2898 458.536 66.6632 458.776C66.0498 459.003 65.3765 459.116 64.6432 459.116ZM71.8288 458.876V448.056H73.9888V450.236L73.7888 449.916C74.0288 449.21 74.4155 448.703 74.9488 448.396C75.4821 448.076 76.1221 447.916 76.8688 447.916H77.5288V449.976H76.5888C75.8421 449.976 75.2355 450.21 74.7688 450.676C74.3155 451.13 74.0888 451.783 74.0888 452.636V458.876H71.8288ZM82.3149 459.116C81.5815 459.116 80.9349 458.99 80.3749 458.736C79.8282 458.47 79.4015 458.11 79.0949 457.656C78.7882 457.19 78.6349 456.643 78.6349 456.016C78.6349 455.43 78.7615 454.903 79.0149 454.436C79.2815 453.97 79.6882 453.576 80.2349 453.256C80.7815 452.936 81.4682 452.71 82.2949 452.576L86.0549 451.956V453.736L82.7349 454.316C82.1349 454.423 81.6949 454.616 81.4149 454.896C81.1349 455.163 80.9949 455.51 80.9949 455.936C80.9949 456.35 81.1482 456.69 81.4549 456.956C81.7749 457.21 82.1815 457.336 82.6749 457.336C83.2882 457.336 83.8215 457.203 84.2749 456.936C84.7415 456.67 85.1016 456.316 85.3549 455.876C85.6082 455.423 85.7349 454.923 85.7349 454.376V451.596C85.7349 451.063 85.5349 450.63 85.1349 450.296C84.7482 449.95 84.2282 449.776 83.5749 449.776C82.9749 449.776 82.4482 449.936 81.9949 450.256C81.5549 450.563 81.2282 450.963 81.0149 451.456L79.1349 450.516C79.3349 449.983 79.6615 449.516 80.1149 449.116C80.5682 448.703 81.0949 448.383 81.6949 448.156C82.3082 447.93 82.9549 447.816 83.6349 447.816C84.4882 447.816 85.2415 447.976 85.8949 448.296C86.5615 448.616 87.0749 449.063 87.4349 449.636C87.8082 450.196 87.9949 450.85 87.9949 451.596V458.876H85.8349V456.916L86.2949 456.976C86.0415 457.416 85.7149 457.796 85.3149 458.116C84.9282 458.436 84.4815 458.683 83.9749 458.856C83.4815 459.03 82.9282 459.116 82.3149 459.116ZM95.1221 458.996C93.9887 458.996 93.1087 458.676 92.4821 458.036C91.8554 457.396 91.5421 456.496 91.5421 455.336V450.096H89.6421V448.056H89.9421C90.4487 448.056 90.8421 447.91 91.1221 447.616C91.4021 447.323 91.5421 446.923 91.5421 446.416V445.576H93.8021V448.056H96.2621V450.096H93.8021V455.236C93.8021 455.61 93.8621 455.93 93.9821 456.196C94.1021 456.45 94.2954 456.65 94.5621 456.796C94.8287 456.93 95.1754 456.996 95.6021 456.996C95.7087 456.996 95.8287 456.99 95.9621 456.976C96.0954 456.963 96.2221 456.95 96.3421 456.936V458.876C96.1554 458.903 95.9487 458.93 95.7221 458.956C95.4954 458.983 95.2954 458.996 95.1221 458.996ZM98.5475 458.876V448.056H100.808V458.876H98.5475ZM98.5475 446.576V443.976H100.808V446.576H98.5475ZM108.67 459.116C107.63 459.116 106.677 458.87 105.81 458.376C104.957 457.883 104.277 457.21 103.77 456.356C103.263 455.503 103.01 454.536 103.01 453.456C103.01 452.363 103.263 451.396 103.77 450.556C104.277 449.703 104.957 449.036 105.81 448.556C106.663 448.063 107.617 447.816 108.67 447.816C109.737 447.816 110.69 448.063 111.53 448.556C112.383 449.036 113.057 449.703 113.55 450.556C114.057 451.396 114.31 452.363 114.31 453.456C114.31 454.55 114.057 455.523 113.55 456.376C113.043 457.23 112.363 457.903 111.51 458.396C110.657 458.876 109.71 459.116 108.67 459.116ZM108.67 457.016C109.31 457.016 109.877 456.863 110.37 456.556C110.863 456.25 111.25 455.83 111.53 455.296C111.823 454.75 111.97 454.136 111.97 453.456C111.97 452.776 111.823 452.17 111.53 451.636C111.25 451.103 110.863 450.683 110.37 450.376C109.877 450.07 109.31 449.916 108.67 449.916C108.043 449.916 107.477 450.07 106.97 450.376C106.477 450.683 106.083 451.103 105.79 451.636C105.51 452.17 105.37 452.776 105.37 453.456C105.37 454.136 105.51 454.75 105.79 455.296C106.083 455.83 106.477 456.25 106.97 456.556C107.477 456.863 108.043 457.016 108.67 457.016ZM116.516 458.876V448.056H118.676V450.176L118.416 449.896C118.683 449.216 119.11 448.703 119.696 448.356C120.283 447.996 120.963 447.816 121.736 447.816C122.536 447.816 123.243 447.99 123.856 448.336C124.47 448.683 124.95 449.163 125.296 449.776C125.643 450.39 125.816 451.096 125.816 451.896V458.876H123.576V452.496C123.576 451.95 123.476 451.49 123.276 451.116C123.076 450.73 122.79 450.436 122.416 450.236C122.056 450.023 121.643 449.916 121.176 449.916C120.71 449.916 120.29 450.023 119.916 450.236C119.556 450.436 119.276 450.73 119.076 451.116C118.876 451.503 118.776 451.963 118.776 452.496V458.876H116.516ZM132.235 459.116C131.128 459.116 130.155 458.843 129.315 458.296C128.488 457.75 127.908 457.016 127.575 456.096L129.315 455.276C129.608 455.89 130.008 456.376 130.515 456.736C131.035 457.096 131.608 457.276 132.235 457.276C132.768 457.276 133.202 457.156 133.535 456.916C133.868 456.676 134.035 456.35 134.035 455.936C134.035 455.67 133.962 455.456 133.815 455.296C133.668 455.123 133.482 454.983 133.255 454.876C133.042 454.77 132.822 454.69 132.595 454.636L130.895 454.156C129.962 453.89 129.262 453.49 128.795 452.956C128.342 452.41 128.115 451.776 128.115 451.056C128.115 450.403 128.282 449.836 128.615 449.356C128.948 448.863 129.408 448.483 129.995 448.216C130.582 447.95 131.242 447.816 131.975 447.816C132.962 447.816 133.842 448.063 134.615 448.556C135.388 449.036 135.935 449.71 136.255 450.576L134.515 451.396C134.302 450.876 133.962 450.463 133.495 450.156C133.042 449.85 132.528 449.696 131.955 449.696C131.462 449.696 131.068 449.816 130.775 450.056C130.482 450.283 130.335 450.583 130.335 450.956C130.335 451.21 130.402 451.423 130.535 451.596C130.668 451.756 130.842 451.89 131.055 451.996C131.268 452.09 131.488 452.17 131.715 452.236L133.475 452.756C134.368 453.01 135.055 453.41 135.535 453.956C136.015 454.49 136.255 455.13 136.255 455.876C136.255 456.516 136.082 457.083 135.735 457.576C135.402 458.056 134.935 458.436 134.335 458.716C133.735 458.983 133.035 459.116 132.235 459.116Z" fill="#FEFEFE"/>
<g filter="url(#filter10_d_2318_2746)">
<path d="M349.66 39C349.66 19.1177 365.778 3 385.66 3H448.045C467.927 3 484.045 19.1178 484.045 39V101.385C484.045 121.267 467.927 137.385 448.045 137.385H385.66C365.778 137.385 349.66 121.267 349.66 101.385V39Z" fill="#FEFEFE"/>
<path d="M385.66 6.5H448.045C465.994 6.50004 480.545 21.0508 480.545 39V101.385C480.545 119.334 465.994 133.885 448.045 133.885H385.66C367.711 133.885 353.16 119.334 353.16 101.385V39C353.16 21.0507 367.711 6.5 385.66 6.5Z" stroke="#EAEAEA" stroke-width="7"/>
<path d="M419.02 51.84L430.82 57.08C434.22 58.58 434.22 61.06 430.82 62.56L419.02 67.8C417.68 68.4 415.48 68.4 414.14 67.8L402.34 62.56C398.94 61.06 398.94 58.58 402.34 57.08L414.14 51.84C415.48 51.24 417.68 51.24 419.02 51.84Z" stroke="#7485FF" stroke-width="2.88" stroke-linecap="round" stroke-linejoin="round"/>
<path d="M399 68C399 69.68 400.26 71.62 401.8 72.3L415.38 78.34C416.42 78.8 417.6 78.8 418.62 78.34L432.2 72.3C433.74 71.62 435 69.68 435 68" stroke="#7485FF" stroke-width="2.88" stroke-linecap="round" stroke-linejoin="round"/>
<path d="M399 78C399 79.86 400.1 81.54 401.8 82.3L415.38 88.34C416.42 88.8 417.6 88.8 418.62 88.34L432.2 82.3C433.9 81.54 435 79.86 435 78" stroke="#7485FF" stroke-width="2.88" stroke-linecap="round" stroke-linejoin="round"/>
</g>
<path d="M364.392 170.116C363.286 170.116 362.299 169.883 361.432 169.416C360.579 168.95 359.906 168.31 359.412 167.496C358.932 166.683 358.692 165.756 358.692 164.716V154.976H361.052V164.616C361.052 165.27 361.192 165.85 361.472 166.356C361.766 166.863 362.159 167.256 362.652 167.536C363.159 167.816 363.739 167.956 364.392 167.956C365.059 167.956 365.639 167.816 366.132 167.536C366.639 167.256 367.032 166.863 367.312 166.356C367.606 165.85 367.752 165.27 367.752 164.616V154.976H370.092V164.716C370.092 165.756 369.852 166.683 369.372 167.496C368.892 168.31 368.219 168.95 367.352 169.416C366.499 169.883 365.512 170.116 364.392 170.116ZM372.831 169.876V159.056H374.991V161.176L374.731 160.896C374.997 160.216 375.424 159.703 376.011 159.356C376.597 158.996 377.277 158.816 378.051 158.816C378.851 158.816 379.557 158.99 380.171 159.336C380.784 159.683 381.264 160.163 381.611 160.776C381.957 161.39 382.131 162.096 382.131 162.896V169.876H379.891V163.496C379.891 162.95 379.791 162.49 379.591 162.116C379.391 161.73 379.104 161.436 378.731 161.236C378.371 161.023 377.957 160.916 377.491 160.916C377.024 160.916 376.604 161.023 376.231 161.236C375.871 161.436 375.591 161.73 375.391 162.116C375.191 162.503 375.091 162.963 375.091 163.496V169.876H372.831ZM384.549 169.876V159.056H386.809V169.876H384.549ZM384.549 157.576V154.976H386.809V157.576H384.549ZM390.672 169.876V161.096H388.672V159.056H390.672V158.496C390.672 157.683 390.839 157.003 391.172 156.456C391.505 155.896 391.965 155.47 392.552 155.176C393.152 154.883 393.839 154.736 394.612 154.736C394.759 154.736 394.925 154.75 395.112 154.776C395.299 154.79 395.452 154.81 395.572 154.836V156.796C395.465 156.77 395.345 156.756 395.212 156.756C395.079 156.743 394.972 156.736 394.892 156.736C394.292 156.736 393.812 156.876 393.452 157.156C393.092 157.423 392.912 157.87 392.912 158.496V159.056H398.092V161.096H392.912V169.876H390.672ZM397.032 169.876V159.056H399.272V169.876H397.032ZM406.739 170.116C405.659 170.116 404.699 169.87 403.859 169.376C403.032 168.87 402.386 168.19 401.919 167.336C401.452 166.47 401.219 165.503 401.219 164.436C401.219 163.343 401.452 162.376 401.919 161.536C402.399 160.696 403.039 160.036 403.839 159.556C404.639 159.063 405.546 158.816 406.559 158.816C407.372 158.816 408.099 158.956 408.739 159.236C409.379 159.516 409.919 159.903 410.359 160.396C410.799 160.876 411.132 161.43 411.359 162.056C411.599 162.683 411.719 163.35 411.719 164.056C411.719 164.23 411.712 164.41 411.699 164.596C411.686 164.783 411.659 164.956 411.619 165.116H402.999V163.316H410.339L409.259 164.136C409.392 163.483 409.346 162.903 409.119 162.396C408.906 161.876 408.572 161.47 408.119 161.176C407.679 160.87 407.159 160.716 406.559 160.716C405.959 160.716 405.426 160.87 404.959 161.176C404.492 161.47 404.132 161.896 403.879 162.456C403.626 163.003 403.526 163.67 403.579 164.456C403.512 165.19 403.612 165.83 403.879 166.376C404.159 166.923 404.546 167.35 405.039 167.656C405.546 167.963 406.119 168.116 406.759 168.116C407.412 168.116 407.966 167.97 408.419 167.676C408.886 167.383 409.252 167.003 409.519 166.536L411.359 167.436C411.146 167.943 410.812 168.403 410.359 168.816C409.919 169.216 409.386 169.536 408.759 169.776C408.146 170.003 407.472 170.116 406.739 170.116ZM418.924 170.116C417.884 170.116 416.951 169.87 416.124 169.376C415.311 168.87 414.664 168.19 414.184 167.336C413.718 166.483 413.484 165.523 413.484 164.456C413.484 163.39 413.724 162.43 414.204 161.576C414.684 160.723 415.331 160.05 416.144 159.556C416.958 159.063 417.878 158.816 418.904 158.816C419.771 158.816 420.538 158.99 421.204 159.336C421.871 159.683 422.398 160.163 422.784 160.776L422.444 161.296V154.736H424.684V169.876H422.544V167.676L422.804 168.096C422.431 168.75 421.898 169.25 421.204 169.596C420.511 169.943 419.751 170.116 418.924 170.116ZM419.144 168.016C419.771 168.016 420.331 167.863 420.824 167.556C421.331 167.25 421.724 166.83 422.004 166.296C422.298 165.75 422.444 165.136 422.444 164.456C422.444 163.776 422.298 163.17 422.004 162.636C421.724 162.103 421.331 161.683 420.824 161.376C420.331 161.07 419.771 160.916 419.144 160.916C418.518 160.916 417.951 161.07 417.444 161.376C416.938 161.683 416.544 162.103 416.264 162.636C415.984 163.17 415.844 163.776 415.844 164.456C415.844 165.136 415.984 165.75 416.264 166.296C416.544 166.83 416.931 167.25 417.424 167.556C417.931 167.863 418.504 168.016 419.144 168.016ZM431.039 169.876V154.976H435.919C437.466 154.976 438.806 155.29 439.939 155.916C441.086 156.53 441.972 157.396 442.599 158.516C443.226 159.636 443.539 160.936 443.539 162.416C443.539 163.883 443.226 165.183 442.599 166.316C441.972 167.436 441.086 168.31 439.939 168.936C438.806 169.563 437.466 169.876 435.919 169.876H431.039ZM433.399 167.776H435.959C437.012 167.776 437.926 167.556 438.699 167.116C439.486 166.676 440.092 166.056 440.519 165.256C440.946 164.456 441.159 163.51 441.159 162.416C441.159 161.323 440.939 160.383 440.499 159.596C440.072 158.796 439.472 158.176 438.699 157.736C437.926 157.296 437.012 157.076 435.959 157.076H433.399V167.776ZM448.786 170.116C448.052 170.116 447.406 169.99 446.846 169.736C446.299 169.47 445.872 169.11 445.566 168.656C445.259 168.19 445.106 167.643 445.106 167.016C445.106 166.43 445.232 165.903 445.486 165.436C445.752 164.97 446.159 164.576 446.706 164.256C447.252 163.936 447.939 163.71 448.766 163.576L452.526 162.956V164.736L449.206 165.316C448.606 165.423 448.166 165.616 447.886 165.896C447.606 166.163 447.466 166.51 447.466 166.936C447.466 167.35 447.619 167.69 447.926 167.956C448.246 168.21 448.652 168.336 449.146 168.336C449.759 168.336 450.292 168.203 450.746 167.936C451.212 167.67 451.572 167.316 451.826 166.876C452.079 166.423 452.206 165.923 452.206 165.376V162.596C452.206 162.063 452.006 161.63 451.606 161.296C451.219 160.95 450.699 160.776 450.046 160.776C449.446 160.776 448.919 160.936 448.466 161.256C448.026 161.563 447.699 161.963 447.486 162.456L445.606 161.516C445.806 160.983 446.132 160.516 446.586 160.116C447.039 159.703 447.566 159.383 448.166 159.156C448.779 158.93 449.426 158.816 450.106 158.816C450.959 158.816 451.712 158.976 452.366 159.296C453.032 159.616 453.546 160.063 453.906 160.636C454.279 161.196 454.466 161.85 454.466 162.596V169.876H452.306V167.916L452.766 167.976C452.512 168.416 452.186 168.796 451.786 169.116C451.399 169.436 450.952 169.683 450.446 169.856C449.952 170.03 449.399 170.116 448.786 170.116ZM461.593 169.996C460.459 169.996 459.579 169.676 458.953 169.036C458.326 168.396 458.013 167.496 458.013 166.336V161.096H456.113V159.056H456.413C456.919 159.056 457.313 158.91 457.593 158.616C457.873 158.323 458.013 157.923 458.013 157.416V156.576H460.273V159.056H462.733V161.096H460.273V166.236C460.273 166.61 460.333 166.93 460.453 167.196C460.573 167.45 460.766 167.65 461.033 167.796C461.299 167.93 461.646 167.996 462.073 167.996C462.179 167.996 462.299 167.99 462.433 167.976C462.566 167.963 462.693 167.95 462.813 167.936V169.876C462.626 169.903 462.419 169.93 462.193 169.956C461.966 169.983 461.766 169.996 461.593 169.996ZM468.161 170.116C467.427 170.116 466.781 169.99 466.221 169.736C465.674 169.47 465.247 169.11 464.941 168.656C464.634 168.19 464.481 167.643 464.481 167.016C464.481 166.43 464.607 165.903 464.861 165.436C465.127 164.97 465.534 164.576 466.081 164.256C466.627 163.936 467.314 163.71 468.141 163.576L471.901 162.956V164.736L468.581 165.316C467.981 165.423 467.541 165.616 467.261 165.896C466.981 166.163 466.841 166.51 466.841 166.936C466.841 167.35 466.994 167.69 467.301 167.956C467.621 168.21 468.027 168.336 468.521 168.336C469.134 168.336 469.667 168.203 470.121 167.936C470.587 167.67 470.947 167.316 471.201 166.876C471.454 166.423 471.581 165.923 471.581 165.376V162.596C471.581 162.063 471.381 161.63 470.981 161.296C470.594 160.95 470.074 160.776 469.421 160.776C468.821 160.776 468.294 160.936 467.841 161.256C467.401 161.563 467.074 161.963 466.861 162.456L464.981 161.516C465.181 160.983 465.507 160.516 465.961 160.116C466.414 159.703 466.941 159.383 467.541 159.156C468.154 158.93 468.801 158.816 469.481 158.816C470.334 158.816 471.087 158.976 471.741 159.296C472.407 159.616 472.921 160.063 473.281 160.636C473.654 161.196 473.841 161.85 473.841 162.596V169.876H471.681V167.916L472.141 167.976C471.887 168.416 471.561 168.796 471.161 169.116C470.774 169.436 470.327 169.683 469.821 169.856C469.327 170.03 468.774 170.116 468.161 170.116Z" fill="#FEFEFE"/>
<g filter="url(#filter11_d_2318_2746)">
<g filter="url(#filter12_d_2318_2746)">
<rect x="667" y="593.7" width="134.385" height="134.385" rx="36" fill="#FEFEFE"/>
<rect x="670.5" y="597.2" width="127.385" height="127.385" rx="32.5" stroke="#EAEAEA" stroke-width="7"/>
<path d="M750 665C752.209 665 754 663.209 754 661C754 658.791 752.209 657 750 657C747.791 657 746 658.791 746 661C746 663.209 747.791 665 750 665Z" stroke="#7485FF" stroke-width="2.88" stroke-linecap="round" stroke-linejoin="round"/>
<path d="M750 649C752.209 649 754 647.209 754 645C754 642.791 752.209 641 750 641C747.791 641 746 642.791 746 645C746 647.209 747.791 649 750 649Z" stroke="#7485FF" stroke-width="2.88" stroke-linecap="round" stroke-linejoin="round"/>
<path d="M750 681C752.209 681 754 679.209 754 677C754 674.791 752.209 673 750 673C747.791 673 746 674.791 746 677C746 679.209 747.791 681 750 681Z" stroke="#7485FF" stroke-width="2.88" stroke-linecap="round" stroke-linejoin="round"/>
<path d="M718 665C720.209 665 722 663.209 722 661C722 658.791 720.209 657 718 657C715.791 657 714 658.791 714 661C714 663.209 715.791 665 718 665Z" stroke="#7485FF" stroke-width="3.6" stroke-linecap="round" stroke-linejoin="round"/>
<path d="M722 661H746" stroke="#7485FF" stroke-width="3.6" stroke-linecap="round" stroke-linejoin="round"/>
<path d="M746 645H738C734 645 732 647 732 651V671C732 675 734 677 738 677H746" stroke="#7485FF" stroke-width="3.6" stroke-linecap="round" stroke-linejoin="round"/>
</g>
</g>
<path d="M679.578 760.576L684.818 745.676H687.738L692.978 760.576H690.458L689.318 757.236H683.258L682.098 760.576H679.578ZM683.938 755.136H688.598L685.958 747.336H686.618L683.938 755.136ZM698.191 760.816C697.377 760.816 696.664 760.636 696.051 760.276C695.437 759.903 694.957 759.39 694.611 758.736C694.277 758.07 694.111 757.303 694.111 756.436V749.756H696.371V756.236C696.371 756.73 696.471 757.163 696.671 757.536C696.871 757.91 697.151 758.203 697.511 758.416C697.871 758.616 698.284 758.716 698.751 758.716C699.231 758.716 699.651 758.61 700.011 758.396C700.371 758.183 700.651 757.883 700.851 757.496C701.064 757.11 701.171 756.656 701.171 756.136V749.756H703.411V760.576H701.271V758.456L701.511 758.736C701.257 759.403 700.837 759.916 700.251 760.276C699.664 760.636 698.977 760.816 698.191 760.816ZM710.729 760.696C709.596 760.696 708.716 760.376 708.089 759.736C707.463 759.096 707.149 758.196 707.149 757.036V751.796H705.249V749.756H705.549C706.056 749.756 706.449 749.61 706.729 749.316C707.009 749.023 707.149 748.623 707.149 748.116V747.276H709.409V749.756H711.869V751.796H709.409V756.936C709.409 757.31 709.469 757.63 709.589 757.896C709.709 758.15 709.903 758.35 710.169 758.496C710.436 758.63 710.783 758.696 711.209 758.696C711.316 758.696 711.436 758.69 711.569 758.676C711.703 758.663 711.829 758.65 711.949 758.636V760.576C711.763 760.603 711.556 760.63 711.329 760.656C711.103 760.683 710.903 760.696 710.729 760.696ZM719.18 760.816C718.14 760.816 717.186 760.57 716.32 760.076C715.466 759.583 714.786 758.91 714.28 758.056C713.773 757.203 713.52 756.236 713.52 755.156C713.52 754.063 713.773 753.096 714.28 752.256C714.786 751.403 715.466 750.736 716.32 750.256C717.173 749.763 718.126 749.516 719.18 749.516C720.246 749.516 721.2 749.763 722.04 750.256C722.893 750.736 723.566 751.403 724.06 752.256C724.566 753.096 724.82 754.063 724.82 755.156C724.82 756.25 724.566 757.223 724.06 758.076C723.553 758.93 722.873 759.603 722.02 760.096C721.166 760.576 720.22 760.816 719.18 760.816ZM719.18 758.716C719.82 758.716 720.386 758.563 720.88 758.256C721.373 757.95 721.76 757.53 722.04 756.996C722.333 756.45 722.48 755.836 722.48 755.156C722.48 754.476 722.333 753.87 722.04 753.336C721.76 752.803 721.373 752.383 720.88 752.076C720.386 751.77 719.82 751.616 719.18 751.616C718.553 751.616 717.986 751.77 717.48 752.076C716.986 752.383 716.593 752.803 716.3 753.336C716.02 753.87 715.88 754.476 715.88 755.156C715.88 755.836 716.02 756.45 716.3 756.996C716.593 757.53 716.986 757.95 717.48 758.256C717.986 758.563 718.553 758.716 719.18 758.716ZM727.026 760.576V749.756H729.186V752.096L728.906 751.736C729.133 751.003 729.546 750.45 730.146 750.076C730.746 749.703 731.433 749.516 732.206 749.516C733.073 749.516 733.839 749.75 734.506 750.216C735.186 750.67 735.639 751.276 735.866 752.036L735.226 752.096C735.546 751.23 736.033 750.583 736.686 750.156C737.353 749.73 738.113 749.516 738.966 749.516C739.713 749.516 740.386 749.69 740.986 750.036C741.599 750.383 742.086 750.863 742.446 751.476C742.806 752.09 742.986 752.79 742.986 753.576V760.576H740.726V754.196C740.726 753.65 740.626 753.19 740.426 752.816C740.239 752.43 739.973 752.136 739.626 751.936C739.293 751.723 738.899 751.616 738.446 751.616C737.993 751.616 737.593 751.723 737.246 751.936C736.899 752.136 736.626 752.43 736.426 752.816C736.226 753.203 736.126 753.663 736.126 754.196V760.576H733.886V754.196C733.886 753.65 733.786 753.19 733.586 752.816C733.399 752.43 733.133 752.136 732.786 751.936C732.453 751.723 732.053 751.616 731.586 751.616C731.133 751.616 730.733 751.723 730.386 751.936C730.039 752.136 729.766 752.43 729.566 752.816C729.379 753.203 729.286 753.663 729.286 754.196V760.576H727.026ZM748.645 760.816C747.912 760.816 747.265 760.69 746.705 760.436C746.158 760.17 745.732 759.81 745.425 759.356C745.118 758.89 744.965 758.343 744.965 757.716C744.965 757.13 745.092 756.603 745.345 756.136C745.612 755.67 746.018 755.276 746.565 754.956C747.112 754.636 747.798 754.41 748.625 754.276L752.385 753.656V755.436L749.065 756.016C748.465 756.123 748.025 756.316 747.745 756.596C747.465 756.863 747.325 757.21 747.325 757.636C747.325 758.05 747.478 758.39 747.785 758.656C748.105 758.91 748.512 759.036 749.005 759.036C749.618 759.036 750.152 758.903 750.605 758.636C751.072 758.37 751.432 758.016 751.685 757.576C751.938 757.123 752.065 756.623 752.065 756.076V753.296C752.065 752.763 751.865 752.33 751.465 751.996C751.078 751.65 750.558 751.476 749.905 751.476C749.305 751.476 748.778 751.636 748.325 751.956C747.885 752.263 747.558 752.663 747.345 753.156L745.465 752.216C745.665 751.683 745.992 751.216 746.445 750.816C746.898 750.403 747.425 750.083 748.025 749.856C748.638 749.63 749.285 749.516 749.965 749.516C750.818 749.516 751.572 749.676 752.225 749.996C752.892 750.316 753.405 750.763 753.765 751.336C754.138 751.896 754.325 752.55 754.325 753.296V760.576H752.165V758.616L752.625 758.676C752.372 759.116 752.045 759.496 751.645 759.816C751.258 760.136 750.812 760.383 750.305 760.556C749.812 760.73 749.258 760.816 748.645 760.816ZM761.452 760.696C760.319 760.696 759.439 760.376 758.812 759.736C758.185 759.096 757.872 758.196 757.872 757.036V751.796H755.972V749.756H756.272C756.779 749.756 757.172 749.61 757.452 749.316C757.732 749.023 757.872 748.623 757.872 748.116V747.276H760.132V749.756H762.592V751.796H760.132V756.936C760.132 757.31 760.192 757.63 760.312 757.896C760.432 758.15 760.625 758.35 760.892 758.496C761.159 758.63 761.505 758.696 761.932 758.696C762.039 758.696 762.159 758.69 762.292 758.676C762.425 758.663 762.552 758.65 762.672 758.636V760.576C762.485 760.603 762.279 760.63 762.052 760.656C761.825 760.683 761.625 760.696 761.452 760.696ZM769.762 760.816C768.682 760.816 767.722 760.57 766.882 760.076C766.056 759.57 765.409 758.89 764.942 758.036C764.476 757.17 764.242 756.203 764.242 755.136C764.242 754.043 764.476 753.076 764.942 752.236C765.422 751.396 766.062 750.736 766.862 750.256C767.662 749.763 768.569 749.516 769.582 749.516C770.396 749.516 771.122 749.656 771.762 749.936C772.402 750.216 772.942 750.603 773.382 751.096C773.822 751.576 774.156 752.13 774.382 752.756C774.622 753.383 774.742 754.05 774.742 754.756C774.742 754.93 774.736 755.11 774.722 755.296C774.709 755.483 774.682 755.656 774.642 755.816H766.022V754.016H773.362L772.282 754.836C772.416 754.183 772.369 753.603 772.142 753.096C771.929 752.576 771.596 752.17 771.142 751.876C770.702 751.57 770.182 751.416 769.582 751.416C768.982 751.416 768.449 751.57 767.982 751.876C767.516 752.17 767.156 752.596 766.902 753.156C766.649 753.703 766.549 754.37 766.602 755.156C766.536 755.89 766.636 756.53 766.902 757.076C767.182 757.623 767.569 758.05 768.062 758.356C768.569 758.663 769.142 758.816 769.782 758.816C770.436 758.816 770.989 758.67 771.442 758.376C771.909 758.083 772.276 757.703 772.542 757.236L774.382 758.136C774.169 758.643 773.836 759.103 773.382 759.516C772.942 759.916 772.409 760.236 771.782 760.476C771.169 760.703 770.496 760.816 769.762 760.816ZM781.948 760.816C780.908 760.816 779.975 760.57 779.148 760.076C778.335 759.57 777.688 758.89 777.208 758.036C776.741 757.183 776.508 756.223 776.508 755.156C776.508 754.09 776.748 753.13 777.228 752.276C777.708 751.423 778.355 750.75 779.168 750.256C779.981 749.763 780.901 749.516 781.928 749.516C782.795 749.516 783.561 749.69 784.228 750.036C784.895 750.383 785.421 750.863 785.808 751.476L785.468 751.996V745.436H787.708V760.576H785.568V758.376L785.828 758.796C785.455 759.45 784.921 759.95 784.228 760.296C783.535 760.643 782.775 760.816 781.948 760.816ZM782.168 758.716C782.795 758.716 783.355 758.563 783.848 758.256C784.355 757.95 784.748 757.53 785.028 756.996C785.321 756.45 785.468 755.836 785.468 755.156C785.468 754.476 785.321 753.87 785.028 753.336C784.748 752.803 784.355 752.383 783.848 752.076C783.355 751.77 782.795 751.616 782.168 751.616C781.541 751.616 780.975 751.77 780.468 752.076C779.961 752.383 779.568 752.803 779.288 753.336C779.008 753.87 778.868 754.476 778.868 755.156C778.868 755.836 779.008 756.45 779.288 756.996C779.568 757.53 779.955 757.95 780.448 758.256C780.955 758.563 781.528 758.716 782.168 758.716ZM686.383 785.576L682.283 770.676H684.783L688.103 783.576H687.483L690.923 770.676H693.383L696.823 783.576H696.183L699.523 770.676H702.003L697.923 785.576H695.263L691.803 772.876H692.503L689.023 785.576H686.383ZM708.057 785.816C707.017 785.816 706.063 785.57 705.197 785.076C704.343 784.583 703.663 783.91 703.157 783.056C702.65 782.203 702.397 781.236 702.397 780.156C702.397 779.063 702.65 778.096 703.157 777.256C703.663 776.403 704.343 775.736 705.197 775.256C706.05 774.763 707.003 774.516 708.057 774.516C709.123 774.516 710.077 774.763 710.917 775.256C711.77 775.736 712.443 776.403 712.937 777.256C713.443 778.096 713.697 779.063 713.697 780.156C713.697 781.25 713.443 782.223 712.937 783.076C712.43 783.93 711.75 784.603 710.897 785.096C710.043 785.576 709.097 785.816 708.057 785.816ZM708.057 783.716C708.697 783.716 709.263 783.563 709.757 783.256C710.25 782.95 710.637 782.53 710.917 781.996C711.21 781.45 711.357 780.836 711.357 780.156C711.357 779.476 711.21 778.87 710.917 778.336C710.637 777.803 710.25 777.383 709.757 777.076C709.263 776.77 708.697 776.616 708.057 776.616C707.43 776.616 706.863 776.77 706.357 777.076C705.863 777.383 705.47 777.803 705.177 778.336C704.897 778.87 704.757 779.476 704.757 780.156C704.757 780.836 704.897 781.45 705.177 781.996C705.47 782.53 705.863 782.95 706.357 783.256C706.863 783.563 707.43 783.716 708.057 783.716ZM715.903 785.576V774.756H718.063V776.936L717.863 776.616C718.103 775.91 718.49 775.403 719.023 775.096C719.556 774.776 720.196 774.616 720.943 774.616H721.603V776.676H720.663C719.916 776.676 719.31 776.91 718.843 777.376C718.39 777.83 718.163 778.483 718.163 779.336V785.576H715.903ZM723.149 785.576V770.436H725.409V780.576L724.529 780.356L729.949 774.756H732.769L728.689 779.096L732.949 785.576H730.349L726.549 779.836L727.889 779.656L724.689 783.056L725.409 781.556V785.576H723.149ZM735.717 785.576V776.796H733.717V774.756H735.717V774.196C735.717 773.383 735.883 772.703 736.217 772.156C736.55 771.596 737.01 771.17 737.597 770.876C738.197 770.583 738.883 770.436 739.657 770.436C739.803 770.436 739.97 770.45 740.157 770.476C740.343 770.49 740.497 770.51 740.617 770.536V772.496C740.51 772.47 740.39 772.456 740.257 772.456C740.123 772.443 740.017 772.436 739.937 772.436C739.337 772.436 738.857 772.576 738.497 772.856C738.137 773.123 737.957 773.57 737.957 774.196V774.756H743.137V776.796H737.957V785.576H735.717ZM742.537 785.576V770.436H744.777V785.576H742.537ZM752.646 785.816C751.606 785.816 750.653 785.57 749.786 785.076C748.933 784.583 748.253 783.91 747.746 783.056C747.24 782.203 746.986 781.236 746.986 780.156C746.986 779.063 747.24 778.096 747.746 777.256C748.253 776.403 748.933 775.736 749.786 775.256C750.64 774.763 751.593 774.516 752.646 774.516C753.713 774.516 754.666 774.763 755.506 775.256C756.36 775.736 757.033 776.403 757.526 777.256C758.033 778.096 758.286 779.063 758.286 780.156C758.286 781.25 758.033 782.223 757.526 783.076C757.02 783.93 756.34 784.603 755.486 785.096C754.633 785.576 753.686 785.816 752.646 785.816ZM752.646 783.716C753.286 783.716 753.853 783.563 754.346 783.256C754.84 782.95 755.226 782.53 755.506 781.996C755.8 781.45 755.946 780.836 755.946 780.156C755.946 779.476 755.8 778.87 755.506 778.336C755.226 777.803 754.84 777.383 754.346 777.076C753.853 776.77 753.286 776.616 752.646 776.616C752.02 776.616 751.453 776.77 750.946 777.076C750.453 777.383 750.06 777.803 749.766 778.336C749.486 778.87 749.346 779.476 749.346 780.156C749.346 780.836 749.486 781.45 749.766 781.996C750.06 782.53 750.453 782.95 750.946 783.256C751.453 783.563 752.02 783.716 752.646 783.716ZM762.917 785.576L759.197 774.756H761.597L764.437 783.376H763.597L766.497 774.756H768.557L771.437 783.376H770.597L773.457 774.756H775.857L772.117 785.576H770.077L767.157 776.756H767.897L764.977 785.576H762.917ZM781.407 785.816C780.3 785.816 779.327 785.543 778.487 784.996C777.66 784.45 777.08 783.716 776.747 782.796L778.487 781.976C778.78 782.59 779.18 783.076 779.687 783.436C780.207 783.796 780.78 783.976 781.407 783.976C781.94 783.976 782.374 783.856 782.707 783.616C783.04 783.376 783.207 783.05 783.207 782.636C783.207 782.37 783.134 782.156 782.987 781.996C782.84 781.823 782.654 781.683 782.427 781.576C782.214 781.47 781.994 781.39 781.767 781.336L780.067 780.856C779.134 780.59 778.434 780.19 777.967 779.656C777.514 779.11 777.287 778.476 777.287 777.756C777.287 777.103 777.454 776.536 777.787 776.056C778.12 775.563 778.58 775.183 779.167 774.916C779.754 774.65 780.414 774.516 781.147 774.516C782.134 774.516 783.014 774.763 783.787 775.256C784.56 775.736 785.107 776.41 785.427 777.276L783.687 778.096C783.474 777.576 783.134 777.163 782.667 776.856C782.214 776.55 781.7 776.396 781.127 776.396C780.634 776.396 780.24 776.516 779.947 776.756C779.654 776.983 779.507 777.283 779.507 777.656C779.507 777.91 779.574 778.123 779.707 778.296C779.84 778.456 780.014 778.59 780.227 778.696C780.44 778.79 780.66 778.87 780.887 778.936L782.647 779.456C783.54 779.71 784.227 780.11 784.707 780.656C785.187 781.19 785.427 781.83 785.427 782.576C785.427 783.216 785.254 783.783 784.907 784.276C784.574 784.756 784.107 785.136 783.507 785.416C782.907 785.683 782.207 785.816 781.407 785.816Z" fill="#FEFEFE"/>
<g filter="url(#filter13_d_2318_2746)">
<path d="M10.5352 629.7C10.5352 609.817 26.6529 593.7 46.5352 593.7H108.92C128.802 593.7 144.92 609.817 144.92 629.7V692.084C144.92 711.967 128.802 728.084 108.92 728.084H46.5351C26.6529 728.084 10.5352 711.967 10.5352 692.084V629.7Z" fill="#FEFEFE"/>
<path d="M46.5352 597.2H108.92C126.869 597.2 141.42 611.75 141.42 629.7V692.084C141.42 710.034 126.869 724.584 108.92 724.584H46.5352C28.5859 724.584 14.0352 710.034 14.0352 692.084V629.7C14.0352 611.75 28.5859 597.2 46.5352 597.2Z" stroke="#EAEAEA" stroke-width="7"/>
<path d="M66 645C69.34 642.5 73.5 641 78 641C89.04 641 98 649.96 98 661C98 672.04 89.04 681 78 681C66.96 681 58 672.04 58 661C58 657.38 58.96 653.98 60.66 651.04L78 661" stroke="#7485FF" stroke-width="2.88" stroke-miterlimit="10" stroke-linecap="round" stroke-linejoin="round"/>
<path d="M67.66 654.92C66.6 656.7 66 658.78 66 661C66 667.62 71.38 673 78 673C84.62 673 90 667.62 90 661C90 654.38 84.62 649 78 649C76.18 649 74.44 649.4 72.9 650.14" stroke="#7485FF" stroke-width="2.88" stroke-miterlimit="10" stroke-linecap="round" stroke-linejoin="round"/>
</g>
<path d="M48.5849 760.576V745.676H54.8649C55.7983 745.676 56.6049 745.843 57.2849 746.176C57.9649 746.496 58.4849 746.963 58.8449 747.576C59.2049 748.176 59.3849 748.89 59.3849 749.716C59.3849 750.436 59.1983 751.096 58.8249 751.696C58.4649 752.283 57.8983 752.75 57.1249 753.096V752.096C57.8049 752.363 58.3583 752.703 58.7849 753.116C59.2116 753.516 59.5183 753.97 59.7049 754.476C59.9049 754.983 60.0049 755.516 60.0049 756.076C60.0049 757.476 59.5449 758.576 58.6249 759.376C57.7183 760.176 56.4716 760.576 54.8849 760.576H48.5849ZM50.9449 758.476H55.0649C55.8516 758.476 56.4783 758.263 56.9449 757.836C57.4116 757.396 57.6449 756.816 57.6449 756.096C57.6449 755.363 57.4116 754.783 56.9449 754.356C56.4783 753.916 55.8516 753.696 55.0649 753.696H50.9449V758.476ZM50.9449 751.616H54.9249C55.5649 751.616 56.0783 751.436 56.4649 751.076C56.8516 750.703 57.0449 750.216 57.0449 749.616C57.0449 749.016 56.8516 748.55 56.4649 748.216C56.0783 747.883 55.5649 747.716 54.9249 747.716H50.9449V751.616ZM67.2926 760.816C66.2126 760.816 65.2526 760.57 64.4126 760.076C63.5859 759.57 62.9392 758.89 62.4726 758.036C62.0059 757.17 61.7726 756.203 61.7726 755.136C61.7726 754.043 62.0059 753.076 62.4726 752.236C62.9526 751.396 63.5926 750.736 64.3926 750.256C65.1926 749.763 66.0992 749.516 67.1126 749.516C67.9259 749.516 68.6526 749.656 69.2926 749.936C69.9326 750.216 70.4726 750.603 70.9126 751.096C71.3526 751.576 71.6859 752.13 71.9126 752.756C72.1526 753.383 72.2726 754.05 72.2726 754.756C72.2726 754.93 72.2659 755.11 72.2526 755.296C72.2392 755.483 72.2126 755.656 72.1726 755.816H63.5526V754.016H70.8926L69.8126 754.836C69.9459 754.183 69.8992 753.603 69.6726 753.096C69.4592 752.576 69.1259 752.17 68.6726 751.876C68.2326 751.57 67.7126 751.416 67.1126 751.416C66.5126 751.416 65.9792 751.57 65.5126 751.876C65.0459 752.17 64.6859 752.596 64.4326 753.156C64.1792 753.703 64.0792 754.37 64.1326 755.156C64.0659 755.89 64.1659 756.53 64.4326 757.076C64.7126 757.623 65.0992 758.05 65.5926 758.356C66.0992 758.663 66.6726 758.816 67.3126 758.816C67.9659 758.816 68.5192 758.67 68.9726 758.376C69.4392 758.083 69.8059 757.703 70.0726 757.236L71.9126 758.136C71.6992 758.643 71.3659 759.103 70.9126 759.516C70.4726 759.916 69.9392 760.236 69.3126 760.476C68.6992 760.703 68.0259 760.816 67.2926 760.816ZM79.1582 760.696C78.0249 760.696 77.1449 760.376 76.5182 759.736C75.8915 759.096 75.5782 758.196 75.5782 757.036V751.796H73.6782V749.756H73.9782C74.4849 749.756 74.8782 749.61 75.1582 749.316C75.4382 749.023 75.5782 748.623 75.5782 748.116V747.276H77.8382V749.756H80.2982V751.796H77.8382V756.936C77.8382 757.31 77.8982 757.63 78.0182 757.896C78.1382 758.15 78.3315 758.35 78.5982 758.496C78.8649 758.63 79.2115 758.696 79.6382 758.696C79.7449 758.696 79.8649 758.69 79.9982 758.676C80.1315 758.663 80.2582 758.65 80.3782 758.636V760.576C80.1915 760.603 79.9849 760.63 79.7582 760.656C79.5315 760.683 79.3315 760.696 79.1582 760.696ZM87.2637 760.696C86.1303 760.696 85.2503 760.376 84.6237 759.736C83.997 759.096 83.6837 758.196 83.6837 757.036V751.796H81.7837V749.756H82.0837C82.5903 749.756 82.9837 749.61 83.2637 749.316C83.5437 749.023 83.6837 748.623 83.6837 748.116V747.276H85.9437V749.756H88.4037V751.796H85.9437V756.936C85.9437 757.31 86.0037 757.63 86.1237 757.896C86.2437 758.15 86.437 758.35 86.7037 758.496C86.9703 758.63 87.317 758.696 87.7437 758.696C87.8503 758.696 87.9703 758.69 88.1037 758.676C88.237 758.663 88.3637 758.65 88.4837 758.636V760.576C88.297 760.603 88.0903 760.63 87.8637 760.656C87.637 760.683 87.437 760.696 87.2637 760.696ZM95.5738 760.816C94.4938 760.816 93.5338 760.57 92.6938 760.076C91.8672 759.57 91.2205 758.89 90.7538 758.036C90.2872 757.17 90.0538 756.203 90.0538 755.136C90.0538 754.043 90.2872 753.076 90.7538 752.236C91.2338 751.396 91.8738 750.736 92.6738 750.256C93.4738 749.763 94.3805 749.516 95.3938 749.516C96.2072 749.516 96.9338 749.656 97.5738 749.936C98.2138 750.216 98.7538 750.603 99.1938 751.096C99.6338 751.576 99.9672 752.13 100.194 752.756C100.434 753.383 100.554 754.05 100.554 754.756C100.554 754.93 100.547 755.11 100.534 755.296C100.52 755.483 100.494 755.656 100.454 755.816H91.8338V754.016H99.1738L98.0938 754.836C98.2272 754.183 98.1805 753.603 97.9538 753.096C97.7405 752.576 97.4072 752.17 96.9538 751.876C96.5138 751.57 95.9938 751.416 95.3938 751.416C94.7938 751.416 94.2605 751.57 93.7938 751.876C93.3272 752.17 92.9672 752.596 92.7138 753.156C92.4605 753.703 92.3605 754.37 92.4138 755.156C92.3472 755.89 92.4472 756.53 92.7138 757.076C92.9938 757.623 93.3805 758.05 93.8738 758.356C94.3805 758.663 94.9538 758.816 95.5938 758.816C96.2472 758.816 96.8005 758.67 97.2538 758.376C97.7205 758.083 98.0872 757.703 98.3538 757.236L100.194 758.136C99.9805 758.643 99.6472 759.103 99.1938 759.516C98.7538 759.916 98.2205 760.236 97.5938 760.476C96.9805 760.703 96.3072 760.816 95.5738 760.816ZM102.759 760.576V749.756H104.919V751.936L104.719 751.616C104.959 750.91 105.346 750.403 105.879 750.096C106.413 749.776 107.053 749.616 107.799 749.616H108.459V751.676H107.519C106.773 751.676 106.166 751.91 105.699 752.376C105.246 752.83 105.019 753.483 105.019 754.336V760.576H102.759ZM32.2666 785.576V770.676H37.1466C38.6932 770.676 40.0332 770.99 41.1666 771.616C42.3132 772.23 43.1999 773.096 43.8266 774.216C44.4532 775.336 44.7666 776.636 44.7666 778.116C44.7666 779.583 44.4532 780.883 43.8266 782.016C43.1999 783.136 42.3132 784.01 41.1666 784.636C40.0332 785.263 38.6932 785.576 37.1466 785.576H32.2666ZM34.6266 783.476H37.1866C38.2399 783.476 39.1532 783.256 39.9266 782.816C40.7132 782.376 41.3199 781.756 41.7466 780.956C42.1732 780.156 42.3866 779.21 42.3866 778.116C42.3866 777.023 42.1666 776.083 41.7266 775.296C41.2999 774.496 40.6999 773.876 39.9266 773.436C39.1532 772.996 38.2399 772.776 37.1866 772.776H34.6266V783.476ZM51.9508 785.816C50.8708 785.816 49.9108 785.57 49.0708 785.076C48.2441 784.57 47.5974 783.89 47.1308 783.036C46.6641 782.17 46.4308 781.203 46.4308 780.136C46.4308 779.043 46.6641 778.076 47.1308 777.236C47.6108 776.396 48.2508 775.736 49.0508 775.256C49.8508 774.763 50.7574 774.516 51.7708 774.516C52.5841 774.516 53.3108 774.656 53.9508 774.936C54.5908 775.216 55.1308 775.603 55.5708 776.096C56.0108 776.576 56.3441 777.13 56.5708 777.756C56.8108 778.383 56.9308 779.05 56.9308 779.756C56.9308 779.93 56.9241 780.11 56.9108 780.296C56.8974 780.483 56.8708 780.656 56.8308 780.816H48.2108V779.016H55.5508L54.4708 779.836C54.6041 779.183 54.5574 778.603 54.3308 778.096C54.1174 777.576 53.7841 777.17 53.3308 776.876C52.8908 776.57 52.3708 776.416 51.7708 776.416C51.1708 776.416 50.6374 776.57 50.1708 776.876C49.7041 777.17 49.3441 777.596 49.0908 778.156C48.8374 778.703 48.7374 779.37 48.7908 780.156C48.7241 780.89 48.8241 781.53 49.0908 782.076C49.3708 782.623 49.7574 783.05 50.2508 783.356C50.7574 783.663 51.3308 783.816 51.9708 783.816C52.6241 783.816 53.1774 783.67 53.6308 783.376C54.0974 783.083 54.4641 782.703 54.7308 782.236L56.5708 783.136C56.3574 783.643 56.0241 784.103 55.5708 784.516C55.1308 784.916 54.5974 785.236 53.9708 785.476C53.3574 785.703 52.6841 785.816 51.9508 785.816ZM64.2764 785.816C63.1964 785.816 62.2364 785.57 61.3964 785.076C60.5697 784.57 59.9097 783.89 59.4164 783.036C58.9364 782.183 58.6964 781.216 58.6964 780.136C58.6964 779.07 58.9364 778.11 59.4164 777.256C59.8964 776.403 60.5564 775.736 61.3964 775.256C62.2364 774.763 63.1964 774.516 64.2764 774.516C65.0097 774.516 65.6964 774.65 66.3364 774.916C66.9764 775.17 67.5297 775.523 67.9964 775.976C68.4764 776.43 68.8297 776.956 69.0564 777.556L67.0764 778.476C66.8497 777.916 66.4831 777.47 65.9764 777.136C65.4831 776.79 64.9164 776.616 64.2764 776.616C63.6631 776.616 63.1097 776.77 62.6164 777.076C62.1364 777.37 61.7564 777.79 61.4764 778.336C61.1964 778.87 61.0564 779.476 61.0564 780.156C61.0564 780.836 61.1964 781.45 61.4764 781.996C61.7564 782.53 62.1364 782.95 62.6164 783.256C63.1097 783.563 63.6631 783.716 64.2764 783.716C64.9297 783.716 65.4964 783.55 65.9764 783.216C66.4697 782.87 66.8364 782.41 67.0764 781.836L69.0564 782.776C68.8431 783.35 68.4964 783.87 68.0164 784.336C67.5497 784.79 66.9964 785.15 66.3564 785.416C65.7164 785.683 65.0231 785.816 64.2764 785.816ZM71.2653 785.576V774.756H73.5253V785.576H71.2653ZM71.2653 773.276V770.676H73.5253V773.276H71.2653ZM80.1677 785.816C79.061 785.816 78.0877 785.543 77.2477 784.996C76.421 784.45 75.841 783.716 75.5077 782.796L77.2477 781.976C77.541 782.59 77.941 783.076 78.4477 783.436C78.9677 783.796 79.541 783.976 80.1677 783.976C80.701 783.976 81.1343 783.856 81.4677 783.616C81.801 783.376 81.9677 783.05 81.9677 782.636C81.9677 782.37 81.8943 782.156 81.7477 781.996C81.601 781.823 81.4143 781.683 81.1877 781.576C80.9743 781.47 80.7543 781.39 80.5277 781.336L78.8277 780.856C77.8943 780.59 77.1943 780.19 76.7277 779.656C76.2743 779.11 76.0477 778.476 76.0477 777.756C76.0477 777.103 76.2143 776.536 76.5477 776.056C76.881 775.563 77.341 775.183 77.9277 774.916C78.5143 774.65 79.1743 774.516 79.9077 774.516C80.8943 774.516 81.7743 774.763 82.5477 775.256C83.321 775.736 83.8677 776.41 84.1877 777.276L82.4477 778.096C82.2343 777.576 81.8943 777.163 81.4277 776.856C80.9743 776.55 80.461 776.396 79.8877 776.396C79.3943 776.396 79.001 776.516 78.7077 776.756C78.4143 776.983 78.2677 777.283 78.2677 777.656C78.2677 777.91 78.3343 778.123 78.4677 778.296C78.601 778.456 78.7743 778.59 78.9877 778.696C79.201 778.79 79.421 778.87 79.6477 778.936L81.4077 779.456C82.301 779.71 82.9877 780.11 83.4677 780.656C83.9477 781.19 84.1877 781.83 84.1877 782.576C84.1877 783.216 84.0143 783.783 83.6677 784.276C83.3343 784.756 82.8677 785.136 82.2677 785.416C81.6677 785.683 80.9677 785.816 80.1677 785.816ZM86.402 785.576V774.756H88.662V785.576H86.402ZM86.402 773.276V770.676H88.662V773.276H86.402ZM96.5244 785.816C95.4844 785.816 94.531 785.57 93.6644 785.076C92.811 784.583 92.131 783.91 91.6244 783.056C91.1177 782.203 90.8644 781.236 90.8644 780.156C90.8644 779.063 91.1177 778.096 91.6244 777.256C92.131 776.403 92.811 775.736 93.6644 775.256C94.5177 774.763 95.471 774.516 96.5244 774.516C97.591 774.516 98.5444 774.763 99.3844 775.256C100.238 775.736 100.911 776.403 101.404 777.256C101.911 778.096 102.164 779.063 102.164 780.156C102.164 781.25 101.911 782.223 101.404 783.076C100.898 783.93 100.218 784.603 99.3644 785.096C98.511 785.576 97.5644 785.816 96.5244 785.816ZM96.5244 783.716C97.1644 783.716 97.731 783.563 98.2244 783.256C98.7177 782.95 99.1044 782.53 99.3844 781.996C99.6777 781.45 99.8244 780.836 99.8244 780.156C99.8244 779.476 99.6777 778.87 99.3844 778.336C99.1044 777.803 98.7177 777.383 98.2244 777.076C97.731 776.77 97.1644 776.616 96.5244 776.616C95.8977 776.616 95.331 776.77 94.8244 777.076C94.331 777.383 93.9377 777.803 93.6444 778.336C93.3644 778.87 93.2244 779.476 93.2244 780.156C93.2244 780.836 93.3644 781.45 93.6444 781.996C93.9377 782.53 94.331 782.95 94.8244 783.256C95.331 783.563 95.8977 783.716 96.5244 783.716ZM104.371 785.576V774.756H106.531V776.876L106.271 776.596C106.537 775.916 106.964 775.403 107.551 775.056C108.137 774.696 108.817 774.516 109.591 774.516C110.391 774.516 111.097 774.69 111.711 775.036C112.324 775.383 112.804 775.863 113.151 776.476C113.497 777.09 113.671 777.796 113.671 778.596V785.576H111.431V779.196C111.431 778.65 111.331 778.19 111.131 777.816C110.931 777.43 110.644 777.136 110.271 776.936C109.911 776.723 109.497 776.616 109.031 776.616C108.564 776.616 108.144 776.723 107.771 776.936C107.411 777.136 107.131 777.43 106.931 777.816C106.731 778.203 106.631 778.663 106.631 779.196V785.576H104.371ZM120.09 785.816C118.983 785.816 118.01 785.543 117.17 784.996C116.343 784.45 115.763 783.716 115.43 782.796L117.17 781.976C117.463 782.59 117.863 783.076 118.37 783.436C118.89 783.796 119.463 783.976 120.09 783.976C120.623 783.976 121.056 783.856 121.39 783.616C121.723 783.376 121.89 783.05 121.89 782.636C121.89 782.37 121.816 782.156 121.67 781.996C121.523 781.823 121.336 781.683 121.11 781.576C120.896 781.47 120.676 781.39 120.45 781.336L118.75 780.856C117.816 780.59 117.116 780.19 116.65 779.656C116.196 779.11 115.97 778.476 115.97 777.756C115.97 777.103 116.136 776.536 116.47 776.056C116.803 775.563 117.263 775.183 117.85 774.916C118.436 774.65 119.096 774.516 119.83 774.516C120.816 774.516 121.696 774.763 122.47 775.256C123.243 775.736 123.79 776.41 124.11 777.276L122.37 778.096C122.156 777.576 121.816 777.163 121.35 776.856C120.896 776.55 120.383 776.396 119.81 776.396C119.316 776.396 118.923 776.516 118.63 776.756C118.336 776.983 118.19 777.283 118.19 777.656C118.19 777.91 118.256 778.123 118.39 778.296C118.523 778.456 118.696 778.59 118.91 778.696C119.123 778.79 119.343 778.87 119.57 778.936L121.33 779.456C122.223 779.71 122.91 780.11 123.39 780.656C123.87 781.19 124.11 781.83 124.11 782.576C124.11 783.216 123.936 783.783 123.59 784.276C123.256 784.756 122.79 785.136 122.19 785.416C121.59 785.683 120.89 785.816 120.09 785.816Z" fill="#FEFEFE"/>
<defs>
<filter id="filter0_i_2318_2746" x="60.2461" y="171" width="712.489" height="712.489" filterUnits="userSpaceOnUse" color-interpolation-filters="sRGB">
<feFlood flood-opacity="0" result="BackgroundImageFix"/>
<feBlend mode="normal" in="SourceGraphic" in2="BackgroundImageFix" result="shape"/>
<feColorMatrix in="SourceAlpha" type="matrix" values="0 0 0 0 0 0 0 0 0 0 0 0 0 0 0 0 0 0 127 0" result="hardAlpha"/>
<feOffset/>
<feGaussianBlur stdDeviation="10.1784"/>
<feComposite in2="hardAlpha" operator="arithmetic" k2="-1" k3="1"/>
<feColorMatrix type="matrix" values="0 0 0 0 0 0 0 0 0 0 0 0 0 0 0 0 0 0 0.04 0"/>
<feBlend mode="normal" in2="shape" result="effect1_innerShadow_2318_2746"/>
</filter>
<filter id="filter2_d_2318_2746" x="224.456" y="556.831" width="384.552" height="149.091" filterUnits="userSpaceOnUse" color-interpolation-filters="sRGB">
<feFlood flood-opacity="0" result="BackgroundImageFix"/>
<feColorMatrix in="SourceAlpha" type="matrix" values="0 0 0 0 0 0 0 0 0 0 0 0 0 0 0 0 0 0 127 0" result="hardAlpha"/>
<feOffset dy="0.897108"/>
<feGaussianBlur stdDeviation="1.79422"/>
<feComposite in2="hardAlpha" operator="out"/>
<feColorMatrix type="matrix" values="0 0 0 0 0 0 0 0 0 0 0 0 0 0 0 0 0 0 0.05 0"/>
<feBlend mode="normal" in2="BackgroundImageFix" result="effect1_dropShadow_2318_2746"/>
<feBlend mode="normal" in="SourceGraphic" in2="effect1_dropShadow_2318_2746" result="shape"/>
</filter>
<filter id="filter4_d_2318_2746" x="224.456" y="507.49" width="384.552" height="149.091" filterUnits="userSpaceOnUse" color-interpolation-filters="sRGB">
<feFlood flood-opacity="0" result="BackgroundImageFix"/>
<feColorMatrix in="SourceAlpha" type="matrix" values="0 0 0 0 0 0 0 0 0 0 0 0 0 0 0 0 0 0 127 0" result="hardAlpha"/>
<feOffset dy="0.897108"/>
<feGaussianBlur stdDeviation="1.79422"/>
<feComposite in2="hardAlpha" operator="out"/>
<feColorMatrix type="matrix" values="0 0 0 0 0 0 0 0 0 0 0 0 0 0 0 0 0 0 0.05 0"/>
<feBlend mode="normal" in2="BackgroundImageFix" result="effect1_dropShadow_2318_2746"/>
<feBlend mode="normal" in="SourceGraphic" in2="effect1_dropShadow_2318_2746" result="shape"/>
</filter>
<filter id="filter6_d_2318_2746" x="224.456" y="458.149" width="384.552" height="149.091" filterUnits="userSpaceOnUse" color-interpolation-filters="sRGB">
<feFlood flood-opacity="0" result="BackgroundImageFix"/>
<feColorMatrix in="SourceAlpha" type="matrix" values="0 0 0 0 0 0 0 0 0 0 0 0 0 0 0 0 0 0 127 0" result="hardAlpha"/>
<feOffset dy="0.897108"/>
<feGaussianBlur stdDeviation="1.79422"/>
<feComposite in2="hardAlpha" operator="out"/>
<feColorMatrix type="matrix" values="0 0 0 0 0 0 0 0 0 0 0 0 0 0 0 0 0 0 0.05 0"/>
<feBlend mode="normal" in2="BackgroundImageFix" result="effect1_dropShadow_2318_2746"/>
<feBlend mode="normal" in="SourceGraphic" in2="effect1_dropShadow_2318_2746" result="shape"/>
</filter>
<filter id="filter8_d_2318_2746" x="663" y="263" width="142.385" height="142.385" filterUnits="userSpaceOnUse" color-interpolation-filters="sRGB">
<feFlood flood-opacity="0" result="BackgroundImageFix"/>
<feColorMatrix in="SourceAlpha" type="matrix" values="0 0 0 0 0 0 0 0 0 0 0 0 0 0 0 0 0 0 127 0" result="hardAlpha"/>
<feOffset dy="1"/>
<feGaussianBlur stdDeviation="2"/>
<feComposite in2="hardAlpha" operator="out"/>
<feColorMatrix type="matrix" values="0 0 0 0 0 0 0 0 0 0 0 0 0 0 0 0 0 0 0.05 0"/>
<feBlend mode="normal" in2="BackgroundImageFix" result="effect1_dropShadow_2318_2746"/>
<feBlend mode="normal" in="SourceGraphic" in2="effect1_dropShadow_2318_2746" result="shape"/>
</filter>
<filter id="filter9_d_2318_2746" x="11.6602" y="264" width="142.385" height="142.385" filterUnits="userSpaceOnUse" color-interpolation-filters="sRGB">
<feFlood flood-opacity="0" result="BackgroundImageFix"/>
<feColorMatrix in="SourceAlpha" type="matrix" values="0 0 0 0 0 0 0 0 0 0 0 0 0 0 0 0 0 0 127 0" result="hardAlpha"/>
<feOffset dy="1"/>
<feGaussianBlur stdDeviation="2"/>
<feComposite in2="hardAlpha" operator="out"/>
<feColorMatrix type="matrix" values="0 0 0 0 0 0 0 0 0 0 0 0 0 0 0 0 0 0 0.05 0"/>
<feBlend mode="normal" in2="BackgroundImageFix" result="effect1_dropShadow_2318_2746"/>
<feBlend mode="normal" in="SourceGraphic" in2="effect1_dropShadow_2318_2746" result="shape"/>
</filter>
<filter id="filter10_d_2318_2746" x="345.66" y="0" width="142.385" height="142.385" filterUnits="userSpaceOnUse" color-interpolation-filters="sRGB">
<feFlood flood-opacity="0" result="BackgroundImageFix"/>
<feColorMatrix in="SourceAlpha" type="matrix" values="0 0 0 0 0 0 0 0 0 0 0 0 0 0 0 0 0 0 127 0" result="hardAlpha"/>
<feOffset dy="1"/>
<feGaussianBlur stdDeviation="2"/>
<feComposite in2="hardAlpha" operator="out"/>
<feColorMatrix type="matrix" values="0 0 0 0 0 0 0 0 0 0 0 0 0 0 0 0 0 0 0.05 0"/>
<feBlend mode="normal" in2="BackgroundImageFix" result="effect1_dropShadow_2318_2746"/>
<feBlend mode="normal" in="SourceGraphic" in2="effect1_dropShadow_2318_2746" result="shape"/>
</filter>
<filter id="filter11_d_2318_2746" x="663" y="590.7" width="142.385" height="142.385" filterUnits="userSpaceOnUse" color-interpolation-filters="sRGB">
<feFlood flood-opacity="0" result="BackgroundImageFix"/>
<feColorMatrix in="SourceAlpha" type="matrix" values="0 0 0 0 0 0 0 0 0 0 0 0 0 0 0 0 0 0 127 0" result="hardAlpha"/>
<feOffset dy="1"/>
<feGaussianBlur stdDeviation="2"/>
<feComposite in2="hardAlpha" operator="out"/>
<feColorMatrix type="matrix" values="0 0 0 0 0 0 0 0 0 0 0 0 0 0 0 0 0 0 0.05 0"/>
<feBlend mode="normal" in2="BackgroundImageFix" result="effect1_dropShadow_2318_2746"/>
<feBlend mode="normal" in="SourceGraphic" in2="effect1_dropShadow_2318_2746" result="shape"/>
</filter>
<filter id="filter12_d_2318_2746" x="663" y="590.7" width="142.385" height="142.385" filterUnits="userSpaceOnUse" color-interpolation-filters="sRGB">
<feFlood flood-opacity="0" result="BackgroundImageFix"/>
<feColorMatrix in="SourceAlpha" type="matrix" values="0 0 0 0 0 0 0 0 0 0 0 0 0 0 0 0 0 0 127 0" result="hardAlpha"/>
<feOffset dy="1"/>
<feGaussianBlur stdDeviation="2"/>
<feComposite in2="hardAlpha" operator="out"/>
<feColorMatrix type="matrix" values="0 0 0 0 0 0 0 0 0 0 0 0 0 0 0 0 0 0 0.05 0"/>
<feBlend mode="normal" in2="BackgroundImageFix" result="effect1_dropShadow_2318_2746"/>
<feBlend mode="normal" in="SourceGraphic" in2="effect1_dropShadow_2318_2746" result="shape"/>
</filter>
<filter id="filter13_d_2318_2746" x="6.53516" y="590.7" width="142.385" height="142.385" filterUnits="userSpaceOnUse" color-interpolation-filters="sRGB">
<feFlood flood-opacity="0" result="BackgroundImageFix"/>
<feColorMatrix in="SourceAlpha" type="matrix" values="0 0 0 0 0 0 0 0 0 0 0 0 0 0 0 0 0 0 127 0" result="hardAlpha"/>
<feOffset dy="1"/>
<feGaussianBlur stdDeviation="2"/>
<feComposite in2="hardAlpha" operator="out"/>
<feColorMatrix type="matrix" values="0 0 0 0 0 0 0 0 0 0 0 0 0 0 0 0 0 0 0.05 0"/>
<feBlend mode="normal" in2="BackgroundImageFix" result="effect1_dropShadow_2318_2746"/>
<feBlend mode="normal" in="SourceGraphic" in2="effect1_dropShadow_2318_2746" result="shape"/>
</filter>
<linearGradient id="paint0_linear_2318_2746" x1="414.976" y1="452.682" x2="414.976" y2="667.344" gradientUnits="userSpaceOnUse">
<stop stop-color="white"/>
<stop offset="1" stop-color="#EAEAEA"/>
</linearGradient>
<linearGradient id="paint1_linear_2318_2746" x1="414.976" y1="403.341" x2="414.976" y2="618.003" gradientUnits="userSpaceOnUse">
<stop stop-color="white"/>
<stop offset="1" stop-color="#EAEAEA"/>
</linearGradient>
<linearGradient id="paint2_linear_2318_2746" x1="414.976" y1="354" x2="414.976" y2="568.662" gradientUnits="userSpaceOnUse">
<stop stop-color="white"/>
<stop offset="1" stop-color="#EAEAEA"/>
</linearGradient>
</defs>
</svg>
