<svg xmlns="http://www.w3.org/2000/svg" width="1600" height="1400" viewBox="0 0 1600 1400" preserveAspectRatio="xMidYMid slice">
  <g stroke="#ffffff" stroke-width="1.5" fill="none" opacity="0.06">
    <!-- isometric building / structure lines -->
    <path d="M0 900 L600 720 L600 1400 M600 720 L1200 860 L1200 1400 M0 900 L0 1400"/>
    <path d="M600 720 L600 300 L1100 180 L1100 600"/>
    <path d="M1100 180 L1600 320 L1600 1400 L1200 1400"/>
    <path d="M200 1000 L200 1400 M360 960 L360 1400 M760 780 L760 1400 M920 810 L920 1400 M1320 360 L1320 1400 M1460 400 L1460 1400"/>
    <path d="M0 1050 L1600 760 M0 1180 L1600 900 M600 540 L1100 360 M600 640 L1100 460"/>
    <path d="M1100 300 L1600 440 M1100 420 L1600 560"/>
  </g>
</svg>
